<svg id="Capa_1" data-name="Capa 1" xmlns="http://www.w3.org/2000/svg" viewBox="0 0 160 50"><defs><style>.cls-1{fill:#ef7923;}</style></defs><title>rentaC_logo</title><path class="cls-1" d="M27.94,35.42V42h-10V35.42a9,9,0,0,0,4.84-8.18,9.2,9.2,0,0,0-5-8.21H37.63v7.26H31.48a4.54,4.54,0,0,1-.74,2.85h6.89v2.73H29.88a13.41,13.41,0,0,1-1.95,2.31v1.23M6.17,25.93A7.08,7.08,0,0,1,13.23,19a7,7,0,0,1,7,6.92c0,.22,0,.45,0,.66-.35-3.41-3.42-5.75-7-5.75s-6.55,2.34-6.9,5.75C6.18,26.38,6.17,26.15,6.17,25.93ZM16.62,24a5.87,5.87,0,0,1,2.24,4.22,5.8,5.8,0,0,1-5.61,6.06A7.26,7.26,0,0,1,7,30.4,5.9,5.9,0,0,0,11.91,33a5.74,5.74,0,0,0,5.85-5.63A5.44,5.44,0,0,0,16.62,24ZM9.68,26a3.24,3.24,0,0,1,3.17-3.2,3.32,3.32,0,0,1,2.89,2,3.11,3.11,0,0,0-2.25-.94,3,3,0,0,0-3.08,3,2.86,2.86,0,0,0,.51,1.62A3,3,0,0,1,9.68,26ZM8.3,8.13H37.63v4.69H12.2a1.62,1.62,0,0,0-1.49-1.05H9.64v-2H8.3ZM4.11,33.35A10.77,10.77,0,0,1,1,25.82C1,19.52,5.88,15,12.87,14.57H37.63v2.11H13.12A10.85,10.85,0,0,0,2.21,27.34,10.4,10.4,0,0,0,4.11,33.35Zm28.82,2.94V42H29.86V34.08h3.07Zm1.72-2.21h3V42h-3V34.08Zm-19.6-7.16a2.57,2.57,0,0,1-1.74,3.28,3.31,3.31,0,0,1-3.11-.9,3.05,3.05,0,0,0,2.23.1,2.62,2.62,0,0,0,1.73-2.78,1.94,1.94,0,0,0-.78-1.35A2.64,2.64,0,0,1,15.05,26.92Zm129-4.88h7L147.7,11.83C147,14.42,145.24,18.65,144.08,22Zm-6.14,8.53V29.48c1.78-.1,2-.78,3.07-3.69L146.92,10l-.71-2a4.9,4.9,0,0,0,1.84.19A5,5,0,0,0,149.9,8l7,20.16c.33.91.72,1.3,2.14,1.3v1.09a27.89,27.89,0,0,0-4.43-.19,27.89,27.89,0,0,0-4.43.19V29.48c2.36,0,3.07-.23,3.07-.84s-.25-1-1.64-5.11h-8.05c-1.23,3.75-1.58,4.3-1.58,5,0,.58.48.71,1.87.91v1.09a22.84,22.84,0,0,0-5.88,0ZM131.1,9.7V27.47c0,1.71.19,2,3.55,2v1.09a40.52,40.52,0,0,0-5.36-.19,40.61,40.61,0,0,0-5.37.19V29.48c3.43,0,3.62-.3,3.62-2V9.7h-2.19c-3.17,0-4.24.42-4.46,3.88h-1.26L120,8c1.68.13,3.59.19,9.4.19S137,8.15,138.69,8l.32,5.56h-1.26c-.22-3.46-1.29-3.88-4.45-3.88ZM98.44,13V27.47c0,1.71.19,2,3.36,2v1.09a24,24,0,0,0-4.11-.19,23.73,23.73,0,0,0-4.1.19V29.48c3.17,0,3.36-.3,3.36-2V11.25L94.59,8c.65.06,1.55.19,2.36.19a18.06,18.06,0,0,0,2-.19l13.93,17.77.06-14.67c0-1.71-.19-2-3.36-2V8a24,24,0,0,0,4.11.19,23.73,23.73,0,0,0,4.1-.19v1.1c-3.17,0-3.36.29-3.36,2V27.67l2.29,2.9c-.68-.06-1.61-.19-2.45-.19a18.22,18.22,0,0,0-1.94.19L98.5,13ZM82.22,19.52h-5v9.37H85a5,5,0,0,0,5.24-4.1l1.1.1-1,5.49H75.17a40.72,40.72,0,0,0-4.78.19l-.06-1.09c3,0,3.32-.3,3.32-2V11.12c0-1.71-.32-2-3.32-2V8c3.13.06,6.17.19,9.2.19s6-.13,9.21-.19l.1,5.17H87.71a4,4,0,0,0-4.14-3.68H77.21V18h4.68c2.65,0,3.75-.39,3.85-2.91h1.1V22.5h-1.1C85.55,20,84.51,19.52,82.22,19.52ZM52.47,9.7V19h1.81c3.62,0,6.33-1.55,6.33-4.79,0-3.87-3-4.52-6.33-4.52Zm0,10.79v7c0,1.71.19,2,3.55,2v1.09a40.52,40.52,0,0,0-5.36-.19,34.09,34.09,0,0,0-4.85.19V29.48c2.91,0,3.1-.3,3.1-2V11.12c0-1.71-.19-2-3.1-2V8a43.26,43.26,0,0,0,5.07.19h4.24c5.88,0,9.11,2,9.11,5.79s-2.68,5.3-6,5.88l6.88,7.56a5.41,5.41,0,0,0,3.75,2v1.09a28.7,28.7,0,0,0-3.59-.19H63.39c-3-3.17-5.88-6.59-8.79-9.89ZM157.08,41.57v.27l-.82.06-1.19-2.07-1-1.81.07,2.21,0,.8,0,.81-.66.06c0-.65,0-1.27,0-1.88,0-.87,0-1.75,0-2.63a7.2,7.2,0,0,1,.87-.06c.5.83.95,1.64,1.37,2.39l.8,1.41,0-2.14c0-1,0-1.15-.06-1.6a6,6,0,0,1,.65-.06c0,.83,0,1.63,0,2.42C157.06,40.36,157.07,41,157.08,41.57Zm-12.16-5.48c-.29.42-.37.52-.67.92l-.53,0c.09-.28.23-.62.3-.89Zm-.86,5.35c.94,0,1.31-.86,1.31-1.84a2.78,2.78,0,0,0-.27-1.26,1.26,1.26,0,0,0-2.07,0,2.55,2.55,0,0,0-.29,1.27,2.69,2.69,0,0,0,.26,1.24A1.18,1.18,0,0,0,144.06,41.44Zm0,.54A2,2,0,0,1,142,39.65c0-1.44.77-2.4,2.1-2.4s2.08.9,2.08,2.39S145.31,42,144,42Zm-9.47-4.65c0,.47,0,1,0,2.09s0,1.76,0,2.42l-.75.06c0-.43,0-.77,0-1.6s0-1.94-.05-2.9A6.15,6.15,0,0,1,134.57,37.33Zm-8,3.66a4.8,4.8,0,0,1,0,.66,2.24,2.24,0,0,1-1.25.33,2.13,2.13,0,0,1-2.24-2.36,2.51,2.51,0,0,1,.59-1.71,2.19,2.19,0,0,1,1.69-.66,3.16,3.16,0,0,1,1.18.21c0,.28,0,.34,0,.62a2.71,2.71,0,0,0-1.08-.26c-1,0-1.59.7-1.59,1.78s.66,1.78,1.55,1.78A2,2,0,0,0,126.6,41Zm-12.16-3.18L113.76,40h1.29Zm.56-.44c.25.82.49,1.62.68,2.23s.52,1.6.71,2.22a6.5,6.5,0,0,1-.77.08c-.2-.65-.25-.83-.42-1.4h-1.6c-.19.6-.22.75-.38,1.33-.32,0-.38,0-.71.06a.48.48,0,0,1,0-.24c.24-.7.48-1.39.71-2.08.39-1.14.53-1.56.72-2.18.5,0,.55,0,1-.07Zm-11.84,2.06a2,2,0,0,0,1.33-.25.69.69,0,0,0,.25-.54.85.85,0,0,0-.13-.44c-.2-.32-.55-.34-1-.34h-.42Zm.06,2.41-.74.06c0-.66,0-1.29,0-1.92,0-1.44,0-1.94-.06-2.59l.2,0h1a3.08,3.08,0,0,1,1,.11,1.1,1.1,0,0,1,.81,1.13,1.28,1.28,0,0,1-1.1,1.26c.11.15.61.88.72,1s.29.41.69.94a1.32,1.32,0,0,1-.42.07l-.4,0-.12-.16c-.19-.33-.41-.64-.61-.95-.39-.59-.43-.65-.58-.86h-.46C103.18,40.31,103.18,41.3,103.22,41.84ZM93,41.44c.94,0,1.31-.86,1.31-1.84A2.78,2.78,0,0,0,94,38.34a1.26,1.26,0,0,0-2.07,0,2.67,2.67,0,0,0-.29,1.27,2.82,2.82,0,0,0,.26,1.24A1.18,1.18,0,0,0,93,41.44ZM93,42a2,2,0,0,1-2.08-2.33c0-1.44.77-2.4,2.1-2.4s2.08.9,2.08,2.39S94.24,42,93,42ZM81.52,39.64c.21,0,.48,0,.65,0a1,1,0,0,0,.86-.46.9.9,0,0,0,.11-.46,1,1,0,0,0-.08-.4,1,1,0,0,0-1-.45c-.32,0-.4,0-.57,0v1.77Zm0,2.2-.75.06c0-.45,0-.76,0-1.51,0-1,0-2-.06-3l.74,0,.42,0a3.44,3.44,0,0,1,1.06.1,1.26,1.26,0,0,1,.9,1.27,1.35,1.35,0,0,1-.19.71,2,2,0,0,1-1.86.76h-.29C81.53,40.85,81.53,41.06,81.57,41.84ZM71,39.43a2,2,0,0,0,1.33-.25.68.68,0,0,0,.24-.54.84.84,0,0,0-.12-.44c-.2-.32-.55-.34-1-.34H71C70.94,38.61,70.94,38.72,71,39.43ZM71,41.84l-.75.06c0-.66,0-1.29,0-1.92,0-1.44,0-1.94-.06-2.59l.19,0h1a3,3,0,0,1,1,.11,1.09,1.09,0,0,1,.81,1.13,1.27,1.27,0,0,1-1.1,1.26l.73,1c.2.28.29.41.69.94a1.36,1.36,0,0,1-.42.07l-.4,0-.13-.16c-.18-.33-.4-.64-.61-.95-.38-.59-.42-.65-.58-.86H71C71,40.31,71,41.3,71,41.84Zm-10.24-.4c.95,0,1.32-.86,1.32-1.84a2.68,2.68,0,0,0-.28-1.26,1.14,1.14,0,0,0-1-.55,1.18,1.18,0,0,0-1,.54,2.65,2.65,0,0,0-.28,1.27,2.69,2.69,0,0,0,.26,1.24A1.18,1.18,0,0,0,60.77,41.44Zm0,.54a2,2,0,0,1-2.08-2.33c0-1.44.77-2.4,2.1-2.4s2.07.9,2.07,2.39S62,42,60.76,42Zm-9-1a3.6,3.6,0,0,1,0,.66,2.24,2.24,0,0,1-1.25.33,2.13,2.13,0,0,1-2.24-2.36,2.51,2.51,0,0,1,.59-1.71,2.2,2.2,0,0,1,1.69-.66,3.11,3.11,0,0,1,1.18.21c0,.28,0,.34,0,.62a2.66,2.66,0,0,0-1.08-.26c-1,0-1.59.7-1.59,1.78s.67,1.78,1.55,1.78A1.94,1.94,0,0,0,51.73,41Z"/></svg>