<svg xmlns="http://www.w3.org/2000/svg" viewBox="0 0 30.89 22.79"><title>icon_026</title><path d="M29.82,18.21c0-.45-.5-.57-.86-.57H11.36a3.73,3.73,0,0,0-2.54,1.2L4.06,24.71a1.13,1.13,0,0,0-.29.65c0,.45.5.57.86.57H22.23a3.68,3.68,0,0,0,2.54-1.21l4.76-5.87A1,1,0,0,0,29.82,18.21ZM11.36,15.57H23.79V13a1.55,1.55,0,0,0-1.55-1.55H12.91a1.55,1.55,0,0,1-1.55-1.55v-1A1.55,1.55,0,0,0,9.8,7.29H4.63A1.55,1.55,0,0,0,3.07,8.84v13.8l4.14-5.1A5.78,5.78,0,0,1,11.36,15.57Zm20.54,2.64a3.18,3.18,0,0,1-.74,1.94L26.38,26a5.84,5.84,0,0,1-4.14,2H4.63A3.64,3.64,0,0,1,1,24.37V8.84A3.64,3.64,0,0,1,4.63,5.21H9.8a3.64,3.64,0,0,1,3.63,3.63v.52h8.8A3.64,3.64,0,0,1,25.86,13v2.59H29a2.88,2.88,0,0,1,2.69,1.54A2.54,2.54,0,0,1,31.89,18.21Z" transform="translate(-1 -5.21)"/></svg>