<svg xmlns="http://www.w3.org/2000/svg" viewBox="0 0 30 28.07"><title>icon_028</title><path d="M29.13,6.47A1.9,1.9,0,0,1,31,8.35V28a1.9,1.9,0,0,1-1.87,1.88H2.88a1.8,1.8,0,0,1-1.32-.56A1.8,1.8,0,0,1,1,28V8.35A1.8,1.8,0,0,1,1.56,7a1.8,1.8,0,0,1,1.32-.56h7.5V4.65a2.73,2.73,0,0,1,.82-2,2.69,2.69,0,0,1,2-.83h5.63a2.69,2.69,0,0,1,2,.83,2.73,2.73,0,0,1,.82,2V6.47ZM12.25,4.65V6.47h7.5V4.65A.93.93,0,0,0,19.49,4a.89.89,0,0,0-.67-.28H13.19a1,1,0,0,0-.94.94ZM2.88,8.35v6.59H13.19V14a1.83,1.83,0,0,1,.54-1.32,1.79,1.79,0,0,1,1.33-.56h1.88A1.9,1.9,0,0,1,18.81,14v1H29.13V8.35ZM16.94,18.69V14H15.06v4.72ZM2.88,28H29.13V16.81H18.81v1.88A1.79,1.79,0,0,1,18.26,20a1.83,1.83,0,0,1-1.32.54H15.06a1.85,1.85,0,0,1-1.87-1.87V16.81H2.88Z" transform="translate(-1 -1.84)"/></svg>