<?xml version="1.0" encoding="UTF-8" standalone="no"?>
<svg width="64px" height="55px" viewBox="0 0 64 55" version="1.1" xmlns="http://www.w3.org/2000/svg" xmlns:xlink="http://www.w3.org/1999/xlink">
    <!-- Generator: Sketch 3.6.1 (26313) - http://www.bohemiancoding.com/sketch -->
    <title>calendar</title>
    <desc>Created with Sketch.</desc>
    <defs></defs>
    <g id="Page-1" stroke="none" stroke-width="1"  fill-rule="evenodd">
        <path d="M50.0004,0.0006 L50.0004,6.0006 L46.0004,6.0006 L46.0004,0.0006 L41.9984,0.0006 L41.9984,6.0006 L20.0004,6.0006 L20.0004,0.0006 L16.0004,0.0006 L16.0004,6.0006 L12.0004,6.0006 L12.0004,0.0006 L7.9984,0.0006 L7.9984,6.0006 L0.0004,6.0006 L0.0004,54.0006 L64.0004,54.0006 L64.0004,6.0006 L54.0004,6.0006 L54.0004,0.0006 L50.0004,0.0006 Z M54.0004,11.9986 L54.0004,9.9986 L59.9984,9.9986 L59.9984,18.0006 L4.0004,18.0006 L4.0004,9.9986 L7.9984,9.9986 L7.9984,11.9986 L12.0004,11.9986 L12.0004,9.9986 L16.0004,9.9986 L16.0004,11.9986 L20.0004,11.9986 L20.0004,9.9986 L41.9984,9.9986 L41.9984,11.9986 L46.0004,11.9986 L46.0004,9.9986 L50.0004,9.9986 L50.0004,11.9986 L54.0004,11.9986 Z M4.0004,49.9986 L60.0004,49.9986 L60.0004,22.0006 L4.0004,22.0006 L4.0004,49.9986 Z M16,32 L48,32 L48,28 L16,28 L16,32 Z M16,42 L48,42 L48,38 L16,38 L16,42 Z" id="calendar" ></path>
    </g>
</svg>