<?xml version="1.0" encoding="UTF-8" standalone="no"?>
<svg width="64px" height="54px" viewBox="0 0 64 54" version="1.1" xmlns="http://www.w3.org/2000/svg" xmlns:xlink="http://www.w3.org/1999/xlink">
    <!-- Generator: Sketch 3.6.1 (26313) - http://www.bohemiancoding.com/sketch -->
    <title>chat</title>
    <desc>Created with Sketch.</desc>
    <defs></defs>
    <g id="Page-1" stroke="none" stroke-width="1"  fill-rule="evenodd">
        <path d="M0,0 L0,36 L20,36 L20,54 L30,42 L38,42 L50,54 L50,42 L64,42 L64,14 L48,14 L48,0 L0,0 Z M4,4 L44,4 L44,14 L32,14 L28,14 L28,18 L28,37 L24,42 L24,32 L4,32 L4,4 Z M32,18 L60,18 L60,38 L46,38 L46,44 L40,38 L32,38 L32,18 Z" id="chat" ></path>
    </g>
</svg>