<?xml version="1.0" encoding="UTF-8" standalone="no"?>
<svg width="64px" height="64px" viewBox="0 0 64 64" version="1.1" xmlns="http://www.w3.org/2000/svg" xmlns:xlink="http://www.w3.org/1999/xlink">
    <!-- Generator: Sketch 3.6.1 (26313) - http://www.bohemiancoding.com/sketch -->
    <title>clock</title>
    <desc>Created with Sketch.</desc>
    <defs></defs>
    <g id="Page-1" stroke="none" stroke-width="1"  fill-rule="evenodd">
        <path d="M32,59.7333333 C16.7077333,59.7333333 4.26666667,47.2922667 4.26666667,32 C4.26666667,16.7077333 16.7077333,4.26666667 32,4.26666667 C47.2922667,4.26666667 59.7333333,16.7077333 59.7333333,32 C59.7333333,47.2922667 47.2922667,59.7333333 32,59.7333333 M32,0 C14.3269333,0 0,14.3269333 0,32 C0,49.6730667 14.3269333,64 32,64 C49.6730667,64 64,49.6730667 64,32 C64,14.3269333 49.6730667,0 32,0 Z M34.1333333,14.9333333 L29.8666667,14.9333333 L29.8666667,36.2666667 L42.6666667,36.2666667 L42.6666667,32 L34.1333333,32 L34.1333333,14.9333333 Z" id="clock" ></path>
    </g>
</svg>