<?xml version="1.0" encoding="UTF-8" standalone="no"?>
<svg width="40px" height="64px" viewBox="0 0 40 64" version="1.1" xmlns="http://www.w3.org/2000/svg" xmlns:xlink="http://www.w3.org/1999/xlink">
    <!-- Generator: Sketch 3.6.1 (26313) - http://www.bohemiancoding.com/sketch -->
    <title>cohete</title>
    <desc>Created with Sketch.</desc>
    <defs></defs>
    <g id="Page-1" stroke="none" stroke-width="1"  fill-rule="evenodd">
        <path d="M26,41.8384 C26,41.8384 25.59,45.9184 20,45.9184 C14.41,45.9184 14,41.8384 14,41.8384 L4,43.8784 C4,34.3984 10,31.6364 10,31.6364 C7.74,14.5444 20,5.1104 20,5.1104 C20,5.1104 32.26,14.5444 30,31.6364 C30,31.6364 36,34.3984 36,43.8784 L26,41.8384 Z M34.214,29.6284 C35.312,12.0044 22.96,2.2764 22.408,1.8544 L20,0.000400000001 L17.592,1.8544 C17.04,2.2764 4.688,12.0044 5.786,29.6284 C2.988,32.0664 0,36.6664 0,43.8784 L0,48.8564 L4.784,47.8804 L11.788,46.4504 C13.286,48.3584 15.858,50.0004 20,50.0004 C24.142,50.0004 26.714,48.3584 28.212,46.4504 L35.216,47.8804 L40,48.8564 L40,43.8784 C40,36.6664 37.012,32.0664 34.214,29.6284 Z M18,60 L22,60 L22,52 L18,52 L18,60 Z M26,64 L30,64 L30,52 L26,52 L26,64 Z M10,64 L14,64 L14,52 L10,52 L10,64 Z M20,15.0102 C16.692,15.0102 14,17.7022 14,21.0102 C14,24.3182 16.692,27.0102 20,27.0102 C23.308,27.0102 26,24.3182 26,21.0102 C26,17.7022 23.308,15.0102 20,15.0102 Z M20,23.0102 C18.896,23.0102 18,22.1142 18,21.0102 C18,19.9062 18.896,19.0102 20,19.0102 C21.104,19.0102 22,19.9062 22,21.0102 C22,22.1142 21.104,23.0102 20,23.0102 Z" id="cohete" ></path>
    </g>
</svg>