<?xml version="1.0" encoding="UTF-8" standalone="no"?>
<svg width="64px" height="44px" viewBox="0 0 64 44" version="1.1" xmlns="http://www.w3.org/2000/svg" xmlns:xlink="http://www.w3.org/1999/xlink">
    <!-- Generator: Sketch 3.6.1 (26313) - http://www.bohemiancoding.com/sketch -->
    <title>comillas</title>
    <desc>Created with Sketch.</desc>
    <defs></defs>
    <g id="Page-1" stroke="none" stroke-width="1"  fill-rule="evenodd">
        <path d="M64,32.1894737 C64,29.8736726 63.1884139,27.6736946 61.5652174,25.5894737 C59.9420209,23.5052527 57.5845565,22.4631579 54.4927536,22.4631579 C53.2560325,22.4631579 51.9806829,22.6561384 50.6666667,23.0421053 C49.3526504,23.4280721 48.000007,24.1613981 46.6086957,25.2421053 C45.6811548,23.8526246 45.2173913,21.6140505 45.2173913,18.5263158 C45.2173913,13.5859402 46.6086817,9.91931021 49.3913043,7.52631579 C52.173927,5.13332137 56.2705043,3.39649663 61.6811594,2.31578947 L61.6811594,0 C57.9709959,0 54.376829,0.578941579 50.8985507,1.73684211 C47.4202725,2.89474263 44.4058099,4.59297126 41.8550725,6.83157895 C39.3043351,9.07018663 37.2560464,11.7333179 35.7101449,14.8210526 C34.1642435,17.9087874 33.3913043,21.3824368 33.3913043,25.2421053 C33.3913043,30.3368676 34.9371826,34.7368236 38.0289855,38.4421053 C41.1207884,42.1473869 45.2946597,44 50.5507246,44 C54.106298,44 57.2367014,42.9965013 59.942029,40.9894737 C62.6473565,38.9824461 64,36.0491421 64,32.1894737 Z M30.6086957,32.1894737 C30.6086957,29.8736726 29.7971096,27.6736946 28.173913,25.5894737 C26.5507165,23.5052527 24.1932522,22.4631579 21.1014493,22.4631579 C19.8647281,22.4631579 18.5893786,22.6561384 17.2753623,23.0421053 C15.9613461,23.4280721 14.6087026,24.1613981 13.2173913,25.2421053 C12.2898504,23.8526246 11.826087,21.6140505 11.826087,18.5263158 C11.826087,13.5859402 13.2173774,9.91931021 16,7.52631579 C18.7826226,5.13332137 22.8792,3.39649663 28.2898551,2.31578947 L28.2898551,0 C24.5796916,0 20.9855246,0.578941579 17.5072464,1.73684211 C14.0289681,2.89474263 11.0145055,4.59297126 8.46376812,6.83157895 C5.91303072,9.07018663 3.86474203,11.7333179 2.31884058,14.8210526 C0.77293913,17.9087874 0,21.3824368 0,25.2421053 C0,30.3368676 1.54587826,34.7368236 4.63768116,38.4421053 C7.72948406,42.1473869 11.9033554,44 17.1594203,44 C20.7149936,44 23.8453971,42.9965013 26.5507246,40.9894737 C29.2560522,38.9824461 30.6086957,36.0491421 30.6086957,32.1894737 Z" id="comillas" ></path>
    </g>
</svg>