<?xml version="1.0" encoding="UTF-8" standalone="no"?>
<svg width="39px" height="64px" viewBox="0 0 39 64" version="1.1" xmlns="http://www.w3.org/2000/svg" xmlns:xlink="http://www.w3.org/1999/xlink">
    <!-- Generator: Sketch 3.6.1 (26313) - http://www.bohemiancoding.com/sketch -->
    <title>doc</title>
    <desc>Created with Sketch.</desc>
    <defs></defs>
    <g id="Page-1" stroke="none" stroke-width="1"  fill-rule="evenodd">
        <path d="M34.125,19.6923077 L34.125,44.3076923 C34.125,52.4504615 27.56325,59.0769231 19.5,59.0769231 C11.43675,59.0769231 4.875,52.4504615 4.875,44.3076923 L4.875,14.7692308 C4.875,9.33907692 9.247875,4.92307692 14.625,4.92307692 C20.002125,4.92307692 24.375,9.33907692 24.375,14.7692308 L24.375,36.9230769 C24.375,39.6381538 22.1885625,41.8461538 19.5,41.8461538 C16.8114375,41.8461538 14.625,39.6381538 14.625,36.9230769 L14.625,17.2307692 L9.75,17.2307692 L9.75,36.9230769 C9.75,42.3606154 14.1155625,46.7692308 19.5,46.7692308 C24.8844375,46.7692308 29.25,42.3606154 29.25,36.9230769 L29.25,14.7692308 C29.25,6.61169231 22.702875,0 14.625,0 C6.547125,0 0,6.61169231 0,14.7692308 L0,44.3076923 C0,55.1827692 8.731125,64 19.5,64 C30.268875,64 39,55.1827692 39,44.3076923 L39,19.6923077 L34.125,19.6923077 Z" id="doc" ></path>
    </g>
</svg>