<?xml version="1.0" encoding="UTF-8" standalone="no"?>
<svg width="64px" height="64px" viewBox="0 0 64 64" version="1.1" xmlns="http://www.w3.org/2000/svg" xmlns:xlink="http://www.w3.org/1999/xlink">
    <!-- Generator: Sketch 3.6.1 (26313) - http://www.bohemiancoding.com/sketch -->
    <title>error</title>
    <desc>Created with Sketch.</desc>
    <defs></defs>
    <g id="Page-1" stroke="none" stroke-width="1"  fill-rule="evenodd">
        <path d="M9.14285714,32 C9.14285714,27.3508571 10.5554286,23.0308571 12.9508571,19.4148571 L44.5851429,51.0491429 C40.9691429,53.4445714 36.6491429,54.8571429 32,54.8571429 C19.3965714,54.8571429 9.14285714,44.6034286 9.14285714,32 M54.8571429,32 C54.8571429,36.6491429 53.4445714,40.9691429 51.0491429,44.5851429 L19.4148571,12.9508571 C23.0308571,10.5554286 27.3508571,9.14285714 32,9.14285714 C44.6034286,9.14285714 54.8571429,19.3965714 54.8571429,32 M32,0 C14.3268571,0 0,14.3268571 0,32 C0,49.6731429 14.3268571,64 32,64 C49.6731429,64 64,49.6731429 64,32 C64,14.3268571 49.6731429,0 32,0" id="error" ></path>
    </g>
</svg>