<?xml version="1.0" encoding="UTF-8" standalone="no"?>
<svg width="30px" height="20px" viewBox="0 0 30 20" version="1.1" xmlns="http://www.w3.org/2000/svg" xmlns:xlink="http://www.w3.org/1999/xlink">
    <!-- Generator: Sketch 3.7.2 (28276) - http://www.bohemiancoding.com/sketch -->
    <title>icon_eye</title>
    <desc>Created with Sketch.</desc>
    <defs></defs>
    <g id="Page-1" stroke="none" stroke-width="1" fill="none" fill-rule="evenodd">
        <g id="01escritorio_03academy_04articulo" transform="translate(-589.000000, -629.000000)" fill="#CCCCCC">
            <g id="paño1" transform="translate(0.000000, 150.000000)">
                <g id="principal" transform="translate(0.000000, 180.000000)">
                    <g id="visualizaciones" transform="translate(588.000000, 293.000000)">
                        <g id="icon_eye">
                            <path d="M16,24 C10.42,24 5.414,18.433 3.493,16 C5.415,13.566 10.42,8 16,8 C21.58,8 26.586,13.567 28.507,16 C26.585,18.434 21.58,24 16,24 M16,6 C7.716,6 1,16 1,16 C1,16 7.716,26 16,26 C24.284,26 31,16 31,16 C31,16 24.284,6 16,6 Z M16,12 C13.794,12 12,13.794 12,16 C12,18.206 13.794,20 16,20 C18.206,20 20,18.206 20,16 C20,13.794 18.206,12 16,12 Z M16,18 C14.895,18 14,17.105 14,16 C14,14.895 14.895,14 16,14 C17.105,14 18,14.895 18,16 C18,17.105 17.105,18 16,18 Z" id="Fill-2"></path>
                        </g>
                    </g>
                </g>
            </g>
        </g>
    </g>
</svg>