<?xml version="1.0" encoding="UTF-8" standalone="no"?>
<svg width="64px" height="64px" viewBox="0 0 64 64" version="1.1" xmlns="http://www.w3.org/2000/svg" xmlns:xlink="http://www.w3.org/1999/xlink">
    <!-- Generator: Sketch 3.6.1 (26313) - http://www.bohemiancoding.com/sketch -->
    <title>facebook</title>
    <desc>Created with Sketch.</desc>
    <defs></defs>
    <g id="Page-1" stroke="none" stroke-width="1"  fill-rule="evenodd">
        <path d="M63.2888889,59.8353579 C63.2888889,61.7428116 61.7428116,63.2888889 59.8353579,63.2888889 L43.8887721,63.2888889 L43.8887721,39.0545105 L52.0231502,39.0545105 L53.2419432,29.6109952 L43.8887721,29.6109952 L43.8887721,23.581805 C43.8887721,20.8476176 44.6490262,18.982779 48.5696192,18.982779 L53.5709321,18.9810744 L53.5709321,10.5347534 C52.7049924,10.4188403 49.737274,10.1614448 46.283743,10.1614448 C39.0732611,10.1614448 34.1367232,14.5627366 34.1367232,22.6459765 L34.1367232,29.6109952 L25.9818898,29.6109952 L25.9818898,39.0545105 L34.1367232,39.0545105 L34.1367232,63.2888889 L4.16464214,63.2888889 C2.25718843,63.2888889 0.711111111,61.7428116 0.711111111,59.8353579 L0.711111111,4.16464214 C0.711111111,2.25718843 2.25718843,0.711111111 4.16464214,0.711111111 L59.8353579,0.711111111 C61.7428116,0.711111111 63.2888889,2.25718843 63.2888889,4.16464214 L63.2888889,59.8353579" id="facebook" ></path>
    </g>
</svg>