<?xml version="1.0" encoding="UTF-8" standalone="no"?>
<svg width="64px" height="64px" viewBox="0 0 64 64" version="1.1" xmlns="http://www.w3.org/2000/svg" xmlns:xlink="http://www.w3.org/1999/xlink">
    <!-- Generator: Sketch 3.6.1 (26313) - http://www.bohemiancoding.com/sketch -->
    <title>five</title>
    <desc>Created with Sketch.</desc>
    <defs></defs>
    <g id="Page-1" stroke="none" stroke-width="1"  fill-rule="evenodd">
        <path d="M32,59.7333333 C16.7082667,59.7333333 4.26666667,47.2917333 4.26666667,32 C4.26666667,16.7082667 16.7082667,4.26666667 32,4.26666667 C47.2917333,4.26666667 59.7333333,16.7082667 59.7333333,32 C59.7333333,47.2917333 47.2917333,59.7333333 32,59.7333333 M32,0 C14.3274667,0 0,14.3274667 0,32 C0,49.6725333 14.3274667,64 32,64 C49.6725333,64 64,49.6725333 64,32 C64,14.3274667 49.6725333,0 32,0 Z M28.7413161,36.2485876 C28.7781375,37.052107 29.0174735,37.6497156 29.4593312,38.0414313 C29.9011888,38.433147 30.4535026,38.6290019 31.1162891,38.6290019 C31.7974863,38.6290019 32.2991713,38.4783443 32.6213592,38.1770245 C32.9435471,37.8757047 33.1782805,37.5743895 33.3255663,37.2730697 C33.491263,36.911486 33.6017257,36.524798 33.6569579,36.1129944 C33.7121901,35.7011907 33.7398058,35.3546781 33.7398058,35.0734463 C33.7398058,34.6515986 33.6983823,34.2448231 33.615534,33.8531073 C33.5326857,33.4613916 33.3946072,33.1148791 33.2012945,32.8135593 C33.0079818,32.5122395 32.7502353,32.2711873 32.4280475,32.0903955 C32.1058596,31.9096036 31.7146373,31.819209 31.2543689,31.819209 C30.5915824,31.819209 30.0806922,32.010042 29.7216828,32.3917137 C29.3626735,32.7733855 29.1463506,33.1952268 29.0727077,33.6572505 L23.7704423,33.5969868 L24.1570658,21.3333333 L37.9650485,21.3333333 L37.9650485,25.4312618 L28.9622438,25.4312618 L28.6308522,30.5536723 C28.7781381,30.2724405 28.9898584,29.9560595 29.2660194,29.6045198 C29.5421805,29.25298 29.9932367,28.9165113 30.6192017,28.5951036 C31.0242379,28.3741357 31.4384733,28.2134343 31.8619202,28.1129944 C32.2853671,28.0125544 32.7272181,27.9623352 33.1874865,27.9623352 C33.8686837,27.9623352 34.5636786,28.0828613 35.2724919,28.3239171 C35.9813052,28.564973 36.6210687,28.9617047 37.1918015,29.5141243 C37.7625343,30.0665439 38.2273984,30.7796566 38.5864078,31.653484 C38.9454171,32.5273113 39.1249191,33.5969805 39.1249191,34.8625235 C39.1249191,35.1839313 39.101906,35.5806631 39.0558792,36.0527307 C39.0098523,36.5247983 38.9131974,37.0269904 38.7659115,37.559322 C38.6186257,38.0916536 38.4069054,38.6289992 38.1307443,39.1713748 C37.8545833,39.7137504 37.4863741,40.2159424 37.0261057,40.6779661 C36.6026588,41.0998138 36.1516025,41.4413044 35.6729234,41.7024482 C35.1942443,41.963592 34.7063671,42.1644689 34.2092772,42.3050847 C33.7121874,42.4457006 33.2197076,42.5411171 32.7318231,42.5913371 C32.2439386,42.6415571 31.7974849,42.6666667 31.3924488,42.6666667 C31.0058233,42.6666667 30.5271514,42.6415571 29.9564186,42.5913371 C29.3856857,42.5411171 28.796551,42.4306349 28.1889968,42.259887 C27.5814425,42.0891391 26.9831026,41.8480869 26.393959,41.5367232 C25.8048155,41.2253594 25.2893226,40.80854 24.8474649,40.2862524 C24.5160717,39.9246686 24.2583253,39.5530465 24.0742179,39.1713748 C23.8901106,38.7897031 23.7520321,38.4180809 23.6599784,38.0564972 C23.5679247,37.6949134 23.5126934,37.3584447 23.4942826,37.047081 C23.4758719,36.7357172 23.4666667,36.4695554 23.4666667,36.2485876 L28.7413161,36.2485876 Z" id="five" ></path>
    </g>
</svg>