<?xml version="1.0" encoding="UTF-8" standalone="no"?>
<svg width="64px" height="64px" viewBox="0 0 64 64" version="1.1" xmlns="http://www.w3.org/2000/svg" xmlns:xlink="http://www.w3.org/1999/xlink">
    <!-- Generator: Sketch 3.6.1 (26313) - http://www.bohemiancoding.com/sketch -->
    <title>four</title>
    <desc>Created with Sketch.</desc>
    <defs></defs>
    <g id="Page-1" stroke="none" stroke-width="1"  fill-rule="evenodd">
        <path d="M32,59.7333333 C16.7082667,59.7333333 4.26666667,47.2917333 4.26666667,32 C4.26666667,16.7082667 16.7082667,4.26666667 32,4.26666667 C47.2917333,4.26666667 59.7333333,16.7082667 59.7333333,32 C59.7333333,47.2917333 47.2917333,59.7333333 32,59.7333333 M32,0 C14.3274667,0 0,14.3274667 0,32 C0,49.6725333 14.3274667,64 32,64 C49.6725333,64 64,49.6725333 64,32 C64,14.3274667 49.6725333,0 32,0 Z M32.5852206,42.6666667 L37.4847422,42.6666667 L37.4847422,38.4428503 L40.5333333,38.4428503 L40.5333333,34.555715 L37.4847422,34.555715 L37.4847422,21.3333333 L31.4419989,21.3333333 L23.4666667,33.4538498 L23.4666667,38.4428503 L32.5852206,38.4428503 L32.5852206,42.6666667 Z M26.9779904,34.555715 L32.6668793,25.832616 L32.6668793,34.555715 L26.9779904,34.555715 Z" id="four" ></path>
    </g>
</svg>