<svg xmlns="http://www.w3.org/2000/svg" viewBox="0 0 29.16 26.94"><title>icon_029</title><path d="M19,16V14H16.92a7,7,0,0,0-1.32-3.19l1.47-1.47L15.66,7.93,14.19,9.4A7,7,0,0,0,11,8.08V6H9V8.08A7,7,0,0,0,5.81,9.4L4.24,7.83,2.83,9.24,4.4,10.81A7,7,0,0,0,3.08,14H1v2H3.08a7,7,0,0,0,1.63,3.58L2.93,21.36l1.41,1.41,1.89-1.89a7,7,0,0,0,2.77,1V24h2V21.92a7,7,0,0,0,3.19-1.32l1.47,1.47,1.41-1.41L15.6,19.19A7,7,0,0,0,16.92,16Zm-9-6a5,5,0,1,1-5,5A5,5,0,0,1,10,10Z" transform="translate(-1 -2.67)"/><path d="M28.29,24.18V22.82h-1.1a5,5,0,0,0-1-2.38l.78-.78-1-1-.78.78a5,5,0,0,0-2.38-1v-1.1H21.5v1.1a5,5,0,0,0-2.38,1l-.85-.85-1,1,.85.85a5,5,0,0,0-1,2.38h-1.1v1.36h1.1a5,5,0,0,0,1.2,2.64l-1,1,1,1,1-1a5,5,0,0,0,2.11.77v1.1h1.36V28.5a5,5,0,0,0,2.38-1l.78.78,1-1-.78-.78a5,5,0,0,0,1-2.38Zm-6.11,2.39a3.07,3.07,0,1,1,3.07-3.07A3.07,3.07,0,0,1,22.18,26.57Z" transform="translate(-1 -2.67)"/><path d="M29.1,8.2l1.06-.28L29.81,6.6l-1.06.28a5,5,0,0,0-1.57-2l.55-1-1.18-.68-.55,1a5,5,0,0,0-2.55-.34l-.31-1.16L21.83,3l.31,1.16a5,5,0,0,0-2,1.57l-1-.55-.68,1.18,1,.55a5,5,0,0,0-.28,2.89l-1.36.36.35,1.31,1.43-.38A5,5,0,0,0,21,12.83l-.55,1,1.18.68.55-1a5,5,0,0,0,2.55.34L25,14.91l1.31-.35L26,13.5a5,5,0,0,0,2-1.57l1,.55.68-1.18-1-.55A5,5,0,0,0,29.1,8.2Zm-2.35,2.18a3.07,3.07,0,1,1-1.12-4.2A3.07,3.07,0,0,1,26.75,10.38Z" transform="translate(-1 -2.67)"/></svg>