<?xml version="1.0" encoding="UTF-8" standalone="no"?>
<svg width="24px" height="16px" viewBox="0 0 24 16" version="1.1" xmlns="http://www.w3.org/2000/svg" xmlns:xlink="http://www.w3.org/1999/xlink">
    <!-- Generator: Sketch 3.6.1 (26313) - http://www.bohemiancoding.com/sketch -->
    <title>icon_facebook</title>
    <desc>Created with Sketch.</desc>
    <defs></defs>
    <g id="Page-1" stroke="none" stroke-width="1"  fill-rule="evenodd">
        <g id="01escritorio_03academy_08valoracion02" transform="translate(-990.000000, -1400.000000)" >
            <g id="cuerpo-articulo" transform="translate(308.000000, 654.000000)">
                <g id="cierre" transform="translate(0.000000, 722.000000)">
                    <g id="rrss" transform="translate(459.000000, 19.000000)">
                        <g id="Group" transform="translate(135.000000, 0.000000)">
                            <g id="icon_facebook" transform="translate(88.000000, 0.000000)">
                                <path d="M7.62292766,11.1241543 L7.62292766,14.1484648 C7.62292766,14.1484648 10.5514832,14.1443015 11.7439596,14.1443015 C11.0980596,16.1051966 10.0941194,17.1727753 7.62292766,17.1727753 C5.12199836,17.1727753 3.17002453,15.1416995 3.17002453,12.6360122 C3.17002453,10.1309196 5.12199836,8.09984388 7.62292766,8.09984388 C8.94505985,8.09984388 9.79912274,8.56553416 10.5824102,9.21440785 C11.2092781,8.58635046 11.15694,8.49654301 12.752063,6.98765891 C11.3978143,5.75295517 9.5980968,5 7.62292766,5 C3.41327782,5 0,8.41863059 0,12.6360122 C0,16.8533938 3.41327782,20.2726191 7.62292766,20.2726191 C13.9153966,20.2726191 15.4534235,14.7836592 14.9437217,11.1241543 L7.62292766,11.1241543 Z M21.3587094,11.2752212 L21.3587094,8.62917255 L19.4721582,8.62917255 L19.4721582,11.2752212 L16.7547394,11.2752212 L16.7547394,13.1653409 L19.4721582,13.1653409 L19.4721582,15.8875177 L21.3587094,15.8875177 L21.3587094,13.1653409 L24,13.1653409 L24,11.2752212 L21.3587094,11.2752212 Z" id="Google+"></path>
                            </g>
                        </g>
                    </g>
                </g>
            </g>
        </g>
    </g>
</svg>