<svg xmlns="http://www.w3.org/2000/svg" viewBox="0 0 32 29.53"><title>icon_005</title><path d="M2,21H30V4H2ZM0,4A2,2,0,0,1,2,2H30a2,2,0,0,1,2,2V21a2,2,0,0,1-2,2H2a2,2,0,0,1-2-2Z" transform="translate(0 -2)"/><path d="M25.56,26H26V24H6v2h.27L5.12,30.27a1,1,0,0,0,1.93.52L8.34,26H15v2a1,1,0,0,0,2,0V26h6.49l1.28,4.79a1,1,0,0,0,1.93-.52Z" transform="translate(0 -2)"/><rect x="9" y="11" width="2" height="6"/><rect x="13" y="5" width="2" height="12"/><rect x="17" y="9" width="2" height="8"/><rect x="21" y="7" width="2" height="10"/></svg>