<?xml version="1.0" encoding="UTF-8" standalone="no"?>
<svg width="32px" height="32px" viewBox="0 0 32 32" version="1.1" xmlns="http://www.w3.org/2000/svg" xmlns:xlink="http://www.w3.org/1999/xlink">
    <!-- Generator: Sketch 42 (36781) - http://www.bohemiancoding.com/sketch -->
    <title>icon_010</title>
    <desc>Created with Sketch.</desc>
    <defs></defs>
    <g id="Page-1" stroke="none" stroke-width="1" fill="none" fill-rule="evenodd">
        <g id="icon_010">
            <rect id="container" x="0" y="0" width="32" height="32"></rect>
            <polygon id="Line" fill="#000000" fill-rule="nonzero" points="1 4 1 27 3 27 3 4"></polygon>
            <polygon id="Line" fill="#000000" fill-rule="nonzero" points="1 27 31 27 31 25 1 25"></polygon>
            <g id="Group" transform="translate(6.000000, 15.000000)" fill="#000000">
                <rect id="Rectangle-10" x="2" y="4" width="2" height="4"></rect>
                <polygon id="Page-1" transform="translate(3.000000, 2.000000) rotate(-90.000000) translate(-3.000000, -2.000000) " points="1 -1 1 5 5 2.00075"></polygon>
            </g>
            <g id="Group-Copy" transform="translate(15.000000, 11.000000)" fill="#000000">
                <rect id="Rectangle-10" x="2" y="4" width="2" height="8"></rect>
                <polygon id="Page-1" transform="translate(3.000000, 2.000000) rotate(-90.000000) translate(-3.000000, -2.000000) " points="1 -1 1 5 5 2.00075"></polygon>
            </g>
            <g id="Group-Copy-2" transform="translate(24.000000, 7.000000)" fill="#000000">
                <rect id="Rectangle-10" x="2" y="4" width="2" height="12"></rect>
                <polygon id="Page-1" transform="translate(3.000000, 2.000000) rotate(-90.000000) translate(-3.000000, -2.000000) " points="1 -1 1 5 5 2.00075"></polygon>
            </g>
        </g>
    </g>
</svg>