<svg xmlns="http://www.w3.org/2000/svg" viewBox="0 0 29.06 27.98"><title>icon_019</title><path d="M16.65,2.49V15.41H29.56A12.92,12.92,0,0,0,16.65,2.49Zm2,2.18a10.93,10.93,0,0,1,8.73,8.73H18.65Z" transform="translate(-1.58 -2.49)"/><path d="M30.5,19.34a12.94,12.94,0,0,0,.14-1.78h-13l.59.59h0l8.58,8.59a12.86,12.86,0,0,0,3.67-7.2v0Zm-3.81,4.45-4.23-4.23h6A10.85,10.85,0,0,1,26.69,23.79Z" transform="translate(-1.58 -2.49)"/><path d="M14.49,4.65a12.92,12.92,0,1,0,9.18,22l-9.18-9.18Zm6.23,21.88A10.92,10.92,0,1,1,12.49,6.83V18.29Z" transform="translate(-1.58 -2.49)"/></svg>