<svg xmlns="http://www.w3.org/2000/svg" viewBox="0 0 32 21"><title>icon_022</title><path d="M25.5,17A3.5,3.5,0,1,1,29,13.5,3.5,3.5,0,0,1,25.5,17Zm0-2A1.5,1.5,0,1,0,24,13.5,1.5,1.5,0,0,0,25.5,15Z" transform="translate(0 -5)"/><path d="M6.5,17A3.5,3.5,0,1,1,10,13.5,3.5,3.5,0,0,1,6.5,17Zm0-2A1.5,1.5,0,1,0,5,13.5,1.5,1.5,0,0,0,6.5,15Z" transform="translate(0 -5)"/><path d="M16,15a5,5,0,1,1,5-5A5,5,0,0,1,16,15Zm0-2a3,3,0,1,0-3-3A3,3,0,0,0,16,13Z" transform="translate(0 -5)"/><path d="M28,18h-4.6a5.51,5.51,0,0,0-4.9-3h-5a5.5,5.5,0,0,0-4.9,3H4a4,4,0,0,0-4,4v4H32V22A4,4,0,0,0,28,18ZM2,24V22a2,2,0,0,1,2-2H8c0,.16,0,.33,0,.5V24Zm8,0V20.5A3.5,3.5,0,0,1,13.51,17h5A3.51,3.51,0,0,1,22,20.5V24Zm20,0H24V20.5c0-.17,0-.34,0-.5h4a2,2,0,0,1,2,2Z" transform="translate(0 -5)"/></svg>