<svg xmlns="http://www.w3.org/2000/svg" viewBox="0 0 30 32.05"><title>icon_020</title><rect x="27" y="14" width="3" height="2"/><rect x="4.65" y="3.15" width="2" height="3" transform="translate(-2.63 5.35) rotate(-45)"/><rect x="24.85" y="3.65" width="3" height="2" transform="translate(3.43 20) rotate(-45)"/><rect x="14" width="2" height="3"/><rect y="14" width="3" height="2"/><path d="M12,27a1,1,0,0,1,1-1h6a1,1,0,0,1,0,2H13A1,1,0,0,1,12,27Z" transform="translate(-1)"/><path d="M25,15a9,9,0,1,0-13,8.05V24a1,1,0,0,0,1,1h6a1,1,0,0,0,1-1v-.95A9,9,0,0,0,25,15ZM14.8,16.34c0-.12-.09-.22-.13-.34h2.38c0,.11-.09.21-.13.34A18.89,18.89,0,0,0,16,22H15.7A18.87,18.87,0,0,0,14.8,16.34ZM18,21.7A16.45,16.45,0,0,1,18.8,17a5.6,5.6,0,0,1,.49-1.06A1,1,0,0,0,19,14H13a1,1,0,0,0-1,1,1,1,0,0,0,.31.72l0,0,.12.18a5.58,5.58,0,0,1,.5,1.08,16.3,16.3,0,0,1,.77,4.6,7,7,0,1,1,4.35.1Z" transform="translate(-1)"/><path d="M19,29H13a1,1,0,0,0,0,2h.73a3,3,0,0,0,4.52,0H19a1,1,0,0,0,0-2Z" transform="translate(-1)"/></svg>