<?xml version="1.0" encoding="UTF-8" standalone="no"?>
<svg width="64px" height="58px" viewBox="0 0 64 58" version="1.1" xmlns="http://www.w3.org/2000/svg" xmlns:xlink="http://www.w3.org/1999/xlink">
    <!-- Generator: Sketch 3.6.1 (26313) - http://www.bohemiancoding.com/sketch -->
    <title>linkedin</title>
    <desc>Created with Sketch.</desc>
    <defs></defs>
    <g id="Page-1" stroke="none" stroke-width="1"  fill-rule="evenodd">
        <path d="M2.28867221,18.7284481 L14.4850855,18.7284481 L14.4850855,57.6419753 L2.28867221,57.6419753 L2.28867221,18.7284481 Z M47.8089434,18.3543781 C40.8218743,18.3543781 36.4437182,22.1651093 35.634582,24.8348417 L35.634582,18.7284481 L21.9335487,18.7284481 C22.1099641,21.970388 21.9335487,57.6419753 21.9335487,57.6419753 L35.634582,57.6419753 L35.634582,36.5847387 C35.634582,35.4129944 35.5803004,34.2429581 35.9331312,33.4042898 C36.874579,31.0642173 38.8982676,28.6353245 42.5368359,28.6353245 C47.2949638,28.6353245 49.4577492,32.2342535 49.4577492,37.5036869 L49.4577492,57.6419753 L63.2877015,57.6419753 L63.2877015,36.0039908 C63.2877015,23.9517632 56.4770479,18.3543781 47.8089434,18.3543781 Z M8.16127064,0.358024691 C3.65758814,0.358024691 0.711111111,3.27030473 0.711111111,7.11519762 C0.711111111,10.886643 3.57446933,13.860414 7.98824781,13.860414 L8.07645552,13.860414 C12.6615605,13.860414 15.5164372,10.8746864 15.5164372,7.10494913 C15.4282295,3.26347241 12.6615605,0.358024691 8.16127064,0.358024691 Z" id="linkedin" ></path>
    </g>
</svg>