<?xml version="1.0" encoding="UTF-8"?>
<svg width="29px" height="41px" viewBox="0 0 29 41" version="1.1" xmlns="http://www.w3.org/2000/svg" xmlns:xlink="http://www.w3.org/1999/xlink">
    <!-- Generator: Sketch 43 (38999) - http://www.bohemiancoding.com/sketch -->
    <title>Shape</title>
    <desc>Created with Sketch.</desc>
    <defs></defs>
    <g id="Page-1" stroke="none" stroke-width="1" fill="none" fill-rule="evenodd">
        <g id="01NO_tengo_webcam" transform="translate(-667.000000, -800.000000)" fill="#E3E3E3">
            <path d="M696,830.288492 L691.705707,826.599643 L691.705707,803.302406 C691.705707,801.478025 690.229869,800 688.409976,800 L674.937003,800 C673.11711,800 671.641672,801.478426 671.641672,803.302406 L671.641672,809.365236 L669.430115,807.46549 L667.346979,809.900404 L671.641672,813.589253 L671.641672,836.785068 C671.641672,838.608647 673.11711,840.087073 674.937003,840.087073 L688.409576,840.087073 C690.229469,840.087073 691.705307,838.608647 691.705307,836.785068 L691.705307,830.824061 L693.916464,832.723405 L696,830.288492 Z M673.235129,805.35288 L690.113051,805.35288 L690.113051,825.231858 L673.235129,810.733822 L673.235129,805.35288 Z M681.67329,838.534886 C680.819552,838.534886 680.12784,837.841774 680.12784,836.986307 C680.12784,836.131242 680.819552,835.438129 681.67329,835.438129 C682.527427,835.438129 683.219539,836.131242 683.219539,836.986307 C683.219539,837.841774 682.527427,838.534886 681.67329,838.534886 Z M690.113051,833.919616 L673.235129,833.919616 L673.235129,814.95824 L690.113051,829.455875 L690.113051,833.919616 Z" id="Shape"></path>
        </g>
    </g>
</svg>