<?xml version="1.0" encoding="UTF-8" standalone="no"?>
<svg width="64px" height="60px" viewBox="0 0 64 60" version="1.1" xmlns="http://www.w3.org/2000/svg" xmlns:xlink="http://www.w3.org/1999/xlink">
    <!-- Generator: Sketch 3.6.1 (26313) - http://www.bohemiancoding.com/sketch -->
    <title>notification</title>
    <desc>Created with Sketch.</desc>
    <defs></defs>
    <g id="Page-1" stroke="none" stroke-width="1"  fill-rule="evenodd">
        <path d="M36.825,54.3536 C35.899,55.4456 34.275,55.9996 32.001,55.9996 C29.729,55.9996 28.107,55.4516 27.179,54.3716 C26.613,53.7116 26.277,52.8576 26.087,51.9996 L32.001,51.9996 L37.903,51.9996 C37.713,52.8456 37.383,53.6956 36.825,54.3536 L36.825,54.3536 Z M12.829,44.8276 L14.001,43.6576 L14.001,41.9996 L13.999,24.2756 C14.005,23.6096 14.303,7.9996 32.001,7.9996 C49.233,7.9996 49.973,22.6276 50.001,24.2496 L50.001,41.9996 L50.001,43.6576 L51.171,44.8276 L54.343,47.9996 L42.001,47.9996 L32.001,47.9996 L22.001,47.9996 L9.657,47.9996 L12.829,44.8276 Z M64.001,51.9996 L54.001,41.9996 L54.001,24.2496 C54.001,24.2496 53.883,5.2536 34.001,4.0596 L34.001,-0.0004 L30.001,-0.0004 L30.001,4.0596 C10.117,5.2536 10.001,24.2496 10.001,24.2496 L10.001,41.9996 L0.001,51.9996 L22.033,51.9996 C22.549,55.4916 24.635,59.9996 32.001,59.9996 C39.351,59.9996 41.439,55.4916 41.961,51.9996 L64.001,51.9996 Z" id="notification" ></path>
    </g>
</svg>