<?xml version="1.0" encoding="UTF-8" standalone="no"?>
<svg width="64px" height="64px" viewBox="0 0 64 64" version="1.1" xmlns="http://www.w3.org/2000/svg" xmlns:xlink="http://www.w3.org/1999/xlink">
    <!-- Generator: Sketch 3.6.1 (26313) - http://www.bohemiancoding.com/sketch -->
    <title>ok</title>
    <desc>Created with Sketch.</desc>
    <defs></defs>
    <g id="Page-1" stroke="none" stroke-width="1"  fill-rule="evenodd">
        <path d="M32,59.7333333 C16.7082667,59.7333333 4.26666667,47.2917333 4.26666667,32 C4.26666667,16.7082667 16.7082667,4.26666667 32,4.26666667 C47.2917333,4.26666667 59.7333333,16.7082667 59.7333333,32 C59.7333333,47.2917333 47.2917333,59.7333333 32,59.7333333 M32,0 C14.3274667,0 0,14.3274667 0,32 C0,49.6725333 14.3274667,64 32,64 C49.6725333,64 64,49.6725333 64,32 C64,14.3274667 49.6725333,0 32,0 Z M27.7333333,34.1333333 L21.3333333,29.8666667 L17.0666667,34.1333333 L27.7333333,44.8 L46.9333333,25.6 L42.6666667,21.3333333 L27.7333333,34.1333333 Z" id="ok" ></path>
    </g>
</svg>