<svg xmlns="http://www.w3.org/2000/svg" viewBox="0 0 23 32"><title>icon_002</title><path d="M18,32,28,22V2A1.93,1.93,0,0,0,27.42.58,1.93,1.93,0,0,0,26,0H7A1.93,1.93,0,0,0,5.58.58,1.93,1.93,0,0,0,5,2V30a2,2,0,0,0,2,2Zm8-10.84L17.19,30H17V21h9ZM7,2H26V19H15V30H7Z" transform="translate(-5)"/><path d="M13.25,24.94A1.53,1.53,0,0,0,12,23.41l1.06-1.28v-1H9.36v1.7h1.18v-.59l1.08,0h0a11.74,11.74,0,0,0-1.25,1.52l.29.63c.46,0,1.17,0,1.17.63,0,.45-.41.64-.8.64a1.86,1.86,0,0,1-1.18-.5l-.64,1a2.71,2.71,0,0,0,1.92.74A1.93,1.93,0,0,0,13.25,24.94Zm0-9H12.1v.67H10.69c0-.87,2.46-1.24,2.46-2.89A1.75,1.75,0,0,0,11.21,12a2.14,2.14,0,0,0-2,1.21l.95.66a1.18,1.18,0,0,1,.9-.65.54.54,0,0,1,.6.58c0,.94-2.52,1.25-2.52,3.31a3.69,3.69,0,0,0,.07.6h4Zm0-7.47H12.08V4H10.9L9.38,5.37l.79.85a2.19,2.19,0,0,0,.56-.6h0v.13c0,.9,0,1.81,0,2.71H9.55v1.1h3.74Zm10.86,5.85c0-.2-.11-.36-.22-.36H15.39c-.13,0-.22.16-.22.36v2.14c0,.19.1.36.22.36h8.53c.12,0,.22-.17.22-.36Zm0-8c0-.19-.11-.36-.22-.36H15.39c-.13,0-.22.17-.22.36V8.46c0,.19.1.36.22.36h8.53c.12,0,.22-.17.22-.36Z" transform="translate(-5)"/></svg>