<svg xmlns="http://www.w3.org/2000/svg" viewBox="0 0 30.97 31.97"><title>icon_004</title><path d="M30.81,25.88l-.65-.36-4.52-2.16q.16-.21.31-.44a8.81,8.81,0,0,0,.85-1.76,10.26,10.26,0,0,0,.59-3.3V14.59a4,4,0,0,0-.68-2.18,7,7,0,0,0-1.58-1.72A8.25,8.25,0,0,0,23,9.48,6.93,6.93,0,0,0,21,9a10,10,0,1,0-7.16,10.58,9.59,9.59,0,0,0,.41,1.49A10.17,10.17,0,0,0,15,22.86q.16.26.34.51l-4.5,2.13-.73.42A2,2,0,0,0,9,27.69v2a2.24,2.24,0,0,0,.67,1.62,2.27,2.27,0,0,0,1.64.67H29.68A2.29,2.29,0,0,0,32,29.68v-2A2,2,0,0,0,30.81,25.88ZM14.26,12.42a4.06,4.06,0,0,0-.66,2.17v3A8,8,0,1,1,19,9.18a7.27,7.27,0,0,0-1,.29,8.2,8.2,0,0,0-2.16,1.21A6.8,6.8,0,0,0,14.26,12.42ZM30,29.68a.29.29,0,0,1-.29.29H11.31a.27.27,0,0,1-.23-.09.25.25,0,0,1-.09-.21v-2s0,0,.16,0l.66-.38,5.69-2.69L19,23.89l-1.26-1a4,4,0,0,1-.93-1.07,8.17,8.17,0,0,1-.69-1.42,7.88,7.88,0,0,1-.48-2.54V14.59A2.09,2.09,0,0,1,16,13.48a4.81,4.81,0,0,1,1.11-1.22,6.21,6.21,0,0,1,1.64-.92A5,5,0,0,1,20.49,11a4.87,4.87,0,0,1,1.78.34,6.26,6.26,0,0,1,1.63.92A5,5,0,0,1,25,13.49a2,2,0,0,1,.37,1.1v3.28a8.26,8.26,0,0,1-.48,2.63,6.81,6.81,0,0,1-.66,1.36,4,4,0,0,1-.92,1l-1.26,1,7.17,3.42.59.33c.13.07.13.07.13.06Z" transform="translate(-1)"/><polygon points="10 10 7 10 7 12 10 12 12 12 12 10 12 5 10 5 10 10"/></svg>