<svg xmlns="http://www.w3.org/2000/svg" viewBox="0 0 25 32"><title>icon_012</title><path d="M22,22H11a5,5,0,0,0-5,5v5H27V27A5,5,0,0,0,22,22ZM8,30V27a3,3,0,0,1,3-3h4.05a1.21,1.21,0,0,0-.06.35,1.35,1.35,0,0,0,.88,1.23L15.27,30Zm17,0H17.73l-.61-4.42A1.35,1.35,0,0,0,18,24.35a1.21,1.21,0,0,0-.06-.35H22a3,3,0,0,1,3,3Z" transform="translate(-4)"/><path d="M14,17.5V19a1,1,0,0,0,1,1h.09a1.5,1.5,0,0,0,2.83,0H18a1,1,0,0,0,1-1V17.5a6.5,6.5,0,1,0-5,0ZM16.5,7a4.5,4.5,0,0,1,1.76,8.64h0a4.48,4.48,0,0,1-.73.23l-.2,0a4.05,4.05,0,0,1-1.62,0l-.2,0a4.47,4.47,0,0,1-.73-.23h0A4.5,4.5,0,0,1,16.5,7Z" transform="translate(-4)"/><rect x="21" y="10" width="4" height="2"/><rect x="8" y="2" width="2" height="4" transform="translate(-4.19 7.54) rotate(-45)"/><rect x="22" y="3" width="4" height="2" transform="translate(0.2 18.14) rotate(-45)"/><rect x="12" width="2" height="3"/><rect y="10" width="4" height="2"/></svg>