<svg id="Capa_1" data-name="Capa 1" xmlns="http://www.w3.org/2000/svg" viewBox="0 0 70 70"><title>rentaC_tlf</title><path d="M67.27,51.47,52.43,42.32a3.68,3.68,0,0,0-2-.56,3.92,3.92,0,0,0-3,1.4l-2.88,3.55a2.93,2.93,0,0,1-2.47,1.19c-2,0-5.72-1.36-12.17-7.82-6.65-6.64-7.92-10.4-7.81-12.39a2.92,2.92,0,0,1,1.17-2.26l3.55-2.88a3.89,3.89,0,0,0,.85-5L18.52,2.73A3.8,3.8,0,0,0,15.33,1a3.67,3.67,0,0,0-1.06.16L9.59,2.67C5.82,3.89,3.09,8.6,1.79,12.6-1.33,22.21,4.8,34.79,20,50,32.62,62.6,43.49,69,52.32,69a16.31,16.31,0,0,0,5.08-.79c4-1.3,8.7-4,9.93-7.81l1.5-4.67A3.77,3.77,0,0,0,67.27,51.47Z"/></svg>