<?xml version="1.0" encoding="UTF-8" standalone="no"?>
<svg width="64px" height="48px" viewBox="0 0 64 48" version="1.1" xmlns="http://www.w3.org/2000/svg" xmlns:xlink="http://www.w3.org/1999/xlink">
    <!-- Generator: Sketch 3.6.1 (26313) - http://www.bohemiancoding.com/sketch -->
    <title>photo</title>
    <desc>Created with Sketch.</desc>
    <defs></defs>
    <g id="Page-1" stroke="none" stroke-width="1"  fill-rule="evenodd">
        <path d="M21.9991125,0 L17.9992375,7.99975001 L-0.000200000002,7.99975001 L-0.000200000002,47.9985 L63.9998,47.9985 L63.9998,7.99975001 L46.0003625,7.99975001 L41.9984875,0 L21.9991125,0 Z M3.999675,11.999625 L17.9992375,11.999625 L20.4711603,11.999625 L21.5771257,9.78769413 L24.4730352,3.999875 L39.5265648,3.999875 L42.4204744,9.78769413 L43.5264398,11.999625 L46.0003625,11.999625 L59.9979251,11.999625 L59.9979251,43.998625 L3.999675,43.998625 L3.999675,11.999625 Z M31.9992,17.9994375 C26.4853723,17.9994375 21.9995125,22.4852973 21.9995125,27.999125 C21.9995125,33.5129527 26.4853723,37.9988125 31.9992,37.9988125 C37.5130277,37.9988125 41.9988875,33.5129527 41.9988875,27.999125 C41.9988875,22.4852973 37.5130277,17.9994375 31.9992,17.9994375 Z M31.9992,33.9989375 C28.6853036,33.9989375 25.9993875,31.3130215 25.9993875,27.999125 C25.9993875,24.6852286 28.6853036,21.9993125 31.9992,21.9993125 C35.3130965,21.9993125 37.9990125,24.6852286 37.9990125,27.999125 C37.9990125,31.3130215 35.3130965,33.9989375 31.9992,33.9989375 Z M47.9987,19.999375 L55.99845,19.999375 L55.99845,15.9995 L47.9987,15.9995 L47.9987,19.999375 Z" id="photo" ></path>
    </g>
</svg>