<?xml version="1.0" encoding="UTF-8" standalone="no"?>
<svg width="59px" height="64px" viewBox="0 0 59 64" version="1.1" xmlns="http://www.w3.org/2000/svg" xmlns:xlink="http://www.w3.org/1999/xlink">
    <!-- Generator: Sketch 3.6.1 (26313) - http://www.bohemiancoding.com/sketch -->
    <title>settings</title>
    <desc>Created with Sketch.</desc>
    <defs></defs>
    <g id="Page-1" stroke="none" stroke-width="1"  fill-rule="evenodd">
        <path d="M59,14.7692308 C59,11.5643077 56.9374583,8.85907692 54.0833333,7.83753846 L54.0833333,0 L49.1666667,0 L49.1666667,7.83753846 C46.3125417,8.85907692 44.25,11.5643077 44.25,14.7692308 C44.25,17.9741538 46.3125417,20.6793846 49.1666667,21.7009231 L49.1666667,64 L54.0833333,64 L54.0833333,21.7009231 C56.9374583,20.6793846 59,17.9741538 59,14.7692308 Z M51.625,17.2307692 C50.268,17.2307692 49.1666667,16.128 49.1666667,14.7692308 C49.1666667,13.4104615 50.268,12.3076923 51.625,12.3076923 C52.982,12.3076923 54.0833333,13.4104615 54.0833333,14.7692308 C54.0833333,16.128 52.982,17.2307692 51.625,17.2307692 Z M31.9583333,42.2990769 L31.9583333,0 L27.0416667,0 L27.0416667,42.2990769 C24.1875417,43.3206154 22.125,46.0258462 22.125,49.2307692 C22.125,52.4356923 24.1875417,55.1409231 27.0416667,56.1624615 L27.0416667,64 L31.9583333,64 L31.9583333,56.1624615 C34.8124583,55.1409231 36.875,52.4356923 36.875,49.2307692 C36.875,46.0258462 34.8124583,43.3206154 31.9583333,42.2990769 Z M29.5,51.6923077 C28.143,51.6923077 27.0416667,50.5895385 27.0416667,49.2307692 C27.0416667,47.872 28.143,46.7692308 29.5,46.7692308 C30.857,46.7692308 31.9583333,47.872 31.9583333,49.2307692 C31.9583333,50.5895385 30.857,51.6923077 29.5,51.6923077 Z M9.83333333,25.0683077 L9.83333333,0 L4.91666667,0 L4.91666667,25.0683077 C2.06254167,26.0898462 0,28.7950769 0,32 C0,35.2049231 2.06254167,37.9101538 4.91666667,38.9316923 L4.91666667,64 L9.83333333,64 L9.83333333,38.9316923 C12.6874583,37.9101538 14.75,35.2049231 14.75,32 C14.75,28.7950769 12.6874583,26.0898462 9.83333333,25.0683077 Z M7.375,34.4615385 C6.018,34.4615385 4.91666667,33.3587692 4.91666667,32 C4.91666667,30.6412308 6.018,29.5384615 7.375,29.5384615 C8.732,29.5384615 9.83333333,30.6412308 9.83333333,32 C9.83333333,33.3587692 8.732,34.4615385 7.375,34.4615385 Z" id="settings" ></path>
    </g>
</svg>