<?xml version="1.0" encoding="UTF-8" standalone="no"?>
<svg width="64px" height="64px" viewBox="0 0 64 64" version="1.1" xmlns="http://www.w3.org/2000/svg" xmlns:xlink="http://www.w3.org/1999/xlink">
    <!-- Generator: Sketch 3.6.1 (26313) - http://www.bohemiancoding.com/sketch -->
    <title>three</title>
    <desc>Created with Sketch.</desc>
    <defs></defs>
    <g id="Page-1" stroke="none" stroke-width="1"  fill-rule="evenodd">
        <path d="M32,59.7333333 C16.7082667,59.7333333 4.26666667,47.2917333 4.26666667,32 C4.26666667,16.7082667 16.7082667,4.26666667 32,4.26666667 C47.2917333,4.26666667 59.7333333,16.7082667 59.7333333,32 C59.7333333,47.2917333 47.2917333,59.7333333 32,59.7333333 M32,0 C14.3274667,0 0,14.3274667 0,32 C0,49.6725333 14.3274667,64 32,64 C49.6725333,64 64,49.6725333 64,32 C64,14.3274667 49.6725333,0 32,0 Z M23.4666667,36.4334705 C23.5198339,37.3699131 23.5995846,38.8623685 24.8755971,40.3255601 C26.2845275,41.9643347 28.3048806,42.6666667 31.3619938,42.6666667 C35.003946,42.6666667 36.4926272,41.6716964 37.3964694,40.9401006 C38.9117342,39.7402835 39.3370717,38.1015089 39.3370717,36.6383173 C39.3370717,32.2780064 35.6685358,31.8097851 34.6849429,31.6927298 L34.6849429,31.5464106 C37.2103842,31.2537723 38.9649013,29.1760402 38.9649013,26.7178784 C38.9649013,23.645176 36.3862928,21.3333333 31.6012461,21.3333333 C27.4010384,21.3333333 24.0515057,23.1769547 23.9185877,27.4202103 L29.0492212,27.4202103 C29.128972,25.4302698 30.5113188,25.0791038 31.415161,25.0791038 C32.9038422,25.0791038 33.9140187,25.9570187 33.9140187,27.3616827 C33.9140187,27.5957933 33.9140187,29.5857339 31.6278297,29.9368999 C30.5379024,30.1124829 29.5277259,30.0539552 28.8365524,30.0246914 L28.8365524,33.6534065 C29.1821391,33.6241427 29.713811,33.5948788 30.2986501,33.5948788 C31.3619938,33.5948788 34.1798546,33.5948788 34.1798546,36.1993599 C34.1798546,37.4577046 33.5418484,38.8916324 31.3088266,38.8916324 C29.3150571,38.8916324 28.6770509,37.7503429 28.6238837,36.4334705 L23.4666667,36.4334705 Z" id="three" ></path>
    </g>
</svg>