<?xml version="1.0" encoding="UTF-8" standalone="no"?>
<svg width="64px" height="54px" viewBox="0 0 64 54" version="1.1" xmlns="http://www.w3.org/2000/svg" xmlns:xlink="http://www.w3.org/1999/xlink">
    <!-- Generator: Sketch 3.6.1 (26313) - http://www.bohemiancoding.com/sketch -->
    <title>twitter</title>
    <desc>Created with Sketch.</desc>
    <defs></defs>
    <g id="Page-1" stroke="none" stroke-width="1"  fill-rule="evenodd">
        <path d="M62.2324747,1.32098765 C59.6932804,2.86056645 56.8875219,3.98150284 53.8886753,4.5829809 C51.4998505,1.96689308 48.085779,0.333333333 44.3060361,0.333333333 C37.0609595,0.333333333 31.1811696,6.36178393 31.1811696,13.7965312 C31.1811696,14.8525353 31.2939468,15.877782 31.519501,16.8637276 C20.6074587,16.3015507 10.9342561,10.9463454 4.45469691,2.79221667 C3.32350805,4.78803024 2.67760263,7.1016703 2.67760263,9.56738861 C2.67760263,14.2356786 4.99466017,18.3588791 8.51980008,20.773335 C6.3701995,20.7084028 4.34191977,20.0949635 2.56824298,19.0936392 L2.56824298,19.2593874 C2.56824298,25.7850827 7.09470716,31.2274339 13.1060703,32.4611474 C12.0056389,32.7755564 10.8436926,32.9344696 9.6458627,32.9344696 C8.80003417,32.9344696 7.97471058,32.8541587 7.17501816,32.6952454 C8.84617028,38.041907 13.6921697,41.9361357 19.4386774,42.0403691 C14.9463881,45.6543637 9.28190012,47.8073818 3.13212867,47.8073818 C2.07270708,47.8073818 1.0252467,47.745867 0,47.6228374 C5.8097313,51.4367551 12.7147678,53.6666667 20.1273015,53.6666667 C44.280405,53.6666667 57.4838737,33.1531889 57.4838737,15.3617412 C57.4838737,14.7756418 57.4736213,14.1895425 57.4514076,13.6154043 C60.0162331,11.7169892 62.2444359,9.34696057 63.9976078,6.64714426 C61.6463753,7.71852706 59.114016,8.44303473 56.458627,8.76598744 C59.1704045,7.1016703 61.2516553,4.46336879 62.2324747,1.32098765" id="twitter" ></path>
    </g>
</svg>