<?xml version="1.0" encoding="UTF-8" standalone="no"?>
<svg width="64px" height="64px" viewBox="0 0 64 64" version="1.1" xmlns="http://www.w3.org/2000/svg" xmlns:xlink="http://www.w3.org/1999/xlink">
    <!-- Generator: Sketch 3.6.1 (26313) - http://www.bohemiancoding.com/sketch -->
    <title>two</title>
    <desc>Created with Sketch.</desc>
    <defs></defs>
    <g id="Page-1" stroke="none" stroke-width="1"  fill-rule="evenodd">
        <path d="M32,59.7333333 C16.7082667,59.7333333 4.26666667,47.2917333 4.26666667,32 C4.26666667,16.7082667 16.7082667,4.26666667 32,4.26666667 C47.2917333,4.26666667 59.7333333,16.7082667 59.7333333,32 C59.7333333,47.2917333 47.2917333,59.7333333 32,59.7333333 M32,0 C14.3274667,0 0,14.3274667 0,32 C0,49.6725333 14.3274667,64 32,64 C49.6725333,64 64,49.6725333 64,32 C64,14.3274667 49.6725333,0 32,0 Z M23.4666667,42.6666667 L38.7780591,42.6666667 L38.7780591,38.5491841 L29.8666667,38.5491841 C35.0514768,34.4317016 38.7240506,31.5076923 38.7240506,27.2111888 C38.7240506,26.0177156 38.4270042,24.8540793 37.7248945,23.8694639 C36.5097046,22.1389277 34.457384,21.3333333 31.5949367,21.3333333 C30.0016878,21.3333333 26.7881857,21.6018648 25.1949367,23.7202797 C23.8987342,25.4508159 23.8447257,27.0620047 23.8447257,27.7184149 L29.1105485,27.7184149 C29.164557,27.1515152 29.2995781,25.3016317 31.3248945,25.3016317 C32,25.3016317 33.350211,25.5403263 33.350211,27.3902098 C33.350211,28.3449883 33.0261603,29.1207459 32.6751055,29.7473193 C31.2978903,31.9254079 27.7063291,34.9090909 23.4666667,38.3701632 L23.4666667,42.6666667 Z" id="two" ></path>
    </g>
</svg>