<?xml version="1.0" encoding="utf-8"?>
<!-- Generator: Adobe Illustrator 19.2.1, SVG Export Plug-In . SVG Version: 6.00 Build 0)  -->
<!DOCTYPE svg PUBLIC "-//W3C//DTD SVG 1.1//EN" "http://www.w3.org/Graphics/SVG/1.1/DTD/svg11.dtd">
<svg version="1.1" id="Capa_1" xmlns="http://www.w3.org/2000/svg" xmlns:xlink="http://www.w3.org/1999/xlink" x="0px" y="0px"
	 viewBox="0 0 145.3 98.5" style="enable-background:new 0 0 145.3 98.5;" xml:space="preserve">
<style type="text/css">
	.st0{fill:#FFFFFF;}
</style>
<g>
	<path class="st0" d="M8.7,70.8h3v21.9h-3V70.8z"/>
	<path class="st0" d="M16.5,79.5l-0.1-2h2.9v2.2c1.5-2.4,3.5-2.6,4.8-2.6c3.4,0,4.4,1.7,5,2.8c0.5-0.8,1.8-2.8,5.1-2.8
		c2.2,0,5.6,0.9,5.6,5.4v10.2h-2.9v-9.7c0-1.3-0.2-1.9-0.5-2.3c-0.5-0.7-1.5-1.3-2.9-1.3c-1.8,0-2.8,1.1-3.2,1.6
		c-0.7,0.9-0.7,2.6-0.7,3.3v8.5h-2.9V82.6c0-1.9-1.1-3.3-3.3-3.3c-1.9,0-3,1.2-3.3,1.7c-0.6,0.9-0.7,2.1-0.7,3.1v8.6h-2.9V79.5z"/>
	<path class="st0" d="M44.4,79.9c0-0.7,0-1-0.1-2.5h2.9l0.1,2.5c1.4-2.4,3.9-2.8,5.2-2.8c3.3,0,6.4,2.2,6.4,7.9
		c0,5.7-3.3,8.1-6.9,8.1c-2.2,0-3.8-0.9-4.7-2.3v7.5h-2.8V79.9z M51.4,91.1c0.7,0,2.2-0.2,3.2-1.5c1.1-1.5,1.2-3.7,1.2-4.8
		c0-2.7-0.8-5.6-4.2-5.6c-4.5,0-4.5,4.8-4.5,6.2C47.1,87.3,47.4,91.1,51.4,91.1z"/>
	<path class="st0" d="M65,77.4v9.8c0,1.5,0.3,3.4,3.2,3.4c1.4,0,2.8-0.5,3.6-1.7c0.6-0.9,0.6-2.1,0.6-2.8v-8.6h2.9v12.4
		c0,0.3,0.1,2,0.1,2.8h-3L72.5,90c-0.5,1.1-1.6,2.8-4.8,2.8c-3.8,0-5.5-2.1-5.5-5.1V77.4H65z"/>
	<path class="st0" d="M80.4,70.8h2.8v21.8h-2.8V70.8z"/>
	<path class="st0" d="M89.8,88.1c0,1.2,0.6,2.8,3.3,2.8c1.2,0,2.1-0.2,2.7-1c0.3-0.4,0.5-0.9,0.5-1.4c0-1.5-1.1-1.8-3.3-2.3
		c-3.2-0.7-5.8-1.4-5.8-4.5c0-2.8,2.4-4.6,5.9-4.6c1.9,0,4.6,0.5,5.5,2.4C99,80.3,99,81,99,81.6H96c0.1-2.3-1.9-2.5-2.9-2.5
		c-0.4,0-3.1,0-3.1,2.2c0,1.4,1.4,1.7,2.1,1.9c4.2,1,5.1,1.2,6,2.1c0.8,0.8,1.2,1.8,1.2,2.8c0,1.7-0.9,3.1-2.1,3.8
		c-1.3,0.8-2.9,1-4.5,1c-3.1,0-6-1.3-5.9-4.9H89.8z"/>
	<path class="st0" d="M112,92.6c-0.2-0.8-0.3-1.5-0.3-2.3c-1.4,2.5-3.4,2.8-4.7,2.8c-3.5,0-5.4-2-5.4-4.5c0-1.2,0.4-3.1,2.7-4.5
		c1.6-0.9,4.1-1,5.3-1c0.7,0,1.2,0,2.1,0.1c0-1.9,0-2.7-0.5-3.4c-0.6-0.8-1.8-1-2.6-1c-2.9,0-3,2-3.1,2.6h-2.8
		c0.1-0.8,0.2-1.8,1.1-2.9c1.2-1.3,3.3-1.6,4.9-1.6c2.2,0,4.6,0.7,5.4,2.2c0.5,0.9,0.5,1.6,0.5,2.3l-0.1,7.3c0,0.2,0,2.3,0.2,3.8
		H112z M110.1,85.2c-1.2,0-5.5,0-5.5,3.1c0,1,0.6,2.6,3.1,2.6c1.5,0,2.5-0.6,3.2-1.6c0.6-1,0.7-1.9,0.7-4
		C111.2,85.2,110.8,85.2,110.1,85.2z"/>
</g>
<g>
	<path class="st0" d="M144.2,45.5h-7.6l1.2-5h-15.1l-1.2,5h-7.3v-1c0.1-0.6,0.2-1.2,0.4-1.8c1.3-5.4,4.9-10.7,11-10.7
		c2.4,0,4.8,0.9,4.5,4.3h9c0.4-1.6,1-4.2-0.7-6.7c-1.9-2.7-5.8-3.7-10.8-3.7c-3.6,0-8.8,0.6-13.3,3.5V2.2h30V45.5 M126.5,52.8
		c-1.7,0.3-3.4,0.5-5,0.5c-4.3,0-7.3-2-7.4-6.7h14L126.5,52.8z M109.2,28.1l0,6.2c-2.1,2.9-3.4,6-4,8.6c-0.2,0.9-0.4,1.8-0.5,2.6
		h-4.4l3.8-17.9l-12.7,0L80.1,45.5h-0.8V2.2h30V28.1z M92.5,45.5H88l6.8-10.7L92.5,45.5z M74.3,27.6h-7.5l-5.1,17.9h-8
		c4.1-1.5,6.5-4.4,7.3-8.6c0.6-3.3,0.3-5.5-1-7.1c-2-2.4-6.1-2.2-9.7-2.2c-0.6,0-6,0-6,0V2.2h30V27.6z M69.5,45.5l3.2-11.2l0.1,11.2
		H69.5z M47.7,41.2L47.7,41.2c-0.3,0-0.6,0-0.9,0c-0.4,0-0.8,0-1.1,0l-1.9,0l0.9-3.3l0.4-1.6l1-3.8c0.4,0,0.9,0,1.3,0h1.5
		c2.5,0,4.1,0.1,4.7,1c0.4,0.6,0.4,1.7-0.1,3.3C52.5,39.5,51.4,40.9,47.7,41.2 M39.3,29.2l-0.5,1.6L34.6,45l-0.2,0.5H20.3l-1.1-2.3
		l15.2-15.5h-9.8L12.7,40.4l3.9-12.8H9.4V2.2h30V29.2z M113.1,1v29.1c-1,0.8-1.9,1.7-2.7,2.6V1H78.1v26.5h-2.7V1H43.2v26.6h-2.7V1
		H8.2v30.3L0,58.8h7.2l3.6-12.2h1l6,12.2h8.8l-5.8-12.2h13.2l-3.7,12.2h7.9l3.6-12.1h1.7v0h17.6l-3.5,12.1h8l3.4-12.1h3.6l0.1,12.1
		h6.7l7.7-12.1h5l-2.6,12.1h7.9l2.5-12.1h4.5c-0.2,3.8,0.8,7.2,3.3,9.5c3,2.8,7.7,3.3,11.2,3.3c4.7,0,9.6-0.7,14.6-1.8l2.7-11h9V1
		H113.1z"/>
</g>
</svg>
