<?xml version="1.0" encoding="UTF-8" standalone="no"?>
<svg width="54px" height="23px" viewBox="0 0 54 23" version="1.1" xmlns="http://www.w3.org/2000/svg" xmlns:xlink="http://www.w3.org/1999/xlink">
    <!-- Generator: Sketch 3.6.1 (26313) - http://www.bohemiancoding.com/sketch -->
    <title>logo</title>
    <desc>Created with Sketch.</desc>
    <defs></defs>
    <g id="UI" stroke="none" stroke-width="1" fill="none" fill-rule="evenodd">
        <g id="guaiestilos_01basicos" transform="translate(-113.000000, -10746.000000)" fill="#FFFFFF">
            <g id="footer" transform="translate(0.000000, 10637.000000)">
                <g id="pie" transform="translate(0.000000, 79.000000)">
                    <g id="derechos" transform="translate(113.000000, 30.000000)">
                        <path d="M42.0115595,0.90274822 L42.0115595,11.9284053 C41.6333084,12.2327418 41.3115702,12.558771 41.0123087,12.9096831 L41.0123087,0.90274822 L29.0245103,0.90274822 L29.0245103,10.9426614 L28.0310393,10.9426614 L28.0310393,0.90274822 L16.0413144,0.90274822 L16.0413144,10.958612 L15.0497699,10.958612 L15.0497699,0.90274822 L3.05876057,0.90274822 L3.05876057,12.3648123 L0,22.7562756 L2.69078454,22.7562756 L4.04195655,18.1542234 L4.43048271,18.1542234 L6.66209997,22.7562756 L9.91287595,22.7562756 L7.74804667,18.1542234 L12.6608156,18.1542234 L11.2974419,22.7562756 L14.2380392,22.7562756 L15.5827893,18.1663458 L16.2281922,18.1663458 L16.2281922,18.1542234 L22.7740554,18.1542234 L21.4761854,22.7428772 L24.4399015,22.7428772 L25.6979557,18.1542234 L27.0317885,18.1542234 L27.0677513,22.7428772 L29.5543187,22.7428772 L32.4088622,18.1542234 L34.277641,18.1542234 L33.3137108,22.7428772 L36.2324735,22.7428772 L37.1797067,18.1542234 L38.8673873,18.1542234 C38.8005994,19.5757363 39.1570159,20.8683687 40.0830568,21.7379926 C41.213957,22.797747 42.9504442,23 44.2361126,23 C45.9944343,23 47.8201862,22.7428772 49.6568554,22.3205066 L50.6683078,18.1542234 L54,18.1542234 L54,0.90274822 L42.0115595,0.90274822 L42.0115595,0.90274822 Z M14.6169325,11.5443161 L14.4428984,12.1332104 L12.84962,17.5340661 L12.7866852,17.7235586 L7.54318741,17.7235586 L7.1341111,16.8443643 L12.7866852,10.958612 L9.15508937,10.958612 L4.73488173,15.8101308 L6.16632773,10.958612 L3.48838703,10.958612 L3.48838703,1.33787918 L14.6169325,1.33787918 L14.6169325,11.5443161 L14.6169325,11.5443161 Z M17.7129402,16.1112771 L17.709087,16.1112771 C17.601841,16.1170193 17.4933105,16.1265897 17.3687252,16.1265897 C17.2062507,16.1265897 17.0790966,16.1323319 16.9596489,16.1323319 L16.2468158,16.1265897 L16.5762603,14.885637 L16.732313,14.2686698 L17.1054265,12.8248261 C17.2711121,12.8248261 17.4342288,12.8184459 17.5896393,12.8184459 L18.1412822,12.8184459 C19.0827357,12.8184459 19.6793321,12.8733158 19.8957508,13.1821184 C20.0620786,13.4137204 20.0396018,13.8137601 19.8443755,14.4230711 C19.508509,15.4726172 19.0827357,16.0053655 17.7129402,16.1112771 L17.7129402,16.1112771 Z M25.8180456,17.7235586 L26.9913304,13.4826268 L27.0317885,17.7235586 L25.8180456,17.7235586 L25.8180456,17.7235586 Z M27.6007706,10.9426614 L24.8130151,10.9426614 L22.9012095,17.7235586 L19.9458418,17.7235586 C21.4517821,17.1563571 22.3675479,16.0723578 22.652039,14.4639045 C22.8851547,13.2146575 22.7740554,12.3922473 22.2737879,11.7765561 C21.5243498,10.8603566 20.0196939,10.9388333 18.6826501,10.9388333 C18.4488922,10.9388333 16.471583,10.9426614 16.471583,10.9426614 L16.471583,1.33787918 L27.6007706,1.33787918 L27.6007706,10.9426614 L27.6007706,10.9426614 Z M34.3624104,17.7235586 L32.6869314,17.7235586 L35.2229477,13.6587208 L34.3624104,17.7235586 L34.3624104,17.7235586 Z M40.5813978,11.13343 L40.5756181,13.4826268 C39.7998502,14.5755583 39.3169218,15.7692974 39.0921546,16.7301584 C39.0061008,17.066396 38.946377,17.3937012 38.9142674,17.7235586 L37.2773199,17.7235586 L38.6766563,10.958612 L33.9668201,10.9541458 L29.7514717,17.7235586 L29.4445039,17.7235586 L29.4445039,1.33787918 L40.5813978,1.33787918 L40.5813978,11.13343 L40.5813978,11.13343 Z M47.0026758,20.4932118 C46.3656213,20.6099698 45.7317778,20.6884465 45.1287595,20.6884465 C43.5219951,20.6884465 42.4052232,19.9279244 42.3814621,18.1542234 L47.5716579,18.1542234 L47.0026758,20.4932118 L47.0026758,20.4932118 Z M53.5767955,17.7235586 L50.7710585,17.7235586 L51.234079,15.8337376 L45.6129723,15.8337376 L45.150594,17.7235586 L42.434764,17.7235586 L42.434764,17.3356412 C42.4765065,17.1225419 42.5124692,16.8992342 42.565129,16.660614 C43.0589746,14.6221339 44.3728995,12.6078987 46.6443327,12.6078987 C47.5440437,12.6078987 48.4373328,12.9575347 48.3153163,14.2240083 L51.6592101,14.2240083 C51.7908595,13.6331999 52.0124157,12.6264013 51.3804988,11.7006315 C50.6683078,10.6938329 49.2323665,10.290603 47.3700096,10.290603 C46.0451675,10.290603 44.1083164,10.5062544 42.434764,11.6196027 L42.434764,1.33787918 L53.5767955,1.33787918 L53.5767955,17.7235586 L53.5767955,17.7235586 Z" id="logo"></path>
                    </g>
                </g>
            </g>
        </g>
    </g>
</svg>