<?xml version="1.0" encoding="UTF-8" standalone="no"?>
<svg width="201px" height="180px" viewBox="0 0 201 180" version="1.1" xmlns="http://www.w3.org/2000/svg" xmlns:xlink="http://www.w3.org/1999/xlink">
    <!-- Generator: Sketch 39.1 (31720) - http://www.bohemiancoding.com/sketch -->
    <title>ilustracion</title>
    <desc>Created with Sketch.</desc>
    <defs></defs>
    <g id="Page-3" stroke="none" stroke-width="1" fill="none" fill-rule="evenodd">
        <g id="01escritorio_07mantenimiento_03errormantenimiento" transform="translate(-570.000000, -135.000000)">
            <g id="paño1" transform="translate(0.000000, 75.000000)">
                <g id="mask">
                    <g id="ilustracion" transform="translate(570.000000, 60.000000)">
                        <path d="M76.1943359,111.84082 L75.6376953,36.8525391 L79.1591797,27.5205078 L84.4785156,19.1074219 L90.4736328,12.5556641 L98.9990234,6.375 L106.356445,3.2890625 L114.213867,2.11230469 L123.981445,1.67675781 L134.360352,2.7890625 L143.950195,6.06933594 L149.880859,9.34082031 L156.432617,13.7412109 L160.759766,19.625 L165.828125,26.4824219 L169.349609,35.8779297 L170.508789,44.71875 L170.638672,54.9121094 L170.758789,112.383789 L137.398438,113.125 L136.286133,104.332031 L142.225586,101.487305 L147.980469,97.7158203 L154.902344,88.6904297 L158.117188,76.5791016 L158.488281,52.7998047 L158.673828,48.6494141 L141.484375,48.3994141 L135.933594,29.8564453 L130.744141,48.3994141 L87.3105469,47.8427734 L86.6337891,69.7216797 L87.9951172,80.5361328 L90.7109375,88.6259766 L93.8056641,93.3886719 L97.5771484,96.3632812 L102.710938,99.8837891 L108.334961,102.728516 L110.995117,104.461914 L111.486328,112.672852 L76.1943359,111.84082 Z M111.865234,118.917969 L111.865234,167.250997 L136.226959,167.250997 L136.226959,116.210076 L133.428711,119.991211 L130.455078,123.207031 L126.433594,124.753906 L120.131836,125.55957 L116.602539,123.271484 L113.545898,119.964844 L111.865234,118.917969 Z" id="Combined-Shape" fill="#57C2F8"></path>
                        <path d="M182.644801,18.5142699 C181.955116,17.9286977 180.923587,18.0139116 180.339127,18.7038162 L176.305152,23.4670532 C175.720692,24.1569578 175.805198,25.1909954 176.493793,25.7765676 C176.801289,26.0382179 177.177481,26.1660387 177.550946,26.1660387 C178.014916,26.1660387 178.47616,25.9693913 178.798922,25.5875676 L182.833442,20.8243306 C183.417902,20.1338798 183.333396,19.0998422 182.644801,18.5142699 Z M189.181924,29.4121957 C188.885332,28.5573257 187.953031,28.1055829 187.100329,28.402739 L180.472812,30.7127997 C179.619565,31.0099558 179.16868,31.9440309 179.465817,32.7989009 C179.700255,33.4756957 180.333784,33.8995801 181.010384,33.8995801 C181.188666,33.8995801 181.369675,33.8700829 181.547412,33.8083575 L188.174384,31.4982968 C189.028176,31.2011408 189.479061,30.2670656 189.181924,29.4121957 Z M189.84533,38.9458801 L183.65016,37.6469147 C182.766927,37.460646 181.89896,38.0298309 181.714135,38.9147442 C181.529311,39.80075 182.095779,40.669276 182.980102,40.8549986 L189.175272,42.1539639 C189.288675,42.1779986 189.401533,42.1889234 189.512209,42.1889234 C190.2695,42.1889234 190.949916,41.6579754 191.111297,40.8855882 C191.296122,39.9995824 190.729653,39.1310564 189.84533,38.9458801 Z" id="Combined-Shape" fill="#FEFEFE"></path>
                        <path d="M124.25722,90.4923526 C119.996439,90.4923526 116.754647,88.0309827 115.998447,84.4443526 L132.516538,84.4443526 C131.760338,88.0309827 128.518546,90.4923526 124.25722,90.4923526 M134.320622,81.166896 L114.194362,81.166896 C113.290957,81.166896 112.558746,81.9005 112.558746,82.8056243 C112.558746,89.0562803 117.588266,93.7698092 124.25722,93.7698092 C130.926718,93.7698092 135.956239,89.0562803 135.956239,82.8056243 C135.956239,81.9005 135.224028,81.166896 134.320622,81.166896 Z M115.198522,66.9241618 C115.198522,62.1292428 111.304664,58.2279769 106.518305,58.2279769 C101.732492,58.2279769 97.838634,62.1292428 97.838634,66.9241618 C97.838634,67.8292861 98.5708449,68.5628902 99.4742504,68.5628902 C100.377656,68.5628902 101.109867,67.8292861 101.109867,66.9241618 C101.109867,63.9362139 103.536031,61.5054335 106.518305,61.5054335 C109.501124,61.5054335 111.927289,63.9362139 111.927289,66.9241618 C111.927289,67.8292861 112.6595,68.5628902 113.562905,68.5628902 C114.466311,68.5628902 115.198522,67.8292861 115.198522,66.9241618 Z M141.996134,58.2277584 C137.210321,58.2277584 133.316463,62.1290243 133.316463,66.9239434 C133.316463,67.8290676 134.048674,68.5626717 134.952079,68.5626717 C135.855485,68.5626717 136.587696,67.8290676 136.587696,66.9239434 C136.587696,63.9359954 139.01386,61.505215 141.996134,61.505215 C144.978953,61.505215 147.405118,63.9359954 147.405118,66.9239434 C147.405118,67.8290676 148.137329,68.5626717 149.040734,68.5626717 C149.94414,68.5626717 150.676351,67.8290676 150.676351,66.9239434 C150.676351,62.1290243 146.782493,58.2277584 141.996134,58.2277584 Z" id="Combined-Shape" fill="#FEFEFE"></path>
                        <path d="M182.001513,165.9488 L168.026261,165.9488 L168.026261,146.28406 C168.026261,145.378936 167.29405,144.645332 166.390645,144.645332 C165.487239,144.645332 164.755028,145.378936 164.755028,146.28406 L164.755028,165.9488 L137.453864,165.9488 L137.453864,116.324829 L137.452773,116.324829 C137.541642,115.963216 137.61688,115.596687 137.677398,115.225242 L175.459047,115.225242 C179.066672,115.225242 182.001513,118.165667 182.001513,121.780155 L182.001513,165.9488 Z M134.593171,112.9343 C134.593171,118.957173 129.702678,123.856971 123.691242,123.856971 C117.679806,123.856971 112.789313,118.957173 112.789313,112.9343 L112.789313,106.326401 C115.400302,106.861719 118.133417,107.151774 120.968486,107.151774 L124.277338,107.151774 C127.896412,107.151774 131.351924,106.686921 134.593171,105.827135 L134.593171,112.9343 Z M134.182631,165.9488 L113.199853,165.9488 L113.199853,122.471699 C115.794486,125.334011 119.536776,127.134427 123.691242,127.134427 C127.845708,127.134427 131.587998,125.334011 134.182631,122.471699 L134.182631,165.9488 Z M109.92862,116.324829 L109.92862,165.9488 L93.5092118,165.9488 L93.5092118,120.289459 L65.5581625,120.289459 C66.2342173,117.391641 68.8283049,115.225242 71.9234364,115.225242 L109.705086,115.225242 C109.765604,115.596687 109.840297,115.963216 109.929165,116.324829 L109.92862,116.324829 Z M124.277338,103.874317 L120.968486,103.874317 C102.622321,103.874317 88.7877323,91.0092075 88.7877323,73.9489532 L88.7877323,50.3878636 L130.232072,50.3878636 C130.980639,50.3878636 131.633795,49.8793116 131.81753,49.1522624 L135.520565,34.5222422 L139.223601,49.1522624 C139.40788,49.8793116 140.061036,50.3878636 140.809604,50.3878636 L156.458636,50.3878636 L156.458636,73.9489532 C156.458636,91.0092075 142.624047,103.874317 124.277338,103.874317 L124.277338,103.874317 Z M76.756683,47.0191844 C76.756683,22.9052971 96.3371926,3.2875341 120.404743,3.2875341 L124.835628,3.2875341 C148.903179,3.2875341 168.483688,22.9052971 168.483688,47.0191844 L168.483688,111.947786 L137.864404,111.947786 L137.864404,104.899615 L137.572719,104.899615 C150.808672,100.171884 159.729869,88.4265717 159.729869,73.9489532 L159.729869,48.7988434 C159.729869,48.7906497 159.727143,48.7824561 159.727143,48.7742624 C159.727143,48.7655225 159.729869,48.7578751 159.729869,48.7491353 C159.729869,47.8445572 158.997658,47.1104069 158.094253,47.1104069 L142.082113,47.1104069 L137.106568,27.4538607 C136.922288,26.7262653 136.269132,26.2177133 135.520565,26.2177133 C134.771998,26.2177133 134.119387,26.7262653 133.935108,27.4538607 L128.959562,47.1104069 L87.1493899,47.1104069 C86.2454392,47.1104069 85.5137734,47.8445572 85.5137734,48.7491353 C85.5137734,48.7622451 85.5170447,48.7742624 85.5175899,48.7873723 C85.5175899,48.791196 85.5164995,48.7950197 85.5164995,48.7988434 L85.5164995,73.9489532 C85.5164995,89.0891642 95.2724063,101.243066 109.51808,105.504852 L109.51808,111.947786 L76.756683,111.947786 L76.756683,47.0191844 Z M59.4616748,148.203011 C59.327009,149.935693 58.0239679,152.072595 54.2167981,154.753554 C50.409083,152.072595 49.1060419,149.935693 48.9713762,148.203011 L48.9713762,147.601051 C49.1164008,145.790803 50.3044036,144.846349 51.3321159,144.74584 C51.5011296,144.728907 51.6592392,144.720713 51.8075351,144.720713 C52.9949926,144.720713 53.5641871,145.236366 54.2167981,146.016401 C54.8688638,145.236366 55.4380584,144.720713 56.6255159,144.720713 C56.7738118,144.720713 56.9319214,144.728907 57.1009351,144.74584 C58.1286474,144.846349 59.3166501,145.790803 59.4616748,147.601051 L59.4616748,148.203011 Z M185.272746,165.9488 L185.272746,121.780155 C185.272746,116.35815 180.870212,111.947786 175.459047,111.947786 L171.754921,111.947786 L171.754921,47.0191844 C171.754921,21.098326 150.707264,0.0100774566 124.835628,0.0100774566 L120.404743,0.0100774566 C94.5336529,0.0100774566 73.4854501,21.098326 73.4854501,47.0191844 L73.4854501,111.947786 L71.9234364,111.947786 C67.0187679,111.947786 62.9553515,115.574291 62.2345899,120.289459 L14.9243844,120.289459 L14.9243844,165.9488 L0.454630959,165.9488 L0.454630959,169.226257 L14.9243844,169.226257 L14.9243844,179.184809 L93.5092118,179.184809 L93.5092118,169.226257 L200.874891,169.226257 L200.874891,165.9488 L185.272746,165.9488 Z" id="Fill-22" fill="#FEFEFE"></path>
                    </g>
                </g>
            </g>
        </g>
    </g>
</svg>