<?xml version="1.0" encoding="UTF-8" standalone="no"?>
<svg width="182px" height="127px" viewBox="0 0 182 127" version="1.1" xmlns="http://www.w3.org/2000/svg" xmlns:xlink="http://www.w3.org/1999/xlink">
    <!-- Generator: Sketch 40.3 (33839) - http://www.bohemiancoding.com/sketch -->
    <title>robot</title>
    <desc>Created with Sketch.</desc>
    <defs></defs>
    <g id="Page-1" stroke="none" stroke-width="1" fill="none" fill-rule="evenodd">
        <g id="robot" transform="translate(1.000000, 1.000000)">
            <g id="Page-1">
                <g id="01escritorio_07mantenimiento_01errorMantenimiento02">
                    <g id="paño1">
                        <g id="mask">
                            <g id="Page-1">
                                <g id="Group-37">
                                    <path d="M178.932996,98.1218421 C178.932996,109.349474 139.024044,118.450789 89.7948156,118.450789 C40.5655877,118.450789 0.656634849,109.349474 0.656634849,98.1218421 C0.656634849,86.8942105 40.5655877,77.7928947 89.7948156,77.7928947 C139.024044,77.7928947 178.932996,86.8942105 178.932996,98.1218421" id="Fill-1" fill="#0B83B2"></path>
                                    <path d="M178.932996,98.1218421 C178.932996,109.349474 139.024044,118.450789 89.7948156,118.450789 C40.5655877,118.450789 0.656634849,109.349474 0.656634849,98.1218421 C0.656634849,86.8942105 40.5655877,77.7928947 89.7948156,77.7928947 C139.024044,77.7928947 178.932996,86.8942105 178.932996,98.1218421 L178.932996,98.1218421 L178.932996,98.1218421 Z" id="Stroke-3" stroke="#FFFFFF" stroke-width="3"></path>
                                    <path d="M178.932996,98.1218421 C178.932996,109.349474 139.024044,118.450789 89.7948156,118.450789 C40.5655877,118.450789 0.656634849,109.349474 0.656634849,98.1218421 C0.656634849,86.8942105 40.5655877,77.7928947 89.7948156,77.7928947 C139.024044,77.7928947 178.932996,86.8942105 178.932996,98.1218421" id="Fill-5" fill="#0091DA"></path>
                                    <path d="M178.932996,98.1218421 C178.932996,109.349474 139.024044,118.450789 89.7948156,118.450789 C40.5655877,118.450789 0.656634849,109.349474 0.656634849,98.1218421 C0.656634849,86.8942105 40.5655877,77.7928947 89.7948156,77.7928947 C139.024044,77.7928947 178.932996,86.8942105 178.932996,98.1218421 L178.932996,98.1218421 L178.932996,98.1218421 Z" id="Stroke-7" stroke="#FFFFFF" stroke-width="3"></path>
                                    <path d="M43.5058673,116.448158 L43.5058673,46.2915789 C43.5058673,21.1928947 64.0020674,0.657368421 89.0526869,0.657368421 C114.103306,0.657368421 134.599507,21.1928947 134.599507,46.2915789 L134.599507,116.448158 C134.599507,116.448158 127.278028,118.753421 89.0290481,118.753421 C52.7499727,118.753421 43.5058673,116.448158 43.5058673,116.448158" id="Fill-9" fill="#0091DA"></path>
                                    <path d="M43.5058673,116.448158 L43.5058673,46.2915789 C43.5058673,21.1928947 64.0020674,0.657368421 89.0526869,0.657368421 C114.103306,0.657368421 134.599507,21.1928947 134.599507,46.2915789 L134.599507,116.448158 C134.599507,116.448158 127.278028,118.753421 89.0290481,118.753421 C52.7499727,118.753421 43.5058673,116.448158 43.5058673,116.448158 L43.5058673,116.448158 L43.5058673,116.448158 Z" id="Stroke-11" stroke="#FFFFFF" stroke-width="3"></path>
                                    <path d="M50.5577316,111.677632 C50.5577316,118.672368 44.8988524,124.342105 37.9175107,124.342105 C30.936169,124.342105 25.2772899,118.672368 25.2772899,111.677632 C25.2772899,104.682895 30.936169,99.0131579 37.9175107,99.0131579 C44.8988524,99.0131579 50.5577316,104.682895 50.5577316,111.677632" id="Fill-13" fill="#0091DA"></path>
                                    <path d="M50.5577316,111.677632 C50.5577316,118.672368 44.8988524,124.342105 37.9175107,124.342105 C30.936169,124.342105 25.2772899,118.672368 25.2772899,111.677632 C25.2772899,104.682895 30.936169,99.0131579 37.9175107,99.0131579 C44.8988524,99.0131579 50.5577316,104.682895 50.5577316,111.677632 L50.5577316,111.677632 L50.5577316,111.677632 Z" id="Stroke-15" stroke="#FFFFFF" stroke-width="3"></path>
                                    <path d="M153.656495,111.677632 C153.656495,118.672368 147.997615,124.342105 141.016274,124.342105 C134.034932,124.342105 128.376053,118.672368 128.376053,111.677632 C128.376053,104.682895 134.034932,99.0131579 141.016274,99.0131579 C147.997615,99.0131579 153.656495,104.682895 153.656495,111.677632" id="Fill-17" fill="#0091DA"></path>
                                    <path d="M153.656495,111.677632 C153.656495,118.672368 147.997615,124.342105 141.016274,124.342105 C134.034932,124.342105 128.376053,118.672368 128.376053,111.677632 C128.376053,104.682895 134.034932,99.0131579 141.016274,99.0131579 C147.997615,99.0131579 153.656495,104.682895 153.656495,111.677632 L153.656495,111.677632 L153.656495,111.677632 Z" id="Stroke-19" stroke="#FFFFFF" stroke-width="3"></path>
                                    <polygon id="Fill-21" fill="#0091DA" points="36.7715516 59.75 44.3819495 52.2434211 134.459118 52.2434211 141.951322 59.75"></polygon>
                                    <polygon id="Stroke-23" stroke="#FFFFFF" stroke-width="3" points="36.7715516 59.75 44.3819495 52.2434211 134.459118 52.2434211 141.951322 59.75"></polygon>
                                    <path d="M101.392038,25.7327632 C101.392038,32.4314474 95.9721737,37.8630263 89.2850043,37.8630263 C82.5991483,37.8630263 77.1792843,32.4314474 77.1792843,25.7327632 C77.1792843,19.0340789 82.5991483,13.6025 89.2850043,13.6025 C95.9721737,13.6025 101.392038,19.0340789 101.392038,25.7327632" id="Fill-25" fill="#0091DA"></path>
                                    <path d="M101.392038,25.7327632 C101.392038,32.4314474 95.9721737,37.8630263 89.2850043,37.8630263 C82.5991483,37.8630263 77.1792843,32.4314474 77.1792843,25.7327632 C77.1792843,19.0340789 82.5991483,13.6025 89.2850043,13.6025 C95.9721737,13.6025 101.392038,19.0340789 101.392038,25.7327632 L101.392038,25.7327632 L101.392038,25.7327632 Z" id="Stroke-27" stroke="#FFFFFF" stroke-width="3"></path>
                                    <path d="M94.6761078,23.2692105 C93.8763265,23.2692105 93.2275713,22.6192105 93.2275713,21.8178947 C93.2275713,21.0165789 93.8763265,20.3665789 94.6761078,20.3665789 C95.475889,20.3665789 96.1246443,21.0165789 96.1246443,21.8178947 C96.1246443,22.6192105 95.475889,23.2692105 94.6761078,23.2692105" id="Fill-29" fill="#FFFFFF"></path>
                                    <path d="M68.5128862,75.1613158 C68.5128862,77.6139474 66.5285357,79.6021053 64.080601,79.6021053 C61.6326662,79.6021053 59.6483157,77.6139474 59.6483157,75.1613158 C59.6483157,72.7086842 61.6326662,70.7205263 64.080601,70.7205263 C66.5285357,70.7205263 68.5128862,72.7086842 68.5128862,75.1613158" id="Fill-31" fill="#FFFFFF"></path>
                                    <path d="M118.447077,75.1613158 C118.447077,77.6139474 116.462727,79.6021053 114.014792,79.6021053 C111.566857,79.6021053 109.582507,77.6139474 109.582507,75.1613158 C109.582507,72.7086842 111.566857,70.7205263 114.014792,70.7205263 C116.462727,70.7205263 118.447077,72.7086842 118.447077,75.1613158" id="Fill-33" fill="#FFFFFF"></path>
                                    <path d="M94.960562,87.1663158 L83.1437613,87.1663158" id="Stroke-35" stroke="#FFFFFF" stroke-width="3"></path>
                                </g>
                            </g>
                        </g>
                    </g>
                </g>
            </g>
        </g>
    </g>
</svg>