<?xml version="1.0" encoding="UTF-8" standalone="no"?>
<svg width="180px" height="193px" viewBox="0 0 180 193" version="1.1" xmlns="http://www.w3.org/2000/svg" xmlns:xlink="http://www.w3.org/1999/xlink">
    <!-- Generator: Sketch 39.1 (31720) - http://www.bohemiancoding.com/sketch -->
    <title>Page 1</title>
    <desc>Created with Sketch.</desc>
    <defs></defs>
    <g id="Page-1" stroke="none" stroke-width="1" fill="none" fill-rule="evenodd">
        <g id="01escritorio_09unsubscribe_01" transform="translate(-593.000000, -131.000000)">
            <g id="paño1" transform="translate(0.000000, 75.000000)">
                <g id="mask">
                    <g id="Page-1" transform="translate(593.000000, 56.000000)">
                        <path d="M174.502335,74.2447985 L175.318837,74.2447985 L90.1610418,28.7787148 L4.90058555,74.2447985 L5.18324715,74.2447985 C2.20742966,74.922365 0.000205323194,77.3691331 0.000205323194,80.2929354 L0.000205323194,175.801072 C0.000205323194,179.248449 3.06431179,182.042213 6.84431179,182.042213 L172.84127,182.042213 C176.62127,182.042213 179.685376,179.248449 179.685376,175.801072 L179.685376,80.2929354 C179.685376,77.3691331 177.478152,74.922365 174.502335,74.2447985" id="Fill-1" fill="#1889C4"></path>
                        <polygon id="Fill-4" fill="#0BADFF" points="21.78 133.266388 157.804563 133.266388 157.804563 0 21.78 0"></polygon>
                        <path d="M21.78,133.266388 L157.804563,133.266388 L157.804563,0 L21.78,0 L21.78,133.266388 Z M25.8864639,129.159924 L153.698099,129.159924 L153.698099,4.10646388 L25.8864639,4.10646388 L25.8864639,129.159924 Z" id="Fill-6" fill="#FFFFFF"></path>
                        <path d="M172.84127,192.480913 L6.84431179,192.480913 C3.06431179,192.480913 0.000205323194,189.416806 0.000205323194,185.636806 L0.000205323194,80.8959696 C0.000205323194,77.1159696 3.06431179,74.0518631 6.84431179,74.0518631 L89.7921445,119.517947 L172.84127,74.0518631 C176.62127,74.0518631 179.685376,77.1159696 179.685376,80.8959696 L179.685376,185.636806 C179.685376,189.416806 176.62127,192.480913 172.84127,192.480913" id="Fill-7" fill="#FFFFFF"></path>
                        <path d="M172.84127,74.0518631 L89.7921445,119.517947 L6.84431179,74.0518631 C3.06431179,74.0518631 0.000205323194,77.1159696 0.000205323194,80.8959696 L0.000205323194,185.636806 C0.000205323194,189.416806 3.06431179,192.480913 6.84431179,192.480913 L172.84127,192.480913 C176.62127,192.480913 179.685376,189.416806 179.685376,185.636806 L179.685376,80.8959696 C179.685376,77.1159696 176.62127,74.0518631 172.84127,74.0518631 M173.661878,78.2842586 C174.771992,78.633308 175.578913,79.6722433 175.578913,80.8959696 L175.578913,185.636806 C175.578913,187.146616 174.35108,188.374449 172.84127,188.374449 L6.84431179,188.374449 C5.3345019,188.374449 4.1066692,187.146616 4.1066692,185.636806 L4.1066692,80.8959696 C4.1066692,79.6729278 4.91290494,78.6339924 6.0223346,78.2842586 L87.8183042,123.118631 L89.7914601,124.2 L91.7639316,123.12 L173.661878,78.2842586" id="Fill-8" fill="#0BADFF"></path>
                        <path d="M129.881019,56.2309734 L49.7036806,56.2309734 C48.5689278,56.2309734 47.6504487,55.3118099 47.6504487,54.1777414 C47.6504487,53.043673 48.5689278,52.1245095 49.7036806,52.1245095 L129.881019,52.1245095 C131.015087,52.1245095 131.934251,53.043673 131.934251,54.1777414 C131.934251,55.3118099 131.015087,56.2309734 129.881019,56.2309734" id="Fill-9" fill="#FFFFFF"></path>
                        <path d="M129.881019,83.3427376 L49.7036806,83.3427376 C48.5689278,83.3427376 47.6504487,82.4235741 47.6504487,81.2895057 C47.6504487,80.1554373 48.5689278,79.2362738 49.7036806,79.2362738 L129.881019,79.2362738 C131.015087,79.2362738 131.934251,80.1554373 131.934251,81.2895057 C131.934251,82.4235741 131.015087,83.3427376 129.881019,83.3427376" id="Fill-10" fill="#FFFFFF"></path>
                        <path d="M129.881019,28.7221825 L49.7036806,28.7221825 C48.5689278,28.7221825 47.6504487,27.803019 47.6504487,26.6689506 C47.6504487,25.5348821 48.5689278,24.6157186 49.7036806,24.6157186 L129.881019,24.6157186 C131.015087,24.6157186 131.934251,25.5348821 131.934251,26.6689506 C131.934251,27.803019 131.015087,28.7221825 129.881019,28.7221825" id="Fill-11" fill="#FFFFFF"></path>
                        <path d="M100.058304,167.23581 L79.5259848,167.23581 C78.3919163,167.23581 77.4727529,166.316646 77.4727529,165.182578 C77.4727529,164.04851 78.3919163,163.129346 79.5259848,163.129346 L100.058304,163.129346 C101.192373,163.129346 102.111536,164.04851 102.111536,165.182578 C102.111536,166.316646 101.192373,167.23581 100.058304,167.23581" id="Fill-12" fill="#0BADFF"></path>
                        <path d="M105.270776,136.756266 C105.270776,140.499992 108.316403,143.54562 112.060129,143.54562 C115.803856,143.54562 118.849483,140.499992 118.849483,136.756266 C118.849483,135.622198 119.769331,134.703034 120.902715,134.703034 C122.036783,134.703034 122.955947,135.622198 122.955947,136.756266 C122.955947,142.764023 118.067886,147.652084 112.060129,147.652084 C106.052373,147.652084 101.164312,142.764023 101.164312,136.756266 C101.164312,135.622198 102.083475,134.703034 103.217544,134.703034 C104.351612,134.703034 105.270776,135.622198 105.270776,136.756266 Z" id="Fill-13" fill="#0BADFF"></path>
                        <path d="M58.6813688,134.703034 C59.8154373,134.703034 60.7346008,135.622198 60.7346008,136.756266 C60.7346008,140.499992 63.7802281,143.54562 67.5239544,143.54562 C71.2676806,143.54562 74.313308,140.499992 74.313308,136.756266 C74.313308,135.622198 75.2331559,134.703034 76.3665399,134.703034 C77.5006084,134.703034 78.4197719,135.622198 78.4197719,136.756266 C78.4197719,142.764023 73.531711,147.652084 67.5239544,147.652084 C61.5161977,147.652084 56.6281369,142.764023 56.6281369,136.756266 C56.6281369,135.622198 57.5473004,134.703034 58.6813688,134.703034" id="Fill-14" fill="#0BADFF"></path>
                    </g>
                </g>
            </g>
        </g>
    </g>
</svg>