<?xml version="1.0" encoding="UTF-8" standalone="no"?>
<svg width="32px" height="32px" viewBox="0 0 32 32" version="1.1" xmlns="http://www.w3.org/2000/svg" xmlns:xlink="http://www.w3.org/1999/xlink">
    <!-- Generator: Sketch 42 (36781) - http://www.bohemiancoding.com/sketch -->
    <title>icon_026</title>
    <desc>Created with Sketch.</desc>
    <defs></defs>
    <g id="Page-1" stroke="none" stroke-width="1" fill="none" fill-rule="evenodd">
        <g id="icon_026">
            <rect id="container" x="0" y="0" width="32" height="32"></rect>
            <path d="M29.822021,18.2092517 C29.822021,17.7561262 29.3203463,17.6428448 28.9643191,17.6428448 L11.3571552,17.6428448 C10.4994533,17.6428448 9.36663944,18.1768856 8.81641557,18.8403909 L4.0585974,24.7148398 C3.9129499,24.9090365 3.76730241,25.1194162 3.76730241,25.362162 C3.76730241,25.8152876 4.26897711,25.928569 4.62500432,25.928569 L22.2321682,25.928569 C23.0898701,25.928569 24.2226839,25.3945281 24.7729078,24.7148398 L29.530726,18.8403909 C29.6763735,18.6623773 29.822021,18.4519975 29.822021,18.2092517 Z M11.3571552,15.5714138 L23.7857414,15.5714138 L23.7857414,12.982125 C23.7857414,12.124423 23.0898701,11.4285517 22.2321682,11.4285517 L12.9107285,11.4285517 C12.0530266,11.4285517 11.3571552,10.7326803 11.3571552,9.87497839 L11.3571552,8.83926287 C11.3571552,7.98156096 10.6612838,7.28568959 9.80358192,7.28568959 L4.62500432,7.28568959 C3.76730241,7.28568959 3.07143104,7.98156096 3.07143104,8.83926287 L3.07143104,22.6434088 L7.21429312,17.5457465 C8.15291031,16.3967496 9.8844972,15.5714138 11.3571552,15.5714138 Z M31.893452,18.2092517 C31.893452,18.9213061 31.585974,19.6009945 31.1490315,20.1512183 L26.3750302,26.0256673 C25.4525961,27.1584811 23.6886431,28 22.2321682,28 L4.62500432,28 C2.63448856,28 1,26.3655114 1,24.3749957 L1,8.83926287 C1,6.84874711 2.63448856,5.21425855 4.62500432,5.21425855 L9.80358192,5.21425855 C11.7940977,5.21425855 13.4285862,6.84874711 13.4285862,8.83926287 L13.4285862,9.35712063 L22.2321682,9.35712063 C24.2226839,9.35712063 25.8571725,10.9916092 25.8571725,12.982125 L25.8571725,15.5714138 L28.9643191,15.5714138 C30.0647668,15.5714138 31.1652145,16.0730885 31.6507062,17.108804 C31.8125367,17.4486481 31.893452,17.8208584 31.893452,18.2092517 Z" id="folder-open-o---FontAwesome" fill="#000000"></path>
        </g>
    </g>
</svg>