<?xml version="1.0" encoding="UTF-8" standalone="no"?>
<svg width="32px" height="32px" viewBox="0 0 32 32" version="1.1" xmlns="http://www.w3.org/2000/svg" xmlns:xlink="http://www.w3.org/1999/xlink">
    <!-- Generator: Sketch 42 (36781) - http://www.bohemiancoding.com/sketch -->
    <title>icon_028</title>
    <desc>Created with Sketch.</desc>
    <defs></defs>
    <g id="Page-1" stroke="none" stroke-width="1" fill="none" fill-rule="evenodd">
        <g id="icon_028">
            <rect id="container" x="0" y="0" width="32" height="32"></rect>
            <path d="M29.125,6.47070312 C29.632815,6.47070312 30.0722638,6.65624814 30.4433594,7.02734375 C30.814455,7.39843936 31,7.83788809 31,8.34570312 L31,28.0332031 C31,28.5410182 30.814455,28.9804669 30.4433594,29.3515625 C30.0722638,29.7226581 29.632815,29.9082031 29.125,29.9082031 L2.875,29.9082031 C2.36718496,29.9082031 1.92773623,29.7226581 1.55664062,29.3515625 C1.18554502,28.9804669 1,28.5410182 1,28.0332031 L1,8.34570312 C1,7.83788809 1.18554502,7.39843936 1.55664062,7.02734375 C1.92773623,6.65624814 2.36718496,6.47070312 2.875,6.47070312 L10.375,6.47070312 L10.375,4.65429688 C10.375,3.89257432 10.6484348,3.23340122 11.1953125,2.67675781 C11.7421902,2.1201144 12.4062461,1.84179688 13.1875,1.84179688 L18.8125,1.84179688 C19.5937539,1.84179688 20.2578098,2.1201144 20.8046875,2.67675781 C21.3515652,3.23340122 21.625,3.89257432 21.625,4.65429688 L21.625,6.47070312 L29.125,6.47070312 Z M12.25,4.65429688 L12.25,6.47070312 L19.75,6.47070312 L19.75,4.65429688 C19.75,4.40038936 19.6621103,4.18066499 19.4863281,3.99511719 C19.310546,3.80956938 19.0859389,3.71679688 18.8125,3.71679688 L13.1875,3.71679688 C12.9335925,3.71679688 12.7138681,3.80956938 12.5283203,3.99511719 C12.3427725,4.18066499 12.25,4.40038936 12.25,4.65429688 Z M2.875,8.34570312 L2.875,14.9375 L13.1875,14.9375 L13.1875,13.9707031 C13.1875,13.4628881 13.3681623,13.0234394 13.7294922,12.6523438 C14.0908221,12.2812481 14.5351536,12.0957031 15.0625,12.0957031 L16.9375,12.0957031 C17.445315,12.0957031 17.8847638,12.2812481 18.2558594,12.6523438 C18.626955,13.0234394 18.8125,13.4628881 18.8125,13.9707031 L18.8125,14.9375 L29.125,14.9375 L29.125,8.34570312 L2.875,8.34570312 Z M16.9375,18.6875 L16.9375,13.9707031 L15.0625,13.9707031 L15.0625,18.6875 L16.9375,18.6875 Z M2.875,28.0332031 L29.125,28.0332031 L29.125,16.8125 L18.8125,16.8125 L18.8125,18.6875 C18.8125,19.2148464 18.626955,19.6591779 18.2558594,20.0205078 C17.8847638,20.3818377 17.445315,20.5625 16.9375,20.5625 L15.0625,20.5625 C14.5351536,20.5625 14.0908221,20.3818377 13.7294922,20.0205078 C13.3681623,19.6591779 13.1875,19.2148464 13.1875,18.6875 L13.1875,16.8125 L2.875,16.8125 L2.875,28.0332031 Z" id="briefcase---simple-line-icons" fill="#000000"></path>
        </g>
    </g>
</svg>