<?xml version="1.0" encoding="UTF-8" standalone="no"?>
<svg width="20px" height="20px" viewBox="0 0 20 20" version="1.1" xmlns="http://www.w3.org/2000/svg" xmlns:xlink="http://www.w3.org/1999/xlink">
    <!-- Generator: Sketch 40.1 (33804) - http://www.bohemiancoding.com/sketch -->
    <title>ico calendario</title>
    <desc>Created with Sketch.</desc>
    <defs></defs>
    <g id="Page-1" stroke="none" stroke-width="1" fill="none" fill-rule="evenodd">
        <g id="01escritorio_03academy_09webinars_02detalle_01" transform="translate(-312.000000, -692.000000)" fill="#0BADFF">
            <g id="principal" transform="translate(306.000000, 330.000000)">
                <g id="fecha" transform="translate(6.000000, 352.000000)">
                    <g id="ico-calendario" transform="translate(0.000000, 10.000000)">
                        <polygon id="Fill-1" points="8.75 11.25 11.25 11.25 11.25 8.75 8.75 8.75"></polygon>
                        <polygon id="Fill-2" points="5 11.25 7.5 11.25 7.5 8.75 5 8.75"></polygon>
                        <polygon id="Fill-3" points="12.5 11.25 15 11.25 15 8.75 12.5 8.75"></polygon>
                        <polygon id="Fill-4" points="13.75 2.5 16.25 2.5 16.25 0 13.75 0"></polygon>
                        <path d="M17.5005,-0.00025 L17.5005,3.751 L12.49925,3.751 L12.49925,-0.00025 L7.5005,-0.00025 L7.5005,3.751 L2.49925,3.751 L2.49925,-0.00025 L0.000499999998,-0.00025 L0.000499999998,3.751 L0.000499999998,19.99975 L20.0005,19.99975 L20.0005,-0.00025 L17.5005,-0.00025 Z M2.49925,17.49975 L17.5005,17.49975 L17.5005,6.24975 L2.49925,6.24975 L2.49925,17.49975 Z" id="Fill-5"></path>
                        <polygon id="Fill-6" points="3.75 2.5 6.25125 2.5 6.25125 0 3.75 0"></polygon>
                        <polygon id="Fill-7" points="8.75 15 11.25 15 11.25 12.5 8.75 12.5"></polygon>
                        <polygon id="Fill-8" points="5 15 7.5 15 7.5 12.5 5 12.5"></polygon>
                        <polygon id="Fill-9" points="12.5 15 15 15 15 12.5 12.5 12.5"></polygon>
                    </g>
                </g>
            </g>
        </g>
    </g>
</svg>