<svg width="40" height="64" viewBox="0 0 40 64" xmlns="http://www.w3.org/2000/svg"><title>cohete</title><g id="Page-1" fill-rule="evenodd"><path d="M26 41.838s-.41 4.08-6 4.08-6-4.08-6-4.08l-10 2.04c0-9.48 6-12.242 6-12.242C7.74 14.544 20 5.11 20 5.11s12.26 9.434 10 26.526c0 0 6 2.762 6 12.242l-10-2.04zm8.214-12.21C35.312 12.004 22.96 2.276 22.408 1.854L20 0l-2.408 1.854c-.552.422-12.904 10.15-11.806 27.774C2.988 32.066 0 36.666 0 43.878v4.978l4.784-.976 7.004-1.43C13.286 48.358 15.858 50 20 50c4.142 0 6.714-1.642 8.212-3.55l7.004 1.43 4.784.976v-4.978c0-7.212-2.988-11.812-5.786-14.25zM18 60h4v-8h-4v8zm8 4h4V52h-4v12zm-16 0h4V52h-4v12zm10-48.99c-3.308 0-6 2.692-6 6s2.692 6 6 6 6-2.692 6-6-2.692-6-6-6zm0 8a2 2 0 1 1 0-4 2 2 0 0 1 0 4z" id="cohete"/></g></svg>