<svg width="64" height="44" viewBox="0 0 64 44" xmlns="http://www.w3.org/2000/svg"><title>comillas</title><g id="Page-1" fill-rule="evenodd"><path d="M64 32.19c0-2.316-.812-4.516-2.435-6.6-1.623-2.085-3.98-3.127-7.072-3.127-1.237 0-2.512.193-3.826.58-1.314.385-2.667 1.118-4.058 2.2-.93-1.39-1.393-3.63-1.393-6.717 0-4.94 1.392-8.607 4.174-11 2.784-2.393 6.88-4.13 12.29-5.21V0c-3.71 0-7.303.58-10.78 1.737-3.48 1.158-6.494 2.856-9.045 5.095-2.55 2.238-4.6 4.9-6.145 7.99-1.546 3.087-2.32 6.56-2.32 10.42 0 5.095 1.547 9.495 4.64 13.2C41.12 42.147 45.294 44 50.55 44c3.556 0 6.687-1.003 9.392-3.01C62.647 38.98 64 36.05 64 32.19zm-33.39 0c0-2.316-.813-4.516-2.436-6.6-1.623-2.085-3.98-3.127-7.073-3.127-1.235 0-2.51.193-3.825.58-1.314.385-2.666 1.118-4.058 2.2-.927-1.39-1.39-3.63-1.39-6.717 0-4.94 1.39-8.607 4.173-11 2.783-2.393 6.88-4.13 12.29-5.21V0c-3.71 0-7.304.58-10.783 1.737-3.478 1.158-6.492 2.856-9.043 5.095-2.55 2.238-4.6 4.9-6.145 7.99C.772 17.908 0 21.38 0 25.24c0 5.095 1.546 9.495 4.638 13.2C7.728 42.147 11.903 44 17.158 44c3.557 0 6.687-1.003 9.393-3.01 2.706-2.008 4.06-4.94 4.06-8.8z" id="comillas"/></g></svg>