<svg width="39" height="64" viewBox="0 0 39 64" xmlns="http://www.w3.org/2000/svg"><title>doc</title><g id="Page-1" fill-rule="evenodd"><path d="M34.125 19.692v24.616c0 8.142-6.562 14.77-14.625 14.77-8.063 0-14.625-6.628-14.625-14.77v-29.54c0-5.43 4.373-9.845 9.75-9.845s9.75 4.416 9.75 9.846v22.153c0 2.715-2.186 4.923-4.875 4.923-2.69 0-4.875-2.208-4.875-4.923V17.23H9.75v19.693c0 5.438 4.366 9.846 9.75 9.846s9.75-4.41 9.75-9.847V14.77C29.25 6.61 22.703 0 14.625 0S0 6.612 0 14.77v29.538C0 55.183 8.73 64 19.5 64S39 55.183 39 44.308V19.692h-4.875z" id="doc"/></g></svg>