<svg width="64" height="64" viewBox="0 0 64 64" xmlns="http://www.w3.org/2000/svg"><title>error</title><g id="Page-1" fill-rule="evenodd"><path d="M9.143 32c0-4.65 1.412-8.97 3.808-12.585L44.586 51.05C40.97 53.444 36.65 54.856 32 54.856 19.397 54.857 9.143 44.603 9.143 32m45.714 0c0 4.65-1.412 8.97-3.808 12.585L19.414 12.95C23.03 10.556 27.35 9.144 32 9.144c12.603 0 22.857 10.254 22.857 22.857M32 0C14.327 0 0 14.327 0 32c0 17.673 14.327 32 32 32 17.673 0 32-14.327 32-32C64 14.327 49.673 0 32 0" id="error"/></g></svg>