<svg width="30" height="20" viewBox="0 0 30 20" xmlns="http://www.w3.org/2000/svg"><title>icon_eye</title><g id="Page-1" fill="none" fill-rule="evenodd"><g id="01escritorio_03academy_04articulo" fill="#CCC"><g id="paño1"><g id="principal"><g id="visualizaciones"><g id="icon_eye"><path d="M15 18c-5.58 0-10.586-5.567-12.507-8C4.415 7.566 9.42 2 15 2s10.586 5.567 12.507 8C25.585 12.434 20.58 18 15 18m0-18C6.716 0 0 10 0 10s6.716 10 15 10c8.284 0 15-10 15-10S23.284 0 15 0zm0 6c-2.206 0-4 1.794-4 4s1.794 4 4 4 4-1.794 4-4-1.794-4-4-4zm0 6a2 2 0 1 1 0-4 2 2 0 0 1 0 4z" id="Fill-2"/></g></g></g></g></g></g></svg>