<svg width="64" height="64" viewBox="0 0 64 64" xmlns="http://www.w3.org/2000/svg"><title>facebook</title><g id="Page-1" fill-rule="evenodd"><path d="M63.29 59.835a3.453 3.453 0 0 1-3.455 3.454H43.89V39.054h8.133l1.22-9.444h-9.354v-6.028c0-2.734.76-4.6 4.68-4.6h5v-8.447c-.865-.116-3.833-.374-7.286-.374-7.21 0-12.147 4.403-12.147 12.486v6.965h-8.155v9.445h8.155V63.29H4.165A3.453 3.453 0 0 1 .71 59.834V4.165A3.453 3.453 0 0 1 4.166.71h55.67a3.453 3.453 0 0 1 3.454 3.455v55.67" id="facebook"/></g></svg>