<svg width="64" height="64" viewBox="0 0 64 64" xmlns="http://www.w3.org/2000/svg"><title>five</title><g id="Page-1" fill-rule="evenodd"><path d="M32 59.733C16.708 59.733 4.267 47.293 4.267 32 4.267 16.708 16.707 4.267 32 4.267c15.292 0 27.733 12.44 27.733 27.733 0 15.292-12.44 27.733-27.733 27.733M32 0C14.327 0 0 14.327 0 32c0 17.673 14.327 32 32 32 17.673 0 32-14.327 32-32C64 14.327 49.673 0 32 0zm-3.26 36.25c.038.802.277 1.4.72 1.79.44.393.994.59 1.656.59.68 0 1.183-.152 1.505-.453.324-.3.558-.603.706-.904.165-.362.276-.748.33-1.16.056-.412.084-.758.084-1.04 0-.42-.042-.828-.124-1.22a3.09 3.09 0 0 0-.415-1.04c-.192-.3-.45-.542-.772-.723-.322-.18-.713-.27-1.174-.27-.662 0-1.173.19-1.532.572-.36.38-.576.803-.65 1.265l-5.302-.06.387-12.264h13.808v4.098h-9.003l-.33 5.124c.146-.282.358-.598.634-.95.276-.35.727-.687 1.353-1.01.404-.22.818-.38 1.242-.48.423-.1.865-.152 1.325-.152.682 0 1.377.12 2.085.362a5.1 5.1 0 0 1 1.92 1.19c.57.553 1.035 1.266 1.394 2.14.36.873.54 1.943.54 3.21 0 .32-.024.717-.07 1.19a8.915 8.915 0 0 1-.29 1.505 8.627 8.627 0 0 1-.635 1.61 5.97 5.97 0 0 1-1.104 1.508 5.974 5.974 0 0 1-1.353 1.024 7.07 7.07 0 0 1-1.464.603c-.498.14-.99.236-1.478.286-.488.052-.935.077-1.34.077-.386 0-.865-.025-1.436-.076-.57-.05-1.16-.16-1.767-.33a9.116 9.116 0 0 1-1.796-.723 5.186 5.186 0 0 1-1.547-1.25 4.65 4.65 0 0 1-.773-1.116 5.955 5.955 0 0 1-.414-1.114 5.406 5.406 0 0 1-.166-1.01 13.83 13.83 0 0 1-.027-.797h5.274z" id="five"/></g></svg>