<svg width="64" height="64" viewBox="0 0 64 64" xmlns="http://www.w3.org/2000/svg"><title>four</title><g id="Page-1" fill-rule="evenodd"><path d="M32 59.733C16.708 59.733 4.267 47.293 4.267 32 4.267 16.708 16.707 4.267 32 4.267c15.292 0 27.733 12.44 27.733 27.733 0 15.292-12.44 27.733-27.733 27.733M32 0C14.327 0 0 14.327 0 32c0 17.673 14.327 32 32 32 17.673 0 32-14.327 32-32C64 14.327 49.673 0 32 0zm.585 42.667h4.9v-4.224h3.048v-3.887h-3.048V21.333h-6.043l-7.975 12.12v4.99h9.118v4.224zm-5.607-8.11l5.69-8.724v8.723h-5.69z" id="four"/></g></svg>