<?xml version="1.0" encoding="UTF-8" standalone="no"?>
<svg width="32px" height="32px" viewBox="0 0 32 32" version="1.1" xmlns="http://www.w3.org/2000/svg" xmlns:xlink="http://www.w3.org/1999/xlink">
    <!-- Generator: Sketch 42 (36781) - http://www.bohemiancoding.com/sketch -->
    <title>icon_029</title>
    <desc>Created with Sketch.</desc>
    <defs></defs>
    <g id="Page-1" stroke="none" stroke-width="1" fill="none" fill-rule="evenodd">
        <g id="icon_029">
            <rect id="container" x="0" y="0" width="32" height="32"></rect>
            <g id="Group-2" transform="translate(-5.000000, 1.000000)" fill="#000000">
                <path d="M15,21 C11.1340068,21 8,17.8659932 8,14 C8,10.1340068 11.1340068,7 15,7 C18.8659932,7 22,10.1340068 22,14 C22,17.8659932 18.8659932,21 15,21 Z M15,19 C17.7614237,19 20,16.7614237 20,14 C20,11.2385763 17.7614237,9 15,9 C12.2385763,9 10,11.2385763 10,14 C10,16.7614237 12.2385763,19 15,19 Z" id="Oval-10" fill-rule="nonzero"></path>
                <rect id="Rectangle" x="14" y="5" width="2" height="3"></rect>
                <rect id="Rectangle-Copy" x="21" y="13" width="3" height="2"></rect>
                <rect id="Rectangle-Copy-2" x="14" y="20" width="2" height="3"></rect>
                <rect id="Rectangle-Copy-3" x="6" y="13" width="3" height="2"></rect>
                <g id="Group" transform="translate(14.292893, 14.000000) rotate(45.000000) translate(-14.292893, -14.000000) translate(4.792893, 4.500000)">
                    <rect id="Rectangle-Copy-7" transform="translate(10.000000, 1.500000) rotate(90.000000) translate(-10.000000, -1.500000) " x="8.5" y="0.5" width="3" height="2"></rect>
                    <rect id="Rectangle-Copy-6" transform="translate(17.500000, 9.000000) rotate(90.000000) translate(-17.500000, -9.000000) " x="16.5" y="7.5" width="2" height="3"></rect>
                    <rect id="Rectangle-Copy-5" transform="translate(10.500755, 16.999245) rotate(90.000000) translate(-10.500755, -16.999245) " x="9.0007551" y="15.9992449" width="3" height="2"></rect>
                    <rect id="Rectangle-Copy-4" transform="translate(2.358704, 9.000000) rotate(90.000000) translate(-2.358704, -9.000000) " x="1.35870398" y="7.5" width="2" height="3"></rect>
                </g>
            </g>
            <g id="Group-2-Copy" transform="translate(12.000000, 14.000000)" fill="#000000">
                <path d="M10.1785714,14.5714286 C7.37769877,14.5714286 5.10714286,12.3008727 5.10714286,9.5 C5.10714286,6.69912734 7.37769877,4.42857143 10.1785714,4.42857143 C12.9794441,4.42857143 15.25,6.69912734 15.25,9.5 C15.25,12.3008727 12.9794441,14.5714286 10.1785714,14.5714286 Z M10.1785714,12.5714286 C11.8748746,12.5714286 13.25,11.1963032 13.25,9.5 C13.25,7.80369684 11.8748746,6.42857143 10.1785714,6.42857143 C8.48226827,6.42857143 7.10714286,7.80369684 7.10714286,9.5 C7.10714286,11.1963032 8.48226827,12.5714286 10.1785714,12.5714286 Z" id="Oval-10" fill-rule="nonzero"></path>
                <rect id="Rectangle" x="9.5" y="3.39285714" width="1.35714286" height="2.03571429"></rect>
                <rect id="Rectangle-Copy" x="14.25" y="8.82142857" width="2.03571429" height="1.35714286"></rect>
                <rect id="Rectangle-Copy-2" x="9.5" y="13.5714286" width="1.35714286" height="2.03571429"></rect>
                <rect id="Rectangle-Copy-3" x="4.07142857" y="8.82142857" width="2.03571429" height="1.35714286"></rect>
                <g id="Group" transform="translate(9.698749, 9.575761) rotate(45.000000) translate(-9.698749, -9.575761) translate(3.198749, 3.075761)">
                    <rect id="Rectangle-Copy-7" transform="translate(6.785714, 1.017857) rotate(90.000000) translate(-6.785714, -1.017857) " x="5.76785714" y="0.339285714" width="2.03571429" height="1.35714286"></rect>
                    <rect id="Rectangle-Copy-6" transform="translate(11.875000, 6.107143) rotate(90.000000) translate(-11.875000, -6.107143) " x="11.1964286" y="5.08928571" width="1.35714286" height="2.03571429"></rect>
                    <rect id="Rectangle-Copy-5" transform="translate(7.125512, 11.535202) rotate(90.000000) translate(-7.125512, -11.535202) " x="6.10765525" y="10.8566305" width="2.03571429" height="1.35714286"></rect>
                    <rect id="Rectangle-Copy-4" transform="translate(1.600549, 6.107143) rotate(90.000000) translate(-1.600549, -6.107143) " x="0.921977701" y="5.08928571" width="1.35714286" height="2.03571429"></rect>
                </g>
            </g>
            <g id="Group-2-Copy-2" transform="translate(23.500000, 8.500000) rotate(-330.000000) translate(-23.500000, -8.500000) translate(14.000000, -1.000000)" fill="#000000">
                <path d="M10.1785714,14.5714286 C7.37769877,14.5714286 5.10714286,12.3008727 5.10714286,9.5 C5.10714286,6.69912734 7.37769877,4.42857143 10.1785714,4.42857143 C12.9794441,4.42857143 15.25,6.69912734 15.25,9.5 C15.25,12.3008727 12.9794441,14.5714286 10.1785714,14.5714286 Z M10.1785714,12.5714286 C11.8748746,12.5714286 13.25,11.1963032 13.25,9.5 C13.25,7.80369684 11.8748746,6.42857143 10.1785714,6.42857143 C8.48226827,6.42857143 7.10714286,7.80369684 7.10714286,9.5 C7.10714286,11.1963032 8.48226827,12.5714286 10.1785714,12.5714286 Z" id="Oval-10" fill-rule="nonzero"></path>
                <rect id="Rectangle" x="9.5" y="3.39285714" width="1.35714286" height="2.03571429"></rect>
                <rect id="Rectangle-Copy" x="14.25" y="8.82142857" width="2.03571429" height="1.35714286"></rect>
                <rect id="Rectangle-Copy-2" x="9.5" y="13.5714286" width="1.35714286" height="2.03571429"></rect>
                <rect id="Rectangle-Copy-3" x="4.07142857" y="8.82142857" width="2.03571429" height="1.35714286"></rect>
                <g id="Group" transform="translate(9.698749, 9.575761) rotate(45.000000) translate(-9.698749, -9.575761) translate(3.198749, 3.075761)">
                    <rect id="Rectangle-Copy-7" transform="translate(6.785714, 1.017857) rotate(90.000000) translate(-6.785714, -1.017857) " x="5.76785714" y="0.339285714" width="2.03571429" height="1.35714286"></rect>
                    <rect id="Rectangle-Copy-6" transform="translate(11.875000, 6.107143) rotate(90.000000) translate(-11.875000, -6.107143) " x="11.1964286" y="5.08928571" width="1.35714286" height="2.03571429"></rect>
                    <rect id="Rectangle-Copy-5" transform="translate(7.125512, 11.535202) rotate(90.000000) translate(-7.125512, -11.535202) " x="6.10765525" y="10.8566305" width="2.03571429" height="1.35714286"></rect>
                    <rect id="Rectangle-Copy-4" transform="translate(1.600549, 6.107143) rotate(90.000000) translate(-1.600549, -6.107143) " x="0.921977701" y="5.08928571" width="1.35714286" height="2.03571429"></rect>
                </g>
            </g>
        </g>
    </g>
</svg>