<svg width="24" height="16" viewBox="0 0 24 16" xmlns="http://www.w3.org/2000/svg"><title>icon_facebook</title><g id="Page-1" fill-rule="evenodd"><g id="01escritorio_03academy_08valoracion02"><g id="cuerpo-articulo"><g id="cierre"><g id="rrss"><g id="Group"><g id="icon_facebook"><path d="M7.623 6.124v3.024s2.928-.004 4.12-.004c-.645 1.96-1.65 3.03-4.12 3.03-2.5 0-4.453-2.032-4.453-4.538C3.17 5.13 5.122 3.1 7.623 3.1c1.322 0 2.176.466 2.96 1.114.626-.628.574-.717 2.17-2.226A7.588 7.588 0 0 0 7.622 0C3.413 0 0 3.42 0 7.636c0 4.217 3.413 7.637 7.623 7.637 6.292 0 7.83-5.49 7.32-9.15h-7.32zm13.736.15V3.63H19.47v2.645h-2.717v1.89h2.717v2.723h1.887V8.165H24v-1.89h-2.64z" id="Google+"/></g></g></g></g></g></g></g></svg>