<?xml version="1.0" encoding="UTF-8" standalone="no"?>
<svg width="32px" height="32px" viewBox="0 0 32 32" version="1.1" xmlns="http://www.w3.org/2000/svg" xmlns:xlink="http://www.w3.org/1999/xlink">
    <!-- Generator: Sketch 42 (36781) - http://www.bohemiancoding.com/sketch -->
    <title>icon_005</title>
    <desc>Created with Sketch.</desc>
    <defs>
        <rect id="path-1" x="0" y="2" width="32" height="21" rx="2"></rect>
        <mask id="mask-2" maskContentUnits="userSpaceOnUse" maskUnits="objectBoundingBox" x="0" y="0" width="32" height="21" fill="white">
            <use xlink:href="#path-1"></use>
        </mask>
    </defs>
    <g id="Page-1" stroke="none" stroke-width="1" fill="none" fill-rule="evenodd">
        <g id="icon_005">
            <rect id="container" x="0" y="0" width="32" height="32"></rect>
            <use id="Rectangle-5" stroke="#000000" mask="url(#mask-2)" stroke-width="4" xlink:href="#path-1"></use>
            <polygon id="Line" fill="#000000" fill-rule="nonzero" points="6 26 26.0262976 26 26.0262976 24 6 24"></polygon>
            <rect id="Rectangle-6-Copy" fill="#000000" x="15" y="24" width="2" height="5" rx="1"></rect>
            <rect id="Rectangle-6-Copy-2" fill="#000000" transform="translate(6.800921, 27.869750) rotate(15.000000) translate(-6.800921, -27.869750) " x="5.80092073" y="24.1197496" width="2" height="7.5" rx="1"></rect>
            <rect id="Rectangle-6-Copy-3" fill="#000000" transform="translate(25.022263, 27.869750) scale(-1, 1) rotate(15.000000) translate(-25.022263, -27.869750) " x="24.022263" y="24.1197496" width="2" height="7.5" rx="1"></rect>
            <rect id="Rectangle-6" fill="#000000" x="9" y="13" width="2" height="6"></rect>
            <rect id="Rectangle-6-Copy-4" fill="#000000" x="13" y="7" width="2" height="12"></rect>
            <rect id="Rectangle-6-Copy-5" fill="#000000" x="17" y="11" width="2" height="8"></rect>
            <rect id="Rectangle-6-Copy-6" fill="#000000" x="21" y="9" width="2" height="10"></rect>
        </g>
    </g>
</svg>