<?xml version="1.0" encoding="UTF-8" standalone="no"?>
<svg width="32px" height="32px" viewBox="0 0 32 32" version="1.1" xmlns="http://www.w3.org/2000/svg" xmlns:xlink="http://www.w3.org/1999/xlink">
    <!-- Generator: Sketch 42 (36781) - http://www.bohemiancoding.com/sketch -->
    <title>icon_022</title>
    <desc>Created with Sketch.</desc>
    <defs>
        <path d="M23.3982107,18 C22.4863175,16.2209772 20.6324055,15 18.4937077,15 L13.5062923,15 C10.4649355,15 8,17.4624339 8,20.5 L8,26 L21.5,26 L32,26 L32,22 C32,19.7953562 30.2062268,18 27.9934955,18 L23.3982107,18 Z" id="path-1"></path>
        <mask id="mask-2" maskContentUnits="userSpaceOnUse" maskUnits="objectBoundingBox" x="0" y="0" width="24" height="11" fill="white">
            <use xlink:href="#path-1"></use>
        </mask>
        <path d="M8.6003372,18 L4.00650452,18 C1.79394555,18 0,19.790861 0,22 L0,26 L10.5,26 L24,26 L24,20.5 C24,17.4686147 21.5347489,15 18.4937077,15 L13.5062923,15 C11.3662823,15 9.5116611,16.219162 8.6003372,18 Z" id="path-3"></path>
        <mask id="mask-4" maskContentUnits="userSpaceOnUse" maskUnits="objectBoundingBox" x="0" y="0" width="24" height="11" fill="white">
            <use xlink:href="#path-3"></use>
        </mask>
    </defs>
    <g id="Page-1" stroke="none" stroke-width="1" fill="none" fill-rule="evenodd">
        <g id="icon_022">
            <rect id="container" x="0" y="0" width="32" height="32"></rect>
            <use id="Combined-Shape" stroke="#000000" mask="url(#mask-2)" stroke-width="4" xlink:href="#path-1"></use>
            <use id="Combined-Shape" stroke="#000000" mask="url(#mask-4)" stroke-width="4" xlink:href="#path-3"></use>
            <path d="M25.5,17 C23.5670034,17 22,15.4329966 22,13.5 C22,11.5670034 23.5670034,10 25.5,10 C27.4329966,10 29,11.5670034 29,13.5 C29,15.4329966 27.4329966,17 25.5,17 Z M25.5,15 C26.3284271,15 27,14.3284271 27,13.5 C27,12.6715729 26.3284271,12 25.5,12 C24.6715729,12 24,12.6715729 24,13.5 C24,14.3284271 24.6715729,15 25.5,15 Z" id="Oval-12-Copy" fill="#000000" fill-rule="nonzero"></path>
            <path d="M6.5,17 C4.56700338,17 3,15.4329966 3,13.5 C3,11.5670034 4.56700338,10 6.5,10 C8.43299662,10 10,11.5670034 10,13.5 C10,15.4329966 8.43299662,17 6.5,17 Z M6.5,15 C7.32842712,15 8,14.3284271 8,13.5 C8,12.6715729 7.32842712,12 6.5,12 C5.67157288,12 5,12.6715729 5,13.5 C5,14.3284271 5.67157288,15 6.5,15 Z" id="Oval-12-Copy" fill="#000000" fill-rule="nonzero"></path>
            <path d="M16,15 C13.2385763,15 11,12.7614237 11,10 C11,7.23857625 13.2385763,5 16,5 C18.7614237,5 21,7.23857625 21,10 C21,12.7614237 18.7614237,15 16,15 Z M16,13 C17.6568542,13 19,11.6568542 19,10 C19,8.34314575 17.6568542,7 16,7 C14.3431458,7 13,8.34314575 13,10 C13,11.6568542 14.3431458,13 16,13 Z" id="Oval-12" fill="#000000" fill-rule="nonzero"></path>
        </g>
    </g>
</svg>