<?xml version="1.0" encoding="UTF-8" standalone="no"?>
<svg width="32px" height="32px" viewBox="0 0 32 32" version="1.1" xmlns="http://www.w3.org/2000/svg" xmlns:xlink="http://www.w3.org/1999/xlink">
    <!-- Generator: Sketch 42 (36781) - http://www.bohemiancoding.com/sketch -->
    <title>icon_020</title>
    <desc>Created with Sketch.</desc>
    <defs>
        <rect id="path-1" x="12" y="22" width="8" height="3" rx="1"></rect>
        <mask id="mask-2" maskContentUnits="userSpaceOnUse" maskUnits="objectBoundingBox" x="0" y="0" width="8" height="3" fill="white">
            <use xlink:href="#path-1"></use>
        </mask>
    </defs>
    <g id="Page-1" stroke="none" stroke-width="1" fill="none" fill-rule="evenodd">
        <g id="icon_020">
            <rect id="container" x="0" y="0" width="32" height="32"></rect>
            <use id="Rectangle-13" stroke="#000000" mask="url(#mask-2)" stroke-width="2" fill="#000000" xlink:href="#path-1"></use>
            <path d="M16,22 C19.8659932,22 23,18.8659932 23,15 C23,11.1340068 19.8659932,8 16,8 C12.1340068,8 9,11.1340068 9,15 C9,18.8659932 12.1340068,22 16,22 Z M16,24 C11.0294373,24 7,19.9705627 7,15 C7,10.0294373 11.0294373,6 16,6 C20.9705627,6 25,10.0294373 25,15 C25,19.9705627 20.9705627,24 16,24 Z" id="Oval-8" fill="#000000" fill-rule="nonzero"></path>
            <rect id="Rectangle-14" fill="#000000" x="28" y="14" width="3" height="2"></rect>
            <rect id="Rectangle-14-Copy-3" fill="#000000" transform="translate(5.646447, 4.647767) rotate(45.000000) translate(-5.646447, -4.647767) " x="4.14644661" y="3.64776707" width="3" height="2"></rect>
            <rect id="Rectangle-14-Copy-4" fill="#000000" transform="translate(26.353553, 4.647767) scale(-1, 1) rotate(45.000000) translate(-26.353553, -4.647767) " x="24.8535534" y="3.64776707" width="3" height="2"></rect>
            <rect id="Rectangle-14-Copy-2" fill="#000000" transform="translate(16.000000, 1.500000) rotate(90.000000) translate(-16.000000, -1.500000) " x="14.5" y="0.5" width="3" height="2"></rect>
            <rect id="Rectangle-14-Copy" fill="#000000" x="1" y="14" width="3" height="2"></rect>
            <rect id="Rectangle" fill="#000000" x="12" y="29" width="8" height="2" rx="1"></rect>
            <rect id="Rectangle-Copy" fill="#000000" x="12" y="26" width="8" height="2" rx="1"></rect>
            <g id="Rectangle-2" transform="translate(12.000000, 26.000000)" fill="#000000">
                <rect x="0" y="3" width="8" height="5"></rect>
            </g>
            <rect id="Rectangle-31" fill="#000000" x="12" y="14" width="8" height="2" rx="1"></rect>
            <path d="M12.295793,15.7398163 C12.2946771,15.7387095 12.3404572,15.7960783 12.4205997,15.9244281 C12.583233,16.1848886 12.7534518,16.5405196 12.9177093,17.0038676 C13.4152015,18.4072256 13.7204744,20.3850572 13.7204744,23.0298216 L15.7204744,23.0298216 C15.7204744,20.1677294 15.3805694,17.9655204 14.8027651,16.3356129 C14.4307434,15.28619 14.0276591,14.6406423 13.704207,14.3198269 L12.295793,15.7398163 Z" id="Path-5" fill="#000000" fill-rule="nonzero"></path>
            <path d="M18.0162673,14.3198269 C17.6928153,14.6406423 17.289731,15.28619 16.9177093,16.3356129 C16.339905,17.9655204 16,20.1677294 16,23.0298216 L18,23.0298216 C18,20.3850572 18.3052729,18.4072256 18.8027651,17.0038676 C18.9670226,16.5405196 19.1372414,16.1848886 19.2998747,15.9244281 C19.3800172,15.7960783 19.4257973,15.7387095 19.4246814,15.7398163 L18.0162673,14.3198269 Z" id="Path-5-Copy" fill="#000000" fill-rule="nonzero"></path>
        </g>
    </g>
</svg>