<svg width="64" height="58" viewBox="0 0 64 58" xmlns="http://www.w3.org/2000/svg"><title>linkedin</title><g id="Page-1" fill-rule="evenodd"><path d="M2.29 18.728h12.195v38.914H2.29V18.728zm45.52-.374c-6.988 0-11.366 3.81-12.175 6.48V18.73h-13.7c.175 3.242 0 38.914 0 38.914h13.7V36.585c0-1.172-.055-2.342.298-3.18.942-2.34 2.965-4.77 6.604-4.77 4.758 0 6.92 3.6 6.92 8.87V57.64h13.83V36.004c0-12.052-6.81-17.65-15.478-17.65zM8.16.358C3.66.358.71 3.27.71 7.115c0 3.772 2.864 6.745 7.278 6.745h.088c4.586 0 7.44-2.985 7.44-6.755C15.428 3.263 12.662.358 8.16.358z" id="linkedin"/></g></svg>