<?xml version="1.0" encoding="UTF-8" standalone="no"?>
<svg width="32px" height="32px" viewBox="0 0 32 32" version="1.1" xmlns="http://www.w3.org/2000/svg" xmlns:xlink="http://www.w3.org/1999/xlink">
    <!-- Generator: Sketch 42 (36781) - http://www.bohemiancoding.com/sketch -->
    <title>icon_014</title>
    <desc>Created with Sketch.</desc>
    <defs></defs>
    <g id="Page-1" stroke="none" stroke-width="1" fill="none" fill-rule="evenodd">
        <g id="icon_014">
            <rect id="container" x="0" y="0" width="32" height="32"></rect>
            <path d="M10,3 L10,5 L23,5 L23,3 L28,3 L28,32 L5,32 L5,3 L10,3 Z M7,5 L7,30 L20.1538462,30 L26,24.53125 L26,5 L7,5 Z" id="Combined-Shape" fill="#000000"></path>
            <path d="M20,25 L27,25 L27,23 L18,23 L18,24.5 L18,31 L20,31 L20,25 Z" id="Combined-Shape" fill="#000000" fill-rule="nonzero"></path>
            <polygon id="Page-1" fill="#000000" points="20.3334286 12 15.6674286 15.8175455 13.6667619 14.5454545 12.3334286 15.8175455 15.6674286 19 21.6674286 13.2727273"></polygon>
            <path d="M12,1.9973917 C12,0.894262725 12.8958578,0 13.9973917,0 L19.0026083,0 C20.1057373,0 21,0.895857811 21,1.9973917 L21,7.0026083 C21,8.10573727 20.1041422,9 19.0026083,9 L13.9973917,9 C12.8942627,9 12,8.10414219 12,7.0026083 L12,1.9973917 Z M15,3.5 C15,4.33420277 15.6715729,5 16.5,5 C17.3342028,5 18,4.32842712 18,3.5 C18,2.66579723 17.3284271,2 16.5,2 C15.6657972,2 15,2.67157288 15,3.5 Z" id="Combined-Shape" fill="#000000"></path>
        </g>
    </g>
</svg>