<svg width="64" height="60" viewBox="0 0 64 60" xmlns="http://www.w3.org/2000/svg"><title>notification</title><g id="Page-1" fill-rule="evenodd"><path d="M36.825 54.354C35.9 55.446 34.275 56 32 56c-2.27 0-3.893-.548-4.82-1.628-.567-.66-.903-1.514-1.093-2.372h11.817c-.19.846-.52 1.696-1.078 2.354zM12.83 44.828l1.17-1.17V24.276C14.004 23.61 14.302 8 32 8c17.233 0 17.973 14.628 18 16.25v19.408l1.17 1.17L54.344 48H9.658l3.172-3.172zM64 52L54 42V24.25S53.884 5.254 34 4.06V0h-4v4.06C10.118 5.254 10 24.25 10 24.25V42L0 52h22.033c.516 3.492 2.602 8 9.968 8 7.35 0 9.44-4.508 9.96-8H64z" id="notification"/></g></svg>