<svg width="64" height="64" viewBox="0 0 64 64" xmlns="http://www.w3.org/2000/svg"><title>ok</title><g id="Page-1" fill-rule="evenodd"><path d="M32 59.733C16.708 59.733 4.267 47.293 4.267 32 4.267 16.708 16.707 4.267 32 4.267c15.292 0 27.733 12.44 27.733 27.733 0 15.292-12.44 27.733-27.733 27.733M32 0C14.327 0 0 14.327 0 32c0 17.673 14.327 32 32 32 17.673 0 32-14.327 32-32C64 14.327 49.673 0 32 0zm-4.267 34.133l-6.4-4.266-4.266 4.266L27.733 44.8l19.2-19.2-4.266-4.267-14.934 12.8z" id="ok"/></g></svg>