<svg width="64" height="64" viewBox="0 0 64 64" xmlns="http://www.w3.org/2000/svg"><title>one</title><g id="Page-1" fill-rule="evenodd"><path d="M32 59.733C16.708 59.733 4.267 47.293 4.267 32 4.267 16.708 16.707 4.267 32 4.267c15.292 0 27.733 12.44 27.733 27.733 0 15.292-12.44 27.733-27.733 27.733M32 0C14.327 0 0 14.327 0 32c0 17.673 14.327 32 32 32 17.673 0 32-14.327 32-32C64 14.327 49.673 0 32 0zm-3.374 42.667h5.893V21.333h-4.947c-2.26 1.968-3.664 2.644-6.106 3.412v4.734c1.007-.277 3.54-1.292 5.16-2.644v15.83z" id="one"/></g></svg>