<?xml version="1.0" encoding="UTF-8" standalone="no"?>
<svg width="32px" height="32px" viewBox="0 0 32 32" version="1.1" xmlns="http://www.w3.org/2000/svg" xmlns:xlink="http://www.w3.org/1999/xlink">
    <!-- Generator: Sketch 42 (36781) - http://www.bohemiancoding.com/sketch -->
    <title>icon_002</title>
    <desc>Created with Sketch.</desc>
    <defs></defs>
    <g id="Page-1" stroke="none" stroke-width="1" fill="none" fill-rule="evenodd">
        <g id="icon_002">
            <rect id="container" x="0" y="0" width="32" height="32"></rect>
            <path d="M18,0 L28,10 L28,30 C28,30.5625028 27.8072936,31.0364564 27.421875,31.421875 C27.0364564,31.8072936 26.5625028,32 26,32 L7,32 C6.43749719,32 5.96354359,31.8072936 5.578125,31.421875 C5.19270641,31.0364564 5,30.5625028 5,30 L5,2 C5,1.43749719 5.19270641,0.963543594 5.578125,0.578125 C5.96354359,0.192706406 6.43749719,0 7,0 L18,0 Z M26,10.84375 L17.1875,2 L17,2 L17,11 L26,11 L26,10.84375 Z M7,30 L26,30 L26,13 L15,13 L15,2 L7,2 L7,30 Z" id="Doc---simple-line-icons" fill="#000000" transform="translate(16.500000, 16.000000) scale(1, -1) translate(-16.500000, -16.000000) "></path>
            <path d="M13.2522372,24.9375011 C13.2522372,24.1674109 12.7611652,23.5870531 12.0133964,23.4084814 L13.0736656,22.1249978 L13.0736656,21.1428537 L9.35714328,21.1428537 L9.35714328,22.8392843 L10.5401804,22.8392843 L10.5401804,22.2477658 C10.8973237,22.2477658 11.2656277,22.2254443 11.622771,22.2254443 L11.622771,22.236605 C11.1428597,22.6718734 10.7745557,23.2410705 10.3727695,23.754464 L10.6629484,24.3794647 C11.1205382,24.3459826 11.8348248,24.3794647 11.8348248,25.0044655 C11.8348248,25.4508946 11.4218779,25.640627 11.0312524,25.640627 C10.6071448,25.640627 10.1495549,25.4174124 9.8482153,25.1383942 L9.21205382,26.1205382 C9.71428657,26.622771 10.4285731,26.8571463 11.131699,26.8571463 C12.2924146,26.8571463 13.2522372,26.1651812 13.2522372,24.9375011 Z M13.2745587,15.9397249 L12.1026823,15.9397249 L12.1026823,16.6093686 L10.6852699,16.6093686 C10.718752,15.7388318 13.1406299,15.3705278 13.1406299,13.7187401 C13.1406299,12.6138281 12.2477717,11.9999881 11.2098241,11.9999881 C10.3616088,11.9999881 9.60267929,12.4352565 9.23437528,13.2053467 L10.1830371,13.8638296 C10.3727695,13.5513292 10.6964306,13.2165074 11.0870561,13.2165074 C11.4553601,13.2165074 11.6897353,13.4174005 11.6897353,13.7968652 C11.6897353,14.7343663 9.16741091,15.0468667 9.16741091,17.1116013 C9.16741091,17.3124944 9.2008931,17.5133875 9.23437528,17.7142806 L13.2745587,17.7142806 L13.2745587,15.9397249 Z M13.2857194,8.46650292 L12.0803608,8.46650292 L12.0803608,3.95756897 L10.8973237,3.95756897 L9.37946474,5.37498137 L10.1718764,6.22319667 C10.3839302,6.0334643 10.6071448,5.86605339 10.7299128,5.62051738 L10.7522342,5.62051738 L10.7522342,5.75444611 C10.7522342,6.65846505 10.7410735,7.56248398 10.7410735,8.46650292 L9.54687565,8.46650292 L9.54687565,9.57141495 L13.2857194,9.57141495 L13.2857194,8.46650292 Z M24.141523,14.3147123 C24.141523,14.1138192 24.0363576,13.957569 23.9171702,13.957569 L15.3917637,13.957569 C15.2655653,13.957569 15.1674109,14.1138192 15.1674109,14.3147123 L15.1674109,16.4575719 C15.1674109,16.6473043 15.2655653,16.8147152 15.3917637,16.8147152 L23.9171702,16.8147152 C24.0363576,16.8147152 24.141523,16.6473043 24.141523,16.4575719 L24.141523,14.3147123 Z M24.141523,6.31471225 C24.141523,6.12497988 24.0363576,5.95756897 23.9171702,5.95756897 L15.3917637,5.95756897 C15.2655653,5.95756897 15.1674109,6.12497988 15.1674109,6.31471225 L15.1674109,8.45757195 C15.1674109,8.64730432 15.2655653,8.81471523 15.3917637,8.81471523 L23.9171702,8.81471523 C24.0363576,8.81471523 24.141523,8.64730432 24.141523,8.45757195 L24.141523,6.31471225 Z" id="list-ol---FontAwesome" fill="#000000"></path>
        </g>
    </g>
</svg>