<?xml version="1.0" encoding="UTF-8" standalone="no"?>
<svg width="32px" height="32px" viewBox="0 0 32 32" version="1.1" xmlns="http://www.w3.org/2000/svg" xmlns:xlink="http://www.w3.org/1999/xlink">
    <!-- Generator: Sketch 42 (36781) - http://www.bohemiancoding.com/sketch -->
    <title>icon_004</title>
    <desc>Created with Sketch.</desc>
    <defs></defs>
    <g id="Page-1" stroke="none" stroke-width="1" fill="none" fill-rule="evenodd">
        <g id="icon_004">
            <rect id="container" x="0" y="0" width="32" height="32"></rect>
            <g id="Rectangle-4" transform="translate(10.000000, 21.000000)"></g>
            <g id="Group" transform="translate(10.000000, 21.000000)"></g>
            <path d="M20.4946237,10 C21.2188656,10 21.9328482,10.1366474 22.6365927,10.4099462 C23.3403373,10.6832451 23.9689152,11.0385283 24.5223454,11.4758065 C25.0757756,11.9130846 25.526712,12.4050152 25.875168,12.9516129 C26.2236241,13.4982106 26.3978495,14.0448001 26.3978495,14.5913978 L26.3978495,17.8709677 C26.3978495,18.2672511 26.3568552,18.7250198 26.2748656,19.2442876 C26.1928759,19.7635555 26.0562286,20.2930641 25.8649194,20.8328293 C25.6736102,21.3725945 25.4208125,21.8918546 25.1065188,22.390625 C24.7922251,22.8893954 24.4096125,23.3164185 23.9586694,23.671707 L29.6774194,26.3978495 L30.3230847,26.7565524 C30.7535304,26.9956889 30.96875,27.3065617 30.96875,27.6891801 L30.96875,29.6774194 C30.96875,30.0327079 30.8423512,30.3367483 30.5895497,30.5895497 C30.3367483,30.8423512 30.0327079,30.96875 29.6774194,30.96875 L11.311828,30.96875 C10.9428745,30.96875 10.6320017,30.8423512 10.3792003,30.5895497 C10.1263988,30.3367483 10,30.0327079 10,29.6774194 L10,27.6891801 C10,27.3338916 10.2186358,27.0298512 10.655914,26.7770497 L11.311828,26.3978495 L17.0715726,23.671707 C16.6069645,23.3027535 16.2175195,22.8586495 15.9032258,22.3393817 C15.5889321,21.8201139 15.3327183,21.2906053 15.1345766,20.7508401 C14.9364349,20.2110748 14.7963714,19.6849824 14.7143817,19.172547 C14.6323921,18.6601117 14.5913978,18.2262563 14.5913978,17.8709677 L14.5913978,14.5913978 C14.5913978,14.0448001 14.7622071,13.4982106 15.1038306,12.9516129 C15.4454542,12.4050152 15.8929744,11.9130846 16.4464046,11.4758065 C16.9998348,11.0385283 17.6318289,10.6832451 18.3424059,10.4099462 C19.0529829,10.1366474 19.7703817,10 20.4946237,10 Z" id="user---simple-line-icons" stroke="#000000" stroke-width="2"></path>
            <path d="M20.9999824,10.0189435 C20.9999941,10.0126304 21,10.0063159 21,10 C21,4.4771525 16.5228475,0 11,0 C5.4771525,0 1,4.4771525 1,10 C1,15.5228475 5.4771525,20 11,20 C12.2843924,20 13.5122294,19.7578574 14.6403508,19.3167322 C14.3532429,18.72055 14.154441,18.0738283 14.0609108,17.3935328 C13.1180237,17.7843231 12.0841989,18 11,18 C6.581722,18 3,14.418278 3,10 C3,5.581722 6.581722,2 11,2 C15.418278,2 19,5.581722 19,10 C19,10.0582717 18.999377,10.1163978 18.9981372,10.1743721 C19.4802241,10.060344 19.983065,10 20.5,10 C20.66823,10 20.8349674,10.006391 20.9999824,10.0189435 Z" id="Combined-Shape" fill="#000000"></path>
            <rect id="Rectangle-15" fill="#000000" x="11" y="5" width="2" height="7"></rect>
            <rect id="Rectangle-16" fill="#000000" x="8" y="10" width="5" height="2"></rect>
        </g>
    </g>
</svg>