<?xml version="1.0" encoding="UTF-8" standalone="no"?>
<svg width="32px" height="32px" viewBox="0 0 32 32" version="1.1" xmlns="http://www.w3.org/2000/svg" xmlns:xlink="http://www.w3.org/1999/xlink">
    <!-- Generator: Sketch 42 (36781) - http://www.bohemiancoding.com/sketch -->
    <title>icon_017</title>
    <desc>Created with Sketch.</desc>
    <defs></defs>
    <g id="Page-1" stroke="none" stroke-width="1" fill="none" fill-rule="evenodd">
        <g id="icon_017">
            <rect id="container" x="0" y="0" width="32" height="32"></rect>
            <path d="M16,30.875 C15.7070298,30.875 15.4238295,30.8212896 15.1503906,30.7138672 C14.8769518,30.6064448 14.6328136,30.4453136 14.4179688,30.2304688 L1.64453125,17.4277344 C1.2148416,16.9980447 1,16.475589 1,15.8603516 C1,15.2451141 1.2148416,14.7226584 1.64453125,14.2929688 L6.33203125,9.60546875 C6.46875068,9.46874932 6.63964741,9.38085957 6.84472656,9.34179688 C7.04980571,9.30273418 7.2402335,9.33203076 7.41601562,9.4296875 C7.59179775,9.52734424 7.72851514,9.66894438 7.82617188,9.85449219 C7.92382861,10.04004 7.9531252,10.2304678 7.9140625,10.4257812 C7.8749998,10.5625007 7.85058599,10.6845698 7.84082031,10.7919922 C7.83105464,10.8994146 7.82617188,11.0019526 7.82617188,11.0996094 C7.82617188,12.1347708 8.19237915,13.0234338 8.92480469,13.765625 C9.65723022,14.5078162 10.5312449,14.8789062 11.546875,14.8789062 C12.5820364,14.8789062 13.4365201,14.5078162 14.1103516,13.765625 C14.7841831,13.0234338 15.1210938,12.1347708 15.1210938,11.0996094 C15.1210938,10.0839793 14.7841831,9.2099646 14.1103516,8.47753906 C13.4365201,7.74511353 12.5820364,7.37890625 11.546875,7.37890625 C11.4492183,7.37890625 11.3466802,7.38378901 11.2392578,7.39355469 C11.1318354,7.40332036 11.0097663,7.42773418 10.8730469,7.46679688 C10.6777334,7.50585957 10.4873056,7.47656299 10.3017578,7.37890625 C10.11621,7.28124951 9.97460986,7.14453213 9.87695312,6.96875 C9.79882773,6.79296787 9.77441392,6.60254009 9.80371094,6.39746094 C9.83300796,6.19238179 9.91601494,6.02148506 10.0527344,5.88476562 L14.4179688,1.49023438 C14.8476584,1.08007607 15.3749969,0.875 16,0.875 C16.6250031,0.875 17.1523416,1.08007607 17.5820312,1.49023438 L20.7753906,4.71289062 C21.1074235,3.65819785 21.7226518,2.79394868 22.6210938,2.12011719 C23.5195357,1.44628569 24.5351506,1.109375 25.6679688,1.109375 C27.0937571,1.109375 28.3095653,1.61718242 29.3154297,2.6328125 C30.3212941,3.64844258 30.8242188,4.85936797 30.8242188,6.265625 C30.8242188,7.41797451 30.4873081,8.44335488 29.8134766,9.34179688 C29.1396451,10.2402389 28.2851614,10.8554671 27.25,11.1875 L30.3554688,14.2929688 C30.7851584,14.7226584 31,15.2451141 31,15.8603516 C31,16.475589 30.7851584,16.9980447 30.3554688,17.4277344 L17.5820312,30.2304688 C17.3671864,30.4453136 17.1230482,30.6064448 16.8496094,30.7138672 C16.5761705,30.8212896 16.2929702,30.875 16,30.875 Z M6.12695312,12.4472656 L2.96289063,15.6113281 C2.88476523,15.6894535 2.85058589,15.7773433 2.86035156,15.875 C2.87011724,15.9726567 2.90429658,16.050781 2.96289063,16.109375 L15.7363281,28.9121094 C15.8339849,28.9902348 15.9218746,29.0292969 16,29.0292969 C16.0781254,29.0292969 16.1660151,28.9902348 16.2636719,28.9121094 L29.0371094,16.109375 C29.0957034,16.050781 29.125,15.9726567 29.125,15.875 C29.125,15.7773433 29.0957034,15.6894535 29.0371094,15.6113281 L24.5253906,11.0996094 C24.3886712,10.9628899 24.3007814,10.796876 24.2617188,10.6015625 C24.2226561,10.406249 24.2519526,10.220704 24.3496094,10.0449219 C24.4277348,9.86913975 24.5546866,9.73242236 24.7304688,9.63476562 C24.9062509,9.53710889 25.0917959,9.49804678 25.2871094,9.51757812 L25.4335938,9.51757812 C25.4726564,9.53710947 25.5117186,9.546875 25.5507812,9.546875 L25.6679688,9.546875 C26.5859421,9.546875 27.3623015,9.22949536 27.9970703,8.59472656 C28.6318391,7.95995776 28.9492188,7.18359834 28.9492188,6.265625 C28.9492188,5.36718301 28.6318391,4.59570635 27.9970703,3.95117188 C27.3623015,3.3066374 26.5859421,2.984375 25.6679688,2.984375 C24.7695268,2.984375 23.9980501,3.3066374 23.3535156,3.95117188 C22.7089812,4.59570635 22.3867188,5.36718301 22.3867188,6.265625 C22.3867188,6.3046877 22.3916015,6.3437498 22.4013672,6.3828125 C22.4111329,6.4218752 22.4160156,6.4609373 22.4160156,6.5 L22.4453125,6.67578125 C22.4648438,6.87109473 22.4257817,7.05663975 22.328125,7.23242188 C22.2304683,7.408204 22.0937509,7.53515586 21.9179688,7.61328125 C21.7421866,7.69140664 21.5566416,7.71582046 21.3613281,7.68652344 C21.1660146,7.65722642 21.0000007,7.57421943 20.8632812,7.4375 L16.2636719,2.83789062 C16.1660151,2.74023389 16.0781254,2.69140625 16,2.69140625 C15.9218746,2.69140625 15.8339849,2.74023389 15.7363281,2.83789062 L12.8945312,5.6796875 C14.1250062,5.97265771 15.1162072,6.62206528 15.8681641,7.62792969 C16.6201209,8.63379409 16.9960938,9.79100908 16.9960938,11.0996094 C16.9960938,12.6425858 16.473638,13.9706976 15.4287109,15.0839844 C14.3837838,16.1972712 13.0898515,16.7539062 11.546875,16.7539062 C10.2382747,16.7539062 9.08105972,16.3437541 8.07519531,15.5234375 C7.06933091,14.7031209 6.41992334,13.6777405 6.12695312,12.4472656 Z" id="Puzzle---simple-line-icons" fill="#000000"></path>
        </g>
    </g>
</svg>