<?xml version="1.0" encoding="UTF-8" standalone="no"?>
<svg width="120px" height="120px" viewBox="0 0 120 120" version="1.1" xmlns="http://www.w3.org/2000/svg" xmlns:xlink="http://www.w3.org/1999/xlink">
    <!-- Generator: Sketch 39.1 (31720) - http://www.bohemiancoding.com/sketch -->
    <title>icon_clock</title>
    <desc>Created with Sketch.</desc>
    <defs></defs>
    <g id="Page-1" stroke="none" stroke-width="1" fill="none" fill-rule="evenodd">
        <g id="01escritorio_06procesocompra_03waitingroom_03negativa" transform="translate(-117.000000, -211.000000)" fill="#0BADFF">
            <g id="paño1" transform="translate(113.000000, 207.000000)">
                <g id="titulo">
                    <g id="icon_clock">
                        <path d="M64,4 C30.863,4 4,30.863 4,64 C4,97.137 30.863,124 64,124 C97.137,124 124,97.137 124,64 C124,30.863 97.137,4 64,4 Z M64,116 C35.327,116 12,92.673 12,64 C12,35.327 35.327,12 64,12 C92.673,12 116,35.327 116,64 C116,92.673 92.673,116 64,116 Z M45,58 C47.209139,58 49,56.209139 49,54 C49,51.790861 47.209139,50 45,50 C42.790861,50 41,51.790861 41,54 C41,56.209139 42.790861,58 45,58 Z M83,58 C85.209139,58 87,56.209139 87,54 C87,51.790861 85.209139,50 83,50 C80.790861,50 79,51.790861 79,54 C79,56.209139 80.790861,58 83,58 Z M41.4143715,90.2442087 C41.8326719,90.0255771 42.3231208,89.7793379 42.8793618,89.5123422 C44.4845508,88.7418515 46.2793316,87.9687151 48.2115167,87.2473661 C53.6604341,85.2131035 59.0760749,84 64,84 C68.9239251,84 74.3395659,85.2131035 79.7884833,87.2473661 C81.7206684,87.9687151 83.5154492,88.7418515 85.1206382,89.5123422 C85.6768792,89.7793379 86.1673281,90.0255771 86.5856285,90.2442087 C86.825459,90.3695601 86.9808743,90.4537852 87.0455865,90.4900241 L90.9544135,83.5099759 C90.4932939,83.251749 89.6869553,82.8303027 88.5824868,82.3001578 C86.7697071,81.4300235 84.7558941,80.5625349 82.5865167,79.7526339 C76.3166841,77.4118965 70.0135749,76 64,76 C57.9864251,76 51.6833159,77.4118965 45.4134833,79.7526339 C43.2441059,80.5625349 41.2302929,81.4300235 39.4175132,82.3001578 C38.3130447,82.8303027 37.5067061,83.251749 37.0455865,83.5099759 L40.9544135,90.4900241 C41.0191257,90.4537852 41.174541,90.3695601 41.4143715,90.2442087 Z" id="Combined-Shape"></path>
                    </g>
                </g>
            </g>
        </g>
    </g>
</svg>