<svg width="64" height="64" viewBox="0 0 64 64" xmlns="http://www.w3.org/2000/svg"><title>three</title><g id="Page-1" fill-rule="evenodd"><path d="M32 59.733C16.708 59.733 4.267 47.293 4.267 32 4.267 16.708 16.707 4.267 32 4.267c15.292 0 27.733 12.44 27.733 27.733 0 15.292-12.44 27.733-27.733 27.733M32 0C14.327 0 0 14.327 0 32c0 17.673 14.327 32 32 32 17.673 0 32-14.327 32-32C64 14.327 49.673 0 32 0zm-8.533 36.433c.053.937.133 2.43 1.41 3.893 1.408 1.638 3.428 2.34 6.485 2.34 3.642 0 5.13-.994 6.034-1.726 1.516-1.2 1.94-2.838 1.94-4.302 0-4.36-3.667-4.828-4.65-4.945v-.147c2.524-.292 4.28-2.37 4.28-4.828 0-3.073-2.58-5.385-7.365-5.385-4.2 0-7.548 1.844-7.68 6.087h5.13c.08-1.99 1.46-2.34 2.365-2.34 1.49 0 2.5.877 2.5 2.282 0 .234 0 2.224-2.287 2.575-1.09.175-2.1.117-2.79.088v3.628c.344-.03.876-.058 1.46-.058 1.064 0 3.882 0 3.882 2.604 0 1.258-.638 2.692-2.87 2.692-1.995 0-2.633-1.142-2.686-2.46h-5.157z" id="three"/></g></svg>