<svg width="64" height="54" viewBox="0 0 64 54" xmlns="http://www.w3.org/2000/svg"><title>twitter</title><g id="Page-1" fill-rule="evenodd"><path d="M62.232 1.32a25.892 25.892 0 0 1-8.343 3.263C51.5 1.967 48.085.333 44.305.333c-7.245 0-13.125 6.03-13.125 13.464 0 1.056.114 2.08.34 3.067-10.913-.562-20.586-5.918-27.065-14.072a13.7 13.7 0 0 0-1.777 6.775c0 4.67 2.317 8.792 5.842 11.206a12.892 12.892 0 0 1-5.952-1.68v.166c0 6.525 4.527 11.967 10.538 13.2a12.58 12.58 0 0 1-3.46.474c-.846 0-1.67-.08-2.47-.24 1.67 5.348 6.516 9.242 12.263 9.346-4.494 3.614-10.158 5.767-16.308 5.767A26.31 26.31 0 0 1 0 47.623c5.81 3.814 12.715 6.044 20.127 6.044 24.153 0 37.357-20.514 37.357-38.305 0-.586-.01-1.172-.033-1.747A26.935 26.935 0 0 0 64 6.647a25.612 25.612 0 0 1-7.54 2.12 13.44 13.44 0 0 0 5.774-7.446" id="twitter"/></g></svg>