<svg width="64" height="64" viewBox="0 0 64 64" xmlns="http://www.w3.org/2000/svg"><title>two</title><g id="Page-1" fill-rule="evenodd"><path d="M32 59.733C16.708 59.733 4.267 47.293 4.267 32 4.267 16.708 16.707 4.267 32 4.267c15.292 0 27.733 12.44 27.733 27.733 0 15.292-12.44 27.733-27.733 27.733M32 0C14.327 0 0 14.327 0 32c0 17.673 14.327 32 32 32 17.673 0 32-14.327 32-32C64 14.327 49.673 0 32 0zm-8.533 42.667h15.31V38.55h-8.91c5.184-4.118 8.857-7.042 8.857-11.34 0-1.192-.297-2.356-1-3.34-1.214-1.73-3.267-2.537-6.13-2.537-1.592 0-4.806.27-6.4 2.387-1.295 1.73-1.35 3.342-1.35 3.998h5.267c.055-.566.19-2.416 2.215-2.416.675 0 2.025.238 2.025 2.088 0 .955-.324 1.73-.675 2.357-1.377 2.178-4.97 5.162-9.208 8.623v4.297z" id="two"/></g></svg>