<?xml version="1.0" encoding="UTF-8" standalone="no"?>
<svg width="32px" height="32px" viewBox="0 0 32 32" version="1.1" xmlns="http://www.w3.org/2000/svg" xmlns:xlink="http://www.w3.org/1999/xlink">
    <!-- Generator: Sketch 42 (36781) - http://www.bohemiancoding.com/sketch -->
    <title>icon_008</title>
    <desc>Created with Sketch.</desc>
    <defs></defs>
    <g id="Page-1" stroke="none" stroke-width="1" fill="none" fill-rule="evenodd">
        <g id="icon_008">
            <rect id="container" x="0" y="0" width="32" height="32"></rect>
            <g id="Wallet---simple-line-icons" fill="#000000">
                <path d="M32,10.5625 L32,29 C32,29.8333375 31.7083363,30.5416637 31.125,31.125 C30.5416637,31.7083363 29.8333375,32 29,32 L3,32 C2.1666625,32 1.45833625,31.7083363 0.875,31.125 C0.29166375,30.5416637 0,29.8333375 0,29 L0,13 C0,12.1874959 0.29166375,11.4895862 0.875,10.90625 C1.45833625,10.3229137 2.15624594,10.0208334 2.96875,10 L3.96875,10 L3.96875,6 C3.96875,5.1666625 4.26562203,4.45833625 4.859375,3.875 C5.45312797,3.29166375 6.15624594,3 6.96875,3 L29.5625,7.5 C30.6875056,7.81250156 31.3749987,8.31249656 31.625,9 C31.8750013,9.68750344 32,10.2083316 32,10.5625 Z M5.96875,6 L5.96875,10 L28,10 C28.3958353,10.0208334 28.6562494,9.93750094 28.78125,9.75 L28.96875,9.46875 L6.90625,5 C6.63541531,5.02083344 6.41145922,5.12499906 6.234375,5.3125 C6.05729078,5.50000094 5.96875,5.72916531 5.96875,6 Z M30,29.0155945 L30,11.2962963 C30,11.6244331 29.7864605,11.870532 29.359375,12.0346004 C28.9322895,12.1986688 28.4791691,12.2807018 28,12.2807018 L3,12.2807018 C2.72916531,12.2807018 2.49479266,12.3781159 2.296875,12.5729471 C2.09895734,12.7677783 2,12.9984961 2,13.2651072 L2,29.0155945 C2,29.2822057 2.09895734,29.5129234 2.296875,29.7077546 C2.49479266,29.9025859 2.72916531,30 3,30 L29,30 C29.2708347,30 29.5052073,29.9025859 29.703125,29.7077546 C29.9010427,29.5129234 30,29.2822057 30,29.0155945 Z M5.33333333,19.5925926 C5.81481722,19.5925926 6.23147972,19.7685168 6.58333333,20.1203704 C6.93518694,20.472224 7.11111111,20.8888865 7.11111111,21.3703704 C7.11111111,21.8703729 6.93518694,22.291665 6.58333333,22.6342593 C6.23147972,22.9768536 5.81481722,23.1481481 5.33333333,23.1481481 C4.83333083,23.1481481 4.41203875,22.9768536 4.06944444,22.6342593 C3.72685014,22.291665 3.55555556,21.8703729 3.55555556,21.3703704 C3.55555556,20.8888865 3.72685014,20.472224 4.06944444,20.1203704 C4.41203875,19.7685168 4.83333083,19.5925926 5.33333333,19.5925926 Z" transform="translate(16.000000, 17.500000) scale(-1, 1) translate(-16.000000, -17.500000) "></path>
            </g>
            <g id="money---FontAwesome" transform="translate(6.000000, -1.000000)" fill="#000000">
                <path d="M9.57143879,11.0000119 L13.8571582,11.0000119 L13.8571582,9.92858207 L12.4285851,9.92858207 L12.4285851,4.92857611 L11.1562621,4.92857611 L9.50447442,6.45759579 L10.3638504,7.350454 C10.6317079,7.11607872 10.7991188,6.99331072 10.9776905,6.71429253 L11.0000119,6.71429253 L11.0000119,9.92858207 L9.57143879,9.92858207 L9.57143879,11.0000119 Z M15.2857313,8.14286566 C15.2857313,10.1741181 14.0580513,12.7857283 11.7142985,12.7857283 C9.37054569,12.7857283 8.14286566,10.1741181 8.14286566,8.14286566 C8.14286566,6.11161324 9.37054569,3.50000298 11.7142985,3.50000298 C14.0580513,3.50000298 15.2857313,6.11161324 15.2857313,8.14286566 Z M20.3273564,11.0000119 L20.3273564,5.28571939 C18.7536938,5.28571939 18.1428776,4.55957205 18.1428776,2.98590945 L5.28571939,2.98590945 C5.28571939,4.55957205 4.60780049,5.28571939 3.0341379,5.28571939 L3.0341379,11.0000119 C4.60780049,11.0000119 5.28571939,12.2834956 5.28571939,13.8571582 L18.1428776,13.8571582 C18.1428776,12.2834956 18.7536938,11.0000119 20.3273564,11.0000119 Z M22.428597,1.71428657 L22.428597,14.5714447 C22.428597,14.9620702 22.1049359,15.2857313 21.7143104,15.2857313 L1.71428657,15.2857313 C1.3236611,15.2857313 1,14.9620702 1,14.5714447 L1,1.71428657 C1,1.3236611 1.3236611,1 1.71428657,1 L21.7143104,1 C22.1049359,1 22.428597,1.3236611 22.428597,1.71428657 Z"></path>
            </g>
        </g>
    </g>
</svg>