<?xml version="1.0" encoding="UTF-8" standalone="no"?><svg xmlns="http://www.w3.org/2000/svg" xmlns:xlink="http://www.w3.org/1999/xlink"><symbol viewBox="0 0 64 56" id="alert"><title>alert</title><path d="M0 56h64L32 0 0 56zm32-39.876l18.212 31.877H13.784L32 16.124z" fill-rule="evenodd"/></symbol><symbol viewBox="0 0 32 38" id="android"><title>android</title><g fill="#E3E3E3" fill-rule="evenodd"><path d="M26.03 28.933c0 .851-.69 1.541-1.549 1.541H6.55c-.856 0-1.549-.69-1.549-1.54V13.012c4.7-.017 15.666-.017 21.03 0v15.92zM12.134 4.686a.355.355 0 0 1-.155.478.36.36 0 0 1-.48-.154L9.233.62a.358.358 0 0 1 .636-.323l2.265 4.39zM20.39 4.871a.355.355 0 0 1-.488.128.35.35 0 0 1-.129-.483L22.255.245a.356.356 0 0 1 .487-.13.35.35 0 0 1 .132.483L20.39 4.871zM31.996 24.453a2.25 2.25 0 0 1-2.258 2.243 2.252 2.252 0 0 1-2.26-2.243v-9.819a2.25 2.25 0 0 1 2.26-2.243 2.248 2.248 0 0 1 2.258 2.243v9.819zM4.52 24.453a2.252 2.252 0 0 1-2.257 2.243 2.25 2.25 0 0 1-2.26-2.243v-9.819c0-1.24 1.01-2.243 2.26-2.243a2.25 2.25 0 0 1 2.257 2.243v9.819z"/><path d="M14.352 35.689a2.252 2.252 0 0 1-2.261 2.244 2.25 2.25 0 0 1-2.255-2.244v-9.818a2.252 2.252 0 0 1 2.255-2.246 2.254 2.254 0 0 1 2.26 2.246v9.818zM22.184 35.689a2.252 2.252 0 0 1-2.26 2.244 2.251 2.251 0 0 1-2.258-2.244v-9.818a2.253 2.253 0 0 1 2.258-2.246 2.254 2.254 0 0 1 2.26 2.246v9.818zM16.007 2.358c-5.492 0-10.015 4.154-10.62 9.492h21.238c-.603-5.338-5.123-9.492-10.618-9.492zm-4.792 5.755a.88.88 0 0 1-.886-.877.88.88 0 0 1 .886-.875c.485 0 .88.391.88.875a.879.879 0 0 1-.88.877zm9.602 0a.88.88 0 0 1-.884-.877.88.88 0 0 1 .884-.875.877.877 0 1 1 0 1.752z"/></g></symbol><symbol viewBox="0 0 33 40" id="apple"><title>apple</title><g fill="#E3E3E3" fill-rule="evenodd"><path d="M24.301 3.776a9.765 9.765 0 0 1-1.759 3.16 8.653 8.653 0 0 1-2.894 2.244c-1.034.488-2.166.751-3.293.664l-.345-.026-.045-.34c-.147-1.098.023-2.21.379-3.238a9.685 9.685 0 0 1 1.805-3.116c.745-.865 1.745-1.618 2.815-2.164 1.074-.547 2.227-.89 3.277-.932l.397-.016.044.393c.127 1.15-.028 2.297-.38 3.371z"/><path d="M31.597 14.1c-.38.234-4.057 2.489-4.012 7.035.048 5.48 4.736 7.38 4.995 7.484h.002l.011.005.368.15-.126.374c-.008.022 0-.001-.01.033-.12.38-.93 2.955-2.762 5.608-.832 1.204-1.678 2.405-2.678 3.332-1.036.96-2.218 1.608-3.679 1.635-1.376.025-2.278-.361-3.214-.763-.894-.383-1.823-.782-3.277-.782-1.527 0-2.504.413-3.444.81-.885.374-1.741.735-2.975.784h-.001c-1.425.052-2.66-.636-3.757-1.655-1.05-.975-1.97-2.252-2.809-3.454C2.337 31.987.691 28.046.183 24.039c-.419-3.296-.07-6.645 1.539-9.41a10.367 10.367 0 0 1 3.618-3.691 9.728 9.728 0 0 1 4.87-1.402c1.521-.028 2.956.537 4.212 1.031.89.35 1.681.661 2.275.661.524 0 1.297-.302 2.198-.654 1.522-.595 3.385-1.323 5.354-1.129.826.036 2.549.232 4.31 1.178a9.037 9.037 0 0 1 3.194 2.864l.246.357-.368.236c-.02.013 0 0-.034.02z"/></g></symbol><symbol viewBox="0 0 64 38" id="arrow_down"><title>arrow_down</title><path d="M55.482 0L32.006 23.528 8.525 0 0 5.934 32.006 38 64 5.934 55.482 0z" fill-rule="evenodd"/></symbol><symbol viewBox="0 0 38 64" id="arrow_left"><title>arrow_left</title><path d="M38 8.518L14.472 31.994 38 55.475 32.066 64 0 31.994 32.066 0 38 8.518z" fill-rule="evenodd"/></symbol><symbol viewBox="0 0 38 64" id="arrow_rigth"><title>arrow_rigth</title><path d="M0 8.518l23.528 23.476L0 55.475 5.934 64 38 31.994 5.934 0 0 8.518z" fill-rule="evenodd"/></symbol><symbol viewBox="0 0 56 40" id="back"><title>back</title><path d="M56 16H13.192L24 5.326 20.254 0 0 20l20.254 20L24 34.674 13.192 24H56z" fill-rule="evenodd"/></symbol><symbol viewBox="0 0 30.89 22.79" id="binder"><title>icon_026</title><path d="M28.82 13c0-.45-.5-.57-.86-.57h-17.6a3.73 3.73 0 0 0-2.54 1.2L3.06 19.5a1.13 1.13 0 0 0-.29.65c0 .45.5.57.86.57h17.6a3.68 3.68 0 0 0 2.54-1.21l4.76-5.87a1 1 0 0 0 .29-.64zm-18.46-2.64h12.43V7.79a1.55 1.55 0 0 0-1.55-1.55h-9.33a1.55 1.55 0 0 1-1.55-1.55v-1A1.55 1.55 0 0 0 8.8 2.08H3.63a1.55 1.55 0 0 0-1.56 1.55v13.8l4.14-5.1a5.78 5.78 0 0 1 4.15-1.97zM30.9 13a3.18 3.18 0 0 1-.74 1.94l-4.78 5.85a5.84 5.84 0 0 1-4.14 2H3.63A3.64 3.64 0 0 1 0 19.16V3.63A3.64 3.64 0 0 1 3.63 0H8.8a3.64 3.64 0 0 1 3.63 3.63v.52h8.8a3.64 3.64 0 0 1 3.63 3.64v2.59H28a2.88 2.88 0 0 1 2.69 1.54 2.54 2.54 0 0 1 .2 1.08z"/></symbol><symbol viewBox="0 0 30 28.07" id="briefcase"><title>icon_028</title><path d="M28.13 4.63A1.9 1.9 0 0 1 30 6.51v19.65a1.9 1.9 0 0 1-1.87 1.88H1.88a1.8 1.8 0 0 1-1.32-.56A1.8 1.8 0 0 1 0 26.16V6.51a1.8 1.8 0 0 1 .56-1.35 1.8 1.8 0 0 1 1.32-.56h7.5V2.81a2.73 2.73 0 0 1 .82-2 2.69 2.69 0 0 1 2-.83h5.63a2.69 2.69 0 0 1 2 .83 2.73 2.73 0 0 1 .82 2v1.82zM11.25 2.81v1.82h7.5V2.81a.93.93 0 0 0-.26-.65.89.89 0 0 0-.67-.28h-5.63a1 1 0 0 0-.94.94zm-9.37 3.7v6.59h10.31v-.94a1.83 1.83 0 0 1 .54-1.32 1.79 1.79 0 0 1 1.33-.56h1.88a1.9 1.9 0 0 1 1.87 1.88v1h10.32V6.51zm14.06 10.34v-4.69h-1.88v4.72zM1.88 26.16h26.25V14.97H17.81v1.88a1.79 1.79 0 0 1-.55 1.31 1.83 1.83 0 0 1-1.32.54h-1.88a1.85 1.85 0 0 1-1.87-1.87v-1.86H1.88z"/></symbol><symbol viewBox="0 0 64 55" id="calendar"><title>calendar</title><path d="M50 0v6h-4V0h-4.002v6H20V0h-4v6h-4V0H7.998v6H0v48h64V6H54V0h-4zM54 12v-2h5.998V18H4V9.999h3.998v2H12v-2h4v2h4v-2h21.998v2H46v-2h4v2h4zm-50 38h56V22H4v27.998zM16 32h32v-4H16v4zm0 10h32v-4H16v4z" fill-rule="evenodd"/></symbol><symbol viewBox="0 0 20 20" id="calendar2"><title>ico calendario</title><g fill="#0BADFF" fill-rule="evenodd"><path d="M8.75 11.25h2.5v-2.5h-2.5zM5 11.25h2.5v-2.5H5zM12.5 11.25H15v-2.5h-2.5zM13.75 2.5h2.5V0h-2.5z"/><path d="M17.5 0V3.75h-5V0h-5V3.75h-5V0H0v20h20V0h-2.5zm-15 17.5h15V6.25h-15V17.5z"/><path d="M3.75 2.5h2.501V0H3.75zM8.75 15h2.5v-2.5h-2.5zM5 15h2.5v-2.5H5zM12.5 15H15v-2.5h-2.5z"/></g></symbol><symbol viewBox="0 0 64 58" id="chart"><title>chart</title><path d="M4.297 57.918L.274 55.755 15.37 27.953l13.924 17.814L52.288 0l11.328 16.908-3.804 2.523-6.957-10.386-22.718 45.213-14.078-18.01-11.762 21.67z" fill-rule="evenodd"/></symbol><symbol viewBox="0 0 64 54" id="chat"><title>chat</title><path d="M0 0v36h20v18l10-12h8l12 12V42h14V14H48V0H0zm4 4h40v10H28v23l-4 5V32H4V4zm28 14h28v20H46v6l-6-6h-8V18z" fill-rule="evenodd"/></symbol><symbol viewBox="0 0 64 50" id="check"><title>check</title><path d="M22.857 27.273L9.143 18.182 0 27.272 22.857 50 64 9.09 54.857 0l-32 27.273z" fill-rule="evenodd"/></symbol><symbol viewBox="0 0 64 64" id="clock"><title>clock</title><path d="M32 59.733C16.708 59.733 4.267 47.293 4.267 32 4.267 16.708 16.707 4.267 32 4.267c15.292 0 27.733 12.44 27.733 27.733 0 15.292-12.44 27.733-27.733 27.733M32 0C14.327 0 0 14.327 0 32c0 17.673 14.327 32 32 32 17.673 0 32-14.327 32-32C64 14.327 49.673 0 32 0zm2.133 14.933h-4.266v21.334h12.8V32h-8.534V14.933z" fill-rule="evenodd"/></symbol><symbol viewBox="0 0 64 64" id="close"><title>close</title><path d="M64 6.4L57.6 0 32 25.6 6.4 0 0 6.4 25.6 32 0 57.6 6.4 64 32 38.4 57.6 64l6.4-6.4L38.4 32 64 6.4z" fill-rule="evenodd"/></symbol><symbol viewBox="0 0 40 64" id="cohete"><title>cohete</title><path d="M26 41.838s-.41 4.08-6 4.08-6-4.08-6-4.08l-10 2.04c0-9.48 6-12.242 6-12.242C7.74 14.544 20 5.11 20 5.11s12.26 9.434 10 26.526c0 0 6 2.762 6 12.242l-10-2.04zm8.214-12.21C35.312 12.004 22.96 2.276 22.408 1.854L20 0l-2.408 1.854c-.552.422-12.904 10.15-11.806 27.774C2.988 32.066 0 36.666 0 43.878v4.978l4.784-.976 7.004-1.43C13.286 48.358 15.858 50 20 50c4.142 0 6.714-1.642 8.212-3.55l7.004 1.43 4.784.976v-4.978c0-7.212-2.988-11.812-5.786-14.25zM18 60h4v-8h-4v8zm8 4h4V52h-4v12zm-16 0h4V52h-4v12zm10-48.99c-3.308 0-6 2.692-6 6s2.692 6 6 6 6-2.692 6-6-2.692-6-6-6zm0 8a2 2 0 1 1 .001-4.001A2 2 0 0 1 20 23.01z" fill-rule="evenodd"/></symbol><symbol viewBox="0 0 64 44" id="comillas"><title>comillas</title><path d="M64 32.19c0-2.316-.812-4.516-2.435-6.6-1.623-2.085-3.98-3.127-7.072-3.127-1.237 0-2.512.193-3.826.58-1.314.385-2.667 1.118-4.058 2.2-.928-1.39-1.392-3.629-1.392-6.717 0-4.94 1.392-8.607 4.174-11 2.783-2.393 6.88-4.13 12.29-5.21V0c-3.71 0-7.304.579-10.782 1.737-3.479 1.158-6.493 2.856-9.044 5.095-2.55 2.238-4.599 4.901-6.145 7.99-1.546 3.087-2.319 6.56-2.319 10.42 0 5.095 1.546 9.495 4.638 13.2C41.121 42.147 45.295 44 50.551 44c3.555 0 6.686-1.003 9.391-3.01C62.647 38.981 64 36.05 64 32.19zm-33.391 0c0-2.316-.812-4.516-2.435-6.6-1.623-2.085-3.98-3.127-7.073-3.127-1.236 0-2.512.193-3.826.58-1.314.385-2.666 1.118-4.058 2.2-.927-1.39-1.39-3.629-1.39-6.717 0-4.94 1.39-8.607 4.173-11 2.783-2.393 6.88-4.13 12.29-5.21V0c-3.71 0-7.304.579-10.783 1.737-3.478 1.158-6.492 2.856-9.043 5.095-2.551 2.238-4.6 4.901-6.145 7.99C.773 17.908 0 21.381 0 25.241c0 5.095 1.546 9.495 4.638 13.2C7.729 42.147 11.903 44 17.159 44c3.556 0 6.686-1.003 9.392-3.01 2.705-2.008 4.058-4.94 4.058-8.8z" fill-rule="evenodd"/></symbol><symbol viewBox="0 0 39 64" id="doc"><title>doc</title><path d="M34.125 19.692v24.616c0 8.142-6.562 14.769-14.625 14.769-8.063 0-14.625-6.627-14.625-14.77V14.77c0-5.43 4.373-9.846 9.75-9.846s9.75 4.416 9.75 9.846v22.154c0 2.715-2.186 4.923-4.875 4.923s-4.875-2.208-4.875-4.923V17.231H9.75v19.692c0 5.438 4.366 9.846 9.75 9.846s9.75-4.408 9.75-9.846V14.77C29.25 6.612 22.703 0 14.625 0S0 6.612 0 14.77v29.538C0 55.183 8.731 64 19.5 64S39 55.183 39 44.308V19.692h-4.875z" fill-rule="evenodd"/></symbol><symbol viewBox="0 0 64 64" id="error"><title>error</title><path d="M9.143 32c0-4.65 1.412-8.97 3.808-12.585l31.634 31.634C40.97 53.445 36.65 54.857 32 54.857 19.397 54.857 9.143 44.603 9.143 32m45.714 0c0 4.65-1.412 8.97-3.808 12.585L19.415 12.951C23.03 10.555 27.35 9.143 32 9.143c12.603 0 22.857 10.254 22.857 22.857M32 0C14.327 0 0 14.327 0 32c0 17.673 14.327 32 32 32 17.673 0 32-14.327 32-32C64 14.327 49.673 0 32 0" fill-rule="evenodd"/></symbol><symbol viewBox="0 0 30 20" id="eye"><title>icon_eye</title><path d="M15 18c-5.58 0-10.586-5.567-12.507-8C4.415 7.566 9.42 2 15 2s10.586 5.567 12.507 8C25.585 12.434 20.58 18 15 18m0-18C6.716 0 0 10 0 10s6.716 10 15 10c8.284 0 15-10 15-10S23.284 0 15 0zm0 6c-2.206 0-4 1.794-4 4s1.794 4 4 4 4-1.794 4-4-1.794-4-4-4zm0 6a2 2 0 1 1-.001-3.999A2 2 0 0 1 15 12z" fill="#CCC" fill-rule="evenodd"/></symbol><symbol viewBox="0 0 64 64" id="facebook"><title>facebook</title><path d="M63.289 59.835a3.453 3.453 0 0 1-3.454 3.454H43.89V39.055h8.134l1.219-9.444h-9.353v-6.03c0-2.733.76-4.598 4.68-4.598l5.002-.002v-8.446c-.866-.116-3.834-.374-7.287-.374-7.21 0-12.147 4.402-12.147 12.485v6.965h-8.155v9.444h8.155v24.234H4.165A3.453 3.453 0 0 1 .71 59.835V4.165A3.453 3.453 0 0 1 4.165.71h55.67a3.453 3.453 0 0 1 3.454 3.454v55.67" fill-rule="evenodd"/></symbol><symbol viewBox="0 0 64 64" id="five"><title>five</title><path d="M32 59.733C16.708 59.733 4.267 47.292 4.267 32S16.708 4.267 32 4.267 59.733 16.708 59.733 32 47.292 59.733 32 59.733M32 0C14.327 0 0 14.327 0 32c0 17.673 14.327 32 32 32 17.673 0 32-14.327 32-32C64 14.327 49.673 0 32 0zm-3.259 36.249c.037.803.276 1.4.718 1.792.442.392.995.588 1.657.588.681 0 1.183-.15 1.505-.452.323-.301.557-.603.705-.904.165-.362.276-.748.331-1.16.055-.412.083-.758.083-1.04 0-.421-.042-.828-.124-1.22a3.09 3.09 0 0 0-.415-1.04 2.155 2.155 0 0 0-.773-.723c-.322-.18-.713-.27-1.174-.27-.662 0-1.173.19-1.532.572-.36.381-.576.803-.65 1.265l-5.302-.06.387-12.264h13.808v4.098h-9.003l-.331 5.123a6.36 6.36 0 0 1 .635-.95c.276-.351.727-.687 1.353-1.009.405-.22.82-.382 1.243-.482.423-.1.865-.15 1.325-.15.682 0 1.377.12 2.085.36a5.101 5.101 0 0 1 1.92 1.191c.57.553 1.035 1.266 1.394 2.14.36.873.539 1.943.539 3.209 0 .32-.023.718-.07 1.19a8.915 8.915 0 0 1-.29 1.506 8.627 8.627 0 0 1-.634 1.612 5.97 5.97 0 0 1-1.105 1.507 5.974 5.974 0 0 1-1.353 1.024 7.07 7.07 0 0 1-1.464.603c-.497.14-.99.236-1.477.286-.488.05-.935.076-1.34.076-.386 0-.865-.025-1.436-.076-.57-.05-1.16-.16-1.767-.331a9.116 9.116 0 0 1-1.795-.723 5.186 5.186 0 0 1-1.547-1.25 4.65 4.65 0 0 1-.773-1.116 5.955 5.955 0 0 1-.414-1.115 5.406 5.406 0 0 1-.166-1.009 13.831 13.831 0 0 1-.027-.798h5.274z" fill-rule="evenodd"/></symbol><symbol viewBox="0 0 64 64" id="four"><title>four</title><path d="M32 59.733C16.708 59.733 4.267 47.292 4.267 32S16.708 4.267 32 4.267 59.733 16.708 59.733 32 47.292 59.733 32 59.733M32 0C14.327 0 0 14.327 0 32c0 17.673 14.327 32 32 32 17.673 0 32-14.327 32-32C64 14.327 49.673 0 32 0zm.585 42.667h4.9v-4.224h3.048v-3.887h-3.048V21.333h-6.043l-7.975 12.12v4.99h9.118v4.224zm-5.607-8.111l5.689-8.723v8.723h-5.689z" fill-rule="evenodd"/></symbol><symbol viewBox="0 0 29.16 26.94" id="gear"><title>icon_029</title><path d="M18 13.33v-2h-2.08a7 7 0 0 0-1.32-3.19l1.47-1.47-1.41-1.41-1.47 1.47A7 7 0 0 0 10 5.41V3.33H8v2.08a7 7 0 0 0-3.19 1.32L3.24 5.16 1.83 6.57 3.4 8.14a7 7 0 0 0-1.32 3.19H0v2h2.08a7 7 0 0 0 1.63 3.58l-1.78 1.78 1.41 1.41 1.89-1.89a7 7 0 0 0 2.77 1v2.12h2v-2.08a7 7 0 0 0 3.19-1.32l1.47 1.47 1.41-1.41-1.47-1.47a7 7 0 0 0 1.32-3.19zm-9-6a5 5 0 1 1-5 5 5 5 0 0 1 5-5z"/><path d="M27.29 21.51v-1.36h-1.1a5 5 0 0 0-1-2.38l.78-.78-1-1-.78.78a5 5 0 0 0-2.38-1v-1.1H20.5v1.1a5 5 0 0 0-2.38 1l-.85-.85-1 1 .85.85a5 5 0 0 0-1 2.38h-1.1v1.36h1.1a5 5 0 0 0 1.2 2.64l-1 1 1 1 1-1a5 5 0 0 0 2.11.77v1.1h1.36v-1.19a5 5 0 0 0 2.38-1l.78.78 1-1-.78-.78a5 5 0 0 0 1-2.38zm-6.11 2.39a3.07 3.07 0 1 1 3.07-3.07 3.07 3.07 0 0 1-3.07 3.07zM28.1 5.53l1.06-.28-.35-1.32-1.06.28a5 5 0 0 0-1.57-2l.55-1-1.18-.68-.55 1a5 5 0 0 0-2.55-.34L22.14.03l-1.31.3.31 1.16a5 5 0 0 0-2 1.57l-1-.55-.68 1.18 1 .55a5 5 0 0 0-.28 2.89l-1.36.36.35 1.31 1.43-.38a5 5 0 0 0 1.4 1.74l-.55 1 1.18.68.55-1a5 5 0 0 0 2.55.34l.27 1.06 1.31-.35-.31-1.06a5 5 0 0 0 2-1.57l1 .55.68-1.18-1-.55a5 5 0 0 0 .42-2.55zm-2.35 2.18a3.07 3.07 0 1 1-1.12-4.2 3.07 3.07 0 0 1 1.12 4.2z"/></symbol><symbol viewBox="0 0 24 16" id="gplus"><title>icon_facebook</title><path d="M7.623 6.124v3.024s2.928-.004 4.121-.004c-.646 1.961-1.65 3.029-4.121 3.029-2.501 0-4.453-2.031-4.453-4.537C3.17 5.131 5.122 3.1 7.623 3.1c1.322 0 2.176.466 2.96 1.114.626-.628.574-.717 2.17-2.226A7.588 7.588 0 0 0 7.622 0C3.413 0 0 3.419 0 7.636c0 4.217 3.413 7.637 7.623 7.637 6.292 0 7.83-5.49 7.32-9.149h-7.32zm13.736.151V3.63h-1.887v2.646h-2.717v1.89h2.717v2.723h1.887V8.165H24v-1.89h-2.641z" fill-rule="evenodd"/></symbol><symbol viewBox="0 0 29.06 27.98" id="graphic_cheese"><title>icon_019</title><path d="M15.07 0v12.92h12.91A12.92 12.92 0 0 0 15.07 0zm2 2.18a10.93 10.93 0 0 1 8.73 8.73h-8.73zM28.92 16.85a12.94 12.94 0 0 0 .14-1.78h-13l.59.59 8.58 8.59a12.86 12.86 0 0 0 3.67-7.2zm-3.81 4.45l-4.23-4.23h6a10.85 10.85 0 0 1-1.77 4.23z"/><path d="M12.91 2.16a12.92 12.92 0 1 0 9.18 22l-9.18-9.18zm6.23 21.88a10.92 10.92 0 1 1-8.23-19.7V15.8z"/></symbol><symbol viewBox="0 0 32 29.53" id="graphic_screen"><title>icon_005</title><path d="M2 19h28V2H2zM0 2a2 2 0 0 1 2-2h28a2 2 0 0 1 2 2v17a2 2 0 0 1-2 2H2a2 2 0 0 1-2-2zM25.56 24H26v-2H6v2h.27l-1.15 4.27a1 1 0 0 0 1.93.52L8.34 24H15v2a1 1 0 0 0 2 0v-2h6.49l1.28 4.79a1 1 0 0 0 1.93-.52z"/><path d="M9 11h2v6H9zM13 5h2v12h-2zM17 9h2v8h-2zM21 7h2v10h-2z"/></symbol><symbol viewBox="0 0 32 32" id="graphic_up"><title>icon_010</title><g fill="none" fill-rule="evenodd"><path d="M0 0h32v32H0z"/><path fill="#000" fill-rule="nonzero" d="M1 4v23h2V4z"/><path fill="#000" fill-rule="nonzero" d="M1 27h30v-2H1z"/><g transform="translate(6 15)" fill="#000"><path d="M2 4h2v4H2zM0 4h6L3 0z"/></g><g transform="translate(15 11)" fill="#000"><path d="M2 4h2v8H2zM0 4h6L3 0z"/></g><g transform="translate(24 7)" fill="#000"><path d="M2 4h2v12H2zM0 4h6L3 0z"/></g></g></symbol><symbol viewBox="0 0 32 21" id="group_persons"><title>icon_022</title><path d="M25.5 12A3.5 3.5 0 1 1 29 8.5a3.5 3.5 0 0 1-3.5 3.5zm0-2A1.5 1.5 0 1 0 24 8.5a1.5 1.5 0 0 0 1.5 1.5zM6.5 12A3.5 3.5 0 1 1 10 8.5 3.5 3.5 0 0 1 6.5 12zm0-2A1.5 1.5 0 1 0 5 8.5 1.5 1.5 0 0 0 6.5 10zM16 10a5 5 0 1 1 5-5 5 5 0 0 1-5 5zm0-2a3 3 0 1 0-3-3 3 3 0 0 0 3 3z"/><path d="M28 13h-4.6a5.51 5.51 0 0 0-4.9-3h-5a5.5 5.5 0 0 0-4.9 3H4a4 4 0 0 0-4 4v4h32v-4a4 4 0 0 0-4-4zM2 19v-2a2 2 0 0 1 2-2h4v4zm8 0v-3.5a3.5 3.5 0 0 1 3.51-3.5h5A3.51 3.51 0 0 1 22 15.5V19zm20 0h-6v-3.5-.5h4a2 2 0 0 1 2 2z"/></symbol><symbol viewBox="0 0 23 29.97" id="hourglass"><title>icon_011</title><path d="M15.04 10.41H7.96l3.54 3.53 3.54-3.53z"/><path d="M20 10.02v-4h3v-6H0v6h3v4a6 6 0 0 0 2.65 5A6 6 0 0 0 3 19.94v4H0v6h23v-6h-3v-4a6 6 0 0 0-2.65-5A6 6 0 0 0 20 10.02zm-18-8h19v2H2zm19 26H2v-2.08h19zm-3-18a4 4 0 0 1-3.5 3.92v2a4 4 0 0 1 3.54 4v4h-.56L11.5 18l-5.94 5.94H5v-4a4 4 0 0 1 3.53-4v-2a4 4 0 0 1-3.53-4v-4h13z"/></symbol><symbol viewBox="0 0 30 32.05" id="idea"><title>icon_020</title><path d="M27 14h3v2h-3zM2.885 4.29L4.3 2.874 6.42 4.996 5.007 6.411zM23.583 5.01l2.12-2.122 1.415 1.414-2.121 2.122zM14 0h2v3h-2zM0 14h3v2H0zM11 27a1 1 0 0 1 1-1h6a1 1 0 0 1 0 2h-6a1 1 0 0 1-1-1zM24 15a9 9 0 1 0-13 8.05V24a1 1 0 0 0 1 1h6a1 1 0 0 0 1-1v-.95A9 9 0 0 0 24 15zm-10.2 1.34c0-.12-.09-.22-.13-.34h2.38c0 .11-.09.21-.13.34A18.89 18.89 0 0 0 15 22h-.3a18.87 18.87 0 0 0-.9-5.66zM17 21.7a16.45 16.45 0 0 1 .8-4.7 5.6 5.6 0 0 1 .49-1.06A1 1 0 0 0 18 14h-6a1 1 0 0 0-1 1 1 1 0 0 0 .31.72l.12.18a5.58 5.58 0 0 1 .5 1.08 16.3 16.3 0 0 1 .77 4.6 7 7 0 1 1 4.35.1zM18 29h-6a1 1 0 0 0 0 2h.73a3 3 0 0 0 4.52 0H18a1 1 0 0 0 0-2z"/></symbol><symbol viewBox="0 0 64 64" id="info"><title>info</title><path d="M26.667 21.333h10.666V10.667H26.667v10.666zm0 32h10.666V26.667H26.667v26.666zM32 0C14.325 0 0 14.325 0 32s14.325 32 32 32 32-14.325 32-32S49.675 0 32 0z" fill-rule="evenodd"/></symbol><symbol viewBox="0 0 64 58" id="linkedin"><title>linkedin</title><path d="M2.289 18.728h12.196v38.914H2.29V18.728zm45.52-.374c-6.987 0-11.365 3.811-12.174 6.48v-6.106H21.934c.176 3.242 0 38.914 0 38.914h13.7V36.585c0-1.172-.054-2.342.3-3.18.94-2.34 2.964-4.77 6.603-4.77 4.758 0 6.92 3.6 6.92 8.869v20.138h13.83V36.004c0-12.052-6.81-17.65-15.478-17.65zM8.16.358C3.658.358.711 3.27.711 7.115c0 3.772 2.863 6.745 7.277 6.745h.088c4.586 0 7.44-2.985 7.44-6.755C15.428 3.263 12.662.358 8.161.358z" fill-rule="evenodd"/></symbol><symbol viewBox="0 0 32 17" id="mail_send"><title>icon_018</title><path d="M0 17h23V0H0zM19.3 2l-7.8 6.68L3.7 2zM2 3.17l9.5 8.14L21 3.17V15H2zM25 4h7v2h-7zM25 8h4v2h-4zM25 12h7v2h-7z"/></symbol><symbol viewBox="0 0 29 41" id="no_phone"><title>Shape</title><path d="M29 30.288L24.706 26.6V3.302A3.299 3.299 0 0 0 21.41 0H7.937a3.299 3.299 0 0 0-3.295 3.302v6.063l-2.212-1.9L.347 9.9l4.295 3.69v23.195a3.299 3.299 0 0 0 3.295 3.302H21.41a3.3 3.3 0 0 0 3.295-3.302v-5.96l2.211 1.898L29 30.288zM6.235 5.353h16.878v19.879L6.235 10.734V5.353zm8.438 33.182a1.547 1.547 0 0 1-1.545-1.549 1.547 1.547 0 1 1 3.092 0c0 .856-.693 1.549-1.547 1.549zm8.44-4.615H6.235V14.958l16.878 14.498v4.464z" fill="#E3E3E3" fill-rule="evenodd"/></symbol><symbol viewBox="0 0 30 23" id="note_calendar"><title>icon_010</title><path d="M2 21V0H0v23h30v-2H2z"/><path d="M7 19h2v-4h2l-3-4-3 4h2v4zM16 19h2v-8h2l-3-4-3 4h2v8zM25 19h2V7h2l-3-4-3 4h2v12z"/></symbol><symbol viewBox="0 0 23 32" id="note_check"><title>icon_014</title><path d="M18 3v2h3v18h-8v7H2V5h3V3H0v29h23V3zm-3 27v-5h5.5l-5.35 5z"/><path d="M10.67 15.82l-2-1.28-1.34 1.28L10.67 19l6-5.73L15.33 12l-4.66 3.82zM7 7a2 2 0 0 0 2 2h5a2 2 0 0 0 2-2V2a2 2 0 0 0-2-2H9a2 2 0 0 0-2 2zm4.5-5A1.5 1.5 0 1 1 10 3.5 1.5 1.5 0 0 1 11.5 2z"/></symbol><symbol viewBox="0 0 64 60" id="notification"><title>notification</title><path d="M36.825 54.354C35.899 55.446 34.275 56 32.001 56c-2.272 0-3.894-.548-4.822-1.628-.566-.66-.902-1.514-1.092-2.372H37.903c-.19.846-.52 1.696-1.078 2.354zm-23.996-9.526l1.172-1.17V42l-.002-17.724C14.005 23.61 14.303 8 32.001 8c17.232 0 17.972 14.628 18 16.25v19.408l1.17 1.17L54.343 48H9.657l3.172-3.172zM64.001 52l-10-10V24.25s-.118-18.996-20-20.19V0h-4v4.06c-19.884 1.194-20 20.19-20 20.19V42l-10 10h22.032c.516 3.492 2.602 8 9.968 8 7.35 0 9.438-4.508 9.96-8h22.04z" fill-rule="evenodd"/></symbol><symbol viewBox="0 0 64 64" id="ok"><title>ok</title><path d="M32 59.733C16.708 59.733 4.267 47.292 4.267 32S16.708 4.267 32 4.267 59.733 16.708 59.733 32 47.292 59.733 32 59.733M32 0C14.327 0 0 14.327 0 32c0 17.673 14.327 32 32 32 17.673 0 32-14.327 32-32C64 14.327 49.673 0 32 0zm-4.267 34.133l-6.4-4.266-4.266 4.266L27.733 44.8l19.2-19.2-4.266-4.267-14.934 12.8z" fill-rule="evenodd"/></symbol><symbol viewBox="0 0 64 64" id="one"><title>one</title><path d="M32 59.733C16.708 59.733 4.267 47.292 4.267 32S16.708 4.267 32 4.267 59.733 16.708 59.733 32 47.292 59.733 32 59.733M32 0C14.327 0 0 14.327 0 32c0 17.673 14.327 32 32 32 17.673 0 32-14.327 32-32C64 14.327 49.673 0 32 0zm-3.374 42.667h5.893V21.333h-4.946c-2.26 1.968-3.664 2.644-6.106 3.412v4.734c1.007-.276 3.541-1.29 5.16-2.643v15.83z" fill-rule="evenodd"/></symbol><symbol viewBox="0 0 23 32" id="paper_list"><title>icon_002</title><path d="M13 32l10-10V2a1.93 1.93 0 0 0-.58-1.42A1.93 1.93 0 0 0 21 0H2A1.93 1.93 0 0 0 .58.58 1.93 1.93 0 0 0 0 2v28a2 2 0 0 0 2 2zm8-10.84L12.19 30H12v-9h9zM2 2h19v17H10v11H2z"/><path d="M8.25 24.94A1.53 1.53 0 0 0 7 23.41l1.06-1.28v-1h-3.7v1.7h1.18v-.59h1.08a11.74 11.74 0 0 0-1.25 1.52l.29.63c.46 0 1.17 0 1.17.63 0 .45-.41.64-.8.64a1.86 1.86 0 0 1-1.18-.5l-.64 1a2.71 2.71 0 0 0 1.92.74 1.93 1.93 0 0 0 2.12-1.96zm0-9H7.1v.67H5.69c0-.87 2.46-1.24 2.46-2.89A1.75 1.75 0 0 0 6.21 12a2.14 2.14 0 0 0-2 1.21l.95.66a1.18 1.18 0 0 1 .9-.65.54.54 0 0 1 .6.58c0 .94-2.52 1.25-2.52 3.31a3.69 3.69 0 0 0 .07.6h4zm0-7.47H7.08V4H5.9L4.38 5.37l.79.85a2.19 2.19 0 0 0 .56-.6v2.84H4.55v1.1h3.74zm10.86 5.85c0-.2-.11-.36-.22-.36h-8.5c-.13 0-.22.16-.22.36v2.14c0 .19.1.36.22.36h8.53c.12 0 .22-.17.22-.36zm0-8c0-.19-.11-.36-.22-.36h-8.5c-.13 0-.22.17-.22.36v2.14c0 .19.1.36.22.36h8.53c.12 0 .22-.17.22-.36z"/></symbol><symbol viewBox="0 0 30.97 31.97" id="person_clock"><title>icon_004</title><path d="M29.81 25.88l-.65-.36-4.52-2.16q.16-.21.31-.44a8.81 8.81 0 0 0 .85-1.76 10.26 10.26 0 0 0 .59-3.3v-3.27a4 4 0 0 0-.68-2.18 7 7 0 0 0-1.58-1.72A8.25 8.25 0 0 0 22 9.48 6.93 6.93 0 0 0 20 9a10 10 0 1 0-7.16 10.58 9.59 9.59 0 0 0 .41 1.49 10.17 10.17 0 0 0 .75 1.79q.16.26.34.51l-4.5 2.13-.73.42A2 2 0 0 0 8 27.69v2a2.24 2.24 0 0 0 .67 1.62 2.27 2.27 0 0 0 1.64.67h18.37a2.29 2.29 0 0 0 2.32-2.3v-2a2 2 0 0 0-1.19-1.8zM13.26 12.42a4.06 4.06 0 0 0-.66 2.17v3A8 8 0 1 1 18 9.18a7.27 7.27 0 0 0-1 .29 8.2 8.2 0 0 0-2.16 1.21 6.8 6.8 0 0 0-1.58 1.74zM29 29.68a.29.29 0 0 1-.29.29h-18.4a.27.27 0 0 1-.23-.09.25.25 0 0 1-.09-.21v-2h.16l.66-.38 5.69-2.69 1.5-.71-1.26-1a4 4 0 0 1-.93-1.07 8.17 8.17 0 0 1-.69-1.42 7.88 7.88 0 0 1-.48-2.54v-3.27a2.09 2.09 0 0 1 .36-1.11 4.81 4.81 0 0 1 1.11-1.22 6.21 6.21 0 0 1 1.64-.92 5 5 0 0 1 1.74-.34 4.87 4.87 0 0 1 1.78.34 6.26 6.26 0 0 1 1.63.92 5 5 0 0 1 1.1 1.23 2 2 0 0 1 .37 1.1v3.28a8.26 8.26 0 0 1-.48 2.63 6.81 6.81 0 0 1-.66 1.36 4 4 0 0 1-.92 1l-1.26 1 7.17 3.42.59.33c.13.07.13.07.13.06z"/><path d="M10 10H7v2h5V5h-2v5z"/></symbol><symbol viewBox="0 0 25 32" id="person_idea"><title>icon_012</title><path d="M18 22H7a5 5 0 0 0-5 5v5h21v-5a5 5 0 0 0-5-5zM4 30v-3a3 3 0 0 1 3-3h4.05a1.21 1.21 0 0 0-.06.35 1.35 1.35 0 0 0 .88 1.23l-.6 4.42zm17 0h-7.27l-.61-4.42a1.35 1.35 0 0 0 .88-1.23 1.21 1.21 0 0 0-.06-.35H18a3 3 0 0 1 3 3zM10 17.5V19a1 1 0 0 0 1 1h.09a1.5 1.5 0 0 0 2.83 0H14a1 1 0 0 0 1-1v-1.5a6.5 6.5 0 1 0-5 0zM12.5 7a4.5 4.5 0 0 1 1.76 8.64 4.48 4.48 0 0 1-.73.23h-.2a4.05 4.05 0 0 1-1.62 0h-.2a4.47 4.47 0 0 1-.73-.23A4.5 4.5 0 0 1 12.5 7zM21 10h4v2h-4zM2.881 3.297l1.414-1.414 2.829 2.829-1.415 1.414zM17.878 4.705l2.828-2.828L22.12 3.29l-2.828 2.828zM12 0h2v3h-2zM0 10h4v2H0z"/></symbol><symbol viewBox="0 0 64 48" id="photo"><title>photo</title><path d="M22 0l-4 8H0v39.998h64V8H46l-4.002-8H22zM4 12H20.47l1.106-2.212L24.473 4h15.054l2.893 5.788L43.526 12h16.472v31.999H4v-32zm28 6c-5.515 0-10 4.485-10 10 0 5.513 4.485 9.999 10 9.999 5.513 0 9.999-4.486 9.999-10s-4.486-10-10-10zm0 15.999A6 6 0 1 1 31.997 22 6 6 0 0 1 32 34zm15.999-14h8v-4h-8v4z" fill-rule="evenodd"/></symbol><symbol viewBox="0 0 64 64" id="play"><title>play</title><path d="M32 59.733C16.708 59.733 4.267 47.292 4.267 32S16.708 4.267 32 4.267 59.733 16.708 59.733 32 47.292 59.733 32 59.733M32 0C14.327 0 0 14.326 0 32c0 17.673 14.327 32 32 32 17.674 0 32-14.327 32-32C64 14.326 49.674 0 32 0zm-6.4 40.533L42.667 32 25.6 23.467v17.066z" fill-rule="evenodd"/></symbol><symbol viewBox="0 0 30 30" id="puzzle"><title>icon_017</title><path d="M15 30a2.3 2.3 0 0 1-.85-.16 2.13 2.13 0 0 1-.73-.48L.64 16.55a2.23 2.23 0 0 1 0-3.13l4.69-4.69a1 1 0 0 1 .51-.26.82.82 0 0 1 .57.09 1 1 0 0 1 .41.42.84.84 0 0 1 .09.57 2 2 0 0 0-.07.37v.31a3.66 3.66 0 0 0 1.1 2.67 3.56 3.56 0 0 0 2.62 1.11 3.31 3.31 0 0 0 2.56-1.11 3.83 3.83 0 0 0 1-2.67 3.74 3.74 0 0 0-1-2.62 3.33 3.33 0 0 0-2.56-1.1h-.31a2 2 0 0 0-.37.07.84.84 0 0 1-.57-.09 1 1 0 0 1-.43-.37 1 1 0 0 1-.08-.6.88.88 0 0 1 .25-.51L13.42.62a2.34 2.34 0 0 1 3.16 0l3.19 3.22a5.08 5.08 0 0 1 1.85-2.59 5.11 5.11 0 0 1 6.69.51 5 5 0 0 1 1.51 3.63 5 5 0 0 1-1 3.08 5.08 5.08 0 0 1-2.56 1.85l3.11 3.11a2.23 2.23 0 0 1 0 3.13L16.58 29.35a2.13 2.13 0 0 1-.73.48A2.3 2.3 0 0 1 15 30zM5.13 11.57L2 14.73a.32.32 0 0 0-.1.26.37.37 0 0 0 .1.23l12.77 12.8a.36.36 0 0 0 .53 0L28 15.23a.32.32 0 0 0 .09-.23.43.43 0 0 0-.09-.26l-4.47-4.52a1 1 0 0 1-.26-.5.79.79 0 0 1 .09-.56.86.86 0 0 1 .38-.41.93.93 0 0 1 .56-.12h.39a3.25 3.25 0 0 0 3.28-3.28A3.18 3.18 0 0 0 27 3.12a3.27 3.27 0 0 0-4.64 0 3.16 3.16 0 0 0-1 2.31.48.48 0 0 0 0 .12.48.48 0 0 1 0 .12v.18a.93.93 0 0 1-.12.56.86.86 0 0 1-.41.38 1 1 0 0 1-.56.07.87.87 0 0 1-.5-.25l-4.6-4.6a.31.31 0 0 0-.53 0L11.89 4.8a5.07 5.07 0 0 1 3 1.95A5.64 5.64 0 0 1 16 10.22a5.62 5.62 0 0 1-1.57 4 5.11 5.11 0 0 1-3.88 1.67 5.34 5.34 0 0 1-3.47-1.23 5.53 5.53 0 0 1-1.95-3.09z"/></symbol><symbol viewBox="0 0 120 120" id="sad"><title>icon_clock</title><path d="M60 0C26.863 0 0 26.863 0 60s26.863 60 60 60 60-26.863 60-60S93.137 0 60 0zm0 112C31.327 112 8 88.673 8 60S31.327 8 60 8s52 23.327 52 52-23.327 52-52 52zM41 54a4 4 0 1 0 0-8 4 4 0 0 0 0 8zm38 0a4 4 0 1 0 0-8 4 4 0 0 0 0 8zM37.414 86.244c.419-.218.91-.465 1.465-.732 1.606-.77 3.4-1.543 5.333-2.265C49.66 81.213 55.076 80 60 80c4.924 0 10.34 1.213 15.788 3.247a64.585 64.585 0 0 1 5.333 2.265c.556.267 1.046.514 1.465.732.24.126.395.21.46.246l3.908-6.98a45.375 45.375 0 0 0-2.372-1.21 72.541 72.541 0 0 0-5.995-2.547C72.317 73.412 66.014 72 60 72c-6.014 0-12.317 1.412-18.587 3.753a72.541 72.541 0 0 0-5.995 2.547c-1.105.53-1.911.952-2.372 1.21l3.908 6.98c.065-.036.22-.12.46-.246z" fill-rule="evenodd"/></symbol><symbol viewBox="0 0 64 63" id="search"><title>search</title><path d="M8.09 26c0-9.924 8.166-18 18.2-18 10.036 0 18.202 8.076 18.202 18s-8.166 18-18.201 18S8.089 35.924 8.089 26zM64 57.136L47.546 41.26c3.155-4.288 5.036-9.552 5.036-15.26 0-14.36-11.77-26-26.291-26C11.77 0 0 11.64 0 26s11.77 26 26.29 26a26.325 26.325 0 0 0 15.549-5.068l16.515 15.932L64 57.136z" fill-rule="evenodd"/></symbol><symbol viewBox="0 0 59 64" id="settings"><title>settings</title><path d="M59 14.77c0-3.206-2.063-5.91-4.917-6.932V0h-4.916v7.838c-2.854 1.021-4.917 3.726-4.917 6.931s2.063 5.91 4.917 6.932V64h4.916V21.7C56.937 20.68 59 17.975 59 14.77zm-7.375 2.46a2.46 2.46 0 0 1 0-4.922 2.46 2.46 0 0 1 0 4.923zM31.958 42.3V0h-4.916v42.3c-2.854 1.02-4.917 3.726-4.917 6.93 0 3.206 2.063 5.91 4.917 6.932V64h4.916v-7.838c2.854-1.021 4.917-3.726 4.917-6.931s-2.063-5.91-4.917-6.932zM29.5 51.691a2.46 2.46 0 0 1 0-4.923 2.46 2.46 0 0 1 0 4.923zM9.833 25.068V0H4.917v25.068C2.063 26.09 0 28.795 0 32c0 3.205 2.063 5.91 4.917 6.932V64h4.916V38.932C12.687 37.91 14.75 35.205 14.75 32c0-3.205-2.063-5.91-4.917-6.932zm-2.458 9.394a2.46 2.46 0 0 1 0-4.924 2.46 2.46 0 0 1 0 4.924z" fill-rule="evenodd"/></symbol><symbol viewBox="0 0 64 59" id="star"><title>star</title><path d="M32 0l-7.554 22.536H0l19.776 13.928L12.224 59 32 45.071 51.776 59l-7.552-22.536L64 22.536H39.554L32 0z" fill-rule="evenodd"/></symbol><symbol viewBox="0 0 64 64" id="three"><title>three</title><path d="M32 59.733C16.708 59.733 4.267 47.292 4.267 32S16.708 4.267 32 4.267 59.733 16.708 59.733 32 47.292 59.733 32 59.733M32 0C14.327 0 0 14.327 0 32c0 17.673 14.327 32 32 32 17.673 0 32-14.327 32-32C64 14.327 49.673 0 32 0zm-8.533 36.433c.053.937.133 2.43 1.409 3.893 1.409 1.638 3.429 2.34 6.486 2.34 3.642 0 5.13-.994 6.034-1.726 1.516-1.2 1.941-2.838 1.941-4.302 0-4.36-3.668-4.828-4.652-4.945v-.147c2.525-.292 4.28-2.37 4.28-4.828 0-3.073-2.579-5.385-7.364-5.385-4.2 0-7.55 1.844-7.682 6.087h5.13c.08-1.99 1.462-2.34 2.366-2.34 1.489 0 2.499.877 2.499 2.282 0 .234 0 2.224-2.286 2.575-1.09.175-2.1.117-2.791.088v3.628c.345-.029.877-.058 1.462-.058 1.063 0 3.88 0 3.88 2.604 0 1.259-.637 2.693-2.87 2.693-1.994 0-2.632-1.142-2.685-2.459h-5.157z" fill-rule="evenodd"/></symbol><symbol viewBox="0 0 64 54" id="twitter"><title>twitter</title><path d="M62.232 1.321a25.892 25.892 0 0 1-8.343 3.262c-2.39-2.616-5.803-4.25-9.583-4.25-7.245 0-13.125 6.029-13.125 13.464 0 1.056.113 2.08.339 3.067-10.913-.562-20.586-5.918-27.065-14.072a13.7 13.7 0 0 0-1.777 6.775c0 4.669 2.317 8.792 5.842 11.206a12.892 12.892 0 0 1-5.952-1.68v.166c0 6.526 4.527 11.968 10.538 13.202a12.58 12.58 0 0 1-3.46.473c-.846 0-1.671-.08-2.471-.239 1.671 5.347 6.517 9.241 12.264 9.345-4.493 3.614-10.157 5.767-16.307 5.767A26.31 26.31 0 0 1 0 47.623c5.81 3.814 12.715 6.044 20.127 6.044 24.153 0 37.357-20.514 37.357-38.305 0-.586-.01-1.172-.033-1.747a26.935 26.935 0 0 0 6.547-6.968 25.612 25.612 0 0 1-7.54 2.119 13.44 13.44 0 0 0 5.774-7.445" fill-rule="evenodd"/></symbol><symbol viewBox="0 0 64 64" id="two"><title>two</title><path d="M32 59.733C16.708 59.733 4.267 47.292 4.267 32S16.708 4.267 32 4.267 59.733 16.708 59.733 32 47.292 59.733 32 59.733M32 0C14.327 0 0 14.327 0 32c0 17.673 14.327 32 32 32 17.673 0 32-14.327 32-32C64 14.327 49.673 0 32 0zm-8.533 42.667h15.311v-4.118h-8.911c5.184-4.117 8.857-7.041 8.857-11.338 0-1.193-.297-2.357-1-3.342-1.214-1.73-3.267-2.536-6.13-2.536-1.592 0-4.806.269-6.4 2.387-1.295 1.73-1.35 3.342-1.35 3.998h5.267c.054-.566.189-2.416 2.214-2.416.675 0 2.025.238 2.025 2.088 0 .955-.324 1.73-.675 2.357-1.377 2.178-4.969 5.162-9.208 8.623v4.297z" fill-rule="evenodd"/></symbol><symbol viewBox="0 0 14 14" id="validation-ko"><title>Fill 2</title><path d="M14 1.4L12.6 0 7 5.6 1.4 0 0 1.4 5.6 7 0 12.6 1.4 14 7 8.4l5.6 5.6 1.4-1.4L8.4 7 14 1.4z" fill-rule="evenodd"/></symbol><symbol viewBox="0 0 14 11" id="validation-ok"><title>Fill 3</title><path d="M5 6L2 4 0 6l5 5 9-9-2-2-7 6z" fill-rule="evenodd"/></symbol><symbol viewBox="0 0 64 48" id="video"><title>video</title><path d="M60 44H14.89c.688-1.18 1.11-2.536 1.11-4V4h44v40zM4 40V16h8v6H6v4h6v6H6v4h6v4c0 2.206-1.794 4-4 4s-4-1.794-4-4zM60 0H12v12H0v28a8 8 0 0 0 8 8h56V0h-4zM22 36h32v-4H22v4zm0-10h32v-4H22v4zm0-10h32v-4H22v4z" fill-rule="evenodd"/></symbol><symbol viewBox="0 0 32 32" id="wallet"><title>icon_008</title><path d="M15.57 8.93H17V5.71a2.75 2.75 0 0 1-.61.64l-.86-.89 1.65-1.53h1.27v5h1.43v1h.67a5.85 5.85 0 0 0 .76-2.84c0-2-1.23-4.64-3.57-4.64s-3.57 2.61-3.57 4.64A5.85 5.85 0 0 0 14.9 10h.67zM26.67 19.59a1.78 1.78 0 0 0-1.25 3 1.78 1.78 0 0 0 2.51-2.51 1.69 1.69 0 0 0-1.26-.49z"/><path d="M31.13 10.91A3 3 0 0 0 29 10H4q-.59 0-.78-.25L3 9.47l4-.8V10h2V4.29c1.57 0 2.25-.73 2.25-2.3h12.89c0 1.57.61 2.3 2.18 2.3V10h2.1V.71a.72.72 0 0 0-.71-.71h-20A.72.72 0 0 0 7 .71v5.88l-4.56.91A2.76 2.76 0 0 0 .38 9 5.07 5.07 0 0 0 0 10.56V29a2.89 2.89 0 0 0 .88 2.13A2.89 2.89 0 0 0 3 32h26a3 3 0 0 0 3-3V13a2.86 2.86 0 0 0-.87-2.09zM30 29a.94.94 0 0 1-.3.69 1 1 0 0 1-.7.31H3a1 1 0 0 1-.7-.29A.94.94 0 0 1 2 29V11.3q0 .49.64.74a3.76 3.76 0 0 0 1.36.24h25a1 1 0 0 1 .7.29.94.94 0 0 1 .3.69z"/></symbol></svg>