<svg xmlns="http://www.w3.org/2000/svg"><symbol viewBox="0 0 64 56" id="alert"><title>alert</title><path d="M0 56h64L32 0 0 56zm32-39.876L50.212 48H13.784L32 16.125z" fill-rule="evenodd"/></symbol><symbol viewBox="0 0 64 38" id="arrow_down"><title>arrow_down</title><path d="M55.482 0L32.006 23.528 8.526 0 0 5.934 32.006 38 64 5.934 55.482 0z" fill-rule="evenodd"/></symbol><symbol viewBox="0 0 38 64" id="arrow_left"><title>arrow_left</title><path d="M38 8.518L14.472 31.994 38 55.474 32.066 64 0 31.994 32.066 0 38 8.518z" fill-rule="evenodd"/></symbol><symbol viewBox="0 0 38 64" id="arrow_rigth"><title>arrow_rigth</title><path d="M0 8.518l23.528 23.476L0 55.474 5.934 64 38 31.994 5.934 0 0 8.518z" fill-rule="evenodd"/></symbol><symbol viewBox="0 0 64 55" id="calendar"><title>calendar</title><path d="M50 0v6h-4V0h-4.002v6H20V0h-4v6h-4V0H7.998v6H0v48h64V6H54V0h-4zm4 12v-2h5.998v8H4v-8h3.998v2H12v-2h4v2h4v-2h21.998v2H46v-2h4v2h4zM4 50h56V22H4v28zm12-18h32v-4H16v4zm0 10h32v-4H16v4z" fill-rule="evenodd"/></symbol><symbol viewBox="0 0 64 58" id="chart"><title>chart</title><path d="M4.297 57.918L.274 55.755 15.37 27.953l13.923 17.814L52.288 0l11.328 16.908-3.804 2.523-6.957-10.384L30.137 54.26 16.06 36.25 4.295 57.92z" fill-rule="evenodd"/></symbol><symbol viewBox="0 0 64 54" id="chat"><title>chat</title><path d="M0 0v36h20v18l10-12h8l12 12V42h14V14H48V0H0zm4 4h40v10H28v23l-4 5V32H4V4zm28 14h28v20H46v6l-6-6h-8V18z" fill-rule="evenodd"/></symbol><symbol viewBox="0 0 64 50" id="check"><title>check</title><path d="M22.857 27.273l-13.714-9.09L0 27.273 22.857 50 64 9.09 54.857 0l-32 27.273z" fill-rule="evenodd"/></symbol><symbol viewBox="0 0 64 64" id="clock"><title>clock</title><path d="M32 59.733C16.708 59.733 4.267 47.293 4.267 32 4.267 16.708 16.707 4.267 32 4.267c15.292 0 27.733 12.44 27.733 27.733 0 15.292-12.44 27.733-27.733 27.733M32 0C14.327 0 0 14.327 0 32c0 17.673 14.327 32 32 32 17.673 0 32-14.327 32-32C64 14.327 49.673 0 32 0zm2.133 14.933h-4.266v21.334h12.8V32h-8.534V14.933z" fill-rule="evenodd"/></symbol><symbol viewBox="0 0 64 64" id="close"><title>close</title><path d="M64 6.4L57.6 0 32 25.6 6.4 0 0 6.4 25.6 32 0 57.6 6.4 64 32 38.4 57.6 64l6.4-6.4L38.4 32 64 6.4z" fill-rule="evenodd"/></symbol><symbol viewBox="0 0 40 64" id="cohete"><title>cohete</title><path d="M26 41.838s-.41 4.08-6 4.08-6-4.08-6-4.08l-10 2.04c0-9.48 6-12.242 6-12.242C7.74 14.544 20 5.11 20 5.11s12.26 9.434 10 26.526c0 0 6 2.762 6 12.242l-10-2.04zm8.214-12.21C35.312 12.004 22.96 2.276 22.408 1.854L20 0l-2.408 1.854c-.552.422-12.904 10.15-11.806 27.774C2.988 32.066 0 36.666 0 43.878v4.978l4.784-.976 7.004-1.43C13.286 48.358 15.858 50 20 50c4.142 0 6.714-1.642 8.212-3.55l7.004 1.43 4.784.976v-4.978c0-7.212-2.988-11.812-5.786-14.25zM18 60h4v-8h-4v8zm8 4h4V52h-4v12zm-16 0h4V52h-4v12zm10-48.99c-3.308 0-6 2.692-6 6s2.692 6 6 6 6-2.692 6-6-2.692-6-6-6zm0 8a2 2 0 1 1 0-4 2 2 0 0 1 0 4z" fill-rule="evenodd"/></symbol><symbol viewBox="0 0 64 44" id="comillas"><title>comillas</title><path d="M64 32.19c0-2.316-.812-4.516-2.435-6.6-1.623-2.085-3.98-3.127-7.072-3.127-1.237 0-2.512.193-3.826.58-1.314.385-2.667 1.118-4.058 2.2-.93-1.39-1.394-3.63-1.394-6.717 0-4.94 1.392-8.607 4.174-11 2.784-2.393 6.88-4.13 12.29-5.21V0c-3.71 0-7.303.58-10.78 1.737-3.48 1.158-6.494 2.856-9.045 5.095a25.98 25.98 0 0 0-6.145 7.99c-1.546 3.087-2.32 6.56-2.32 10.42 0 5.095 1.547 9.495 4.64 13.2C41.12 42.147 45.294 44 50.55 44c3.556 0 6.687-1.003 9.392-3.01C62.647 38.98 64 36.05 64 32.19zm-33.39 0c0-2.316-.813-4.516-2.436-6.6-1.623-2.085-3.98-3.127-7.073-3.127-1.234 0-2.51.193-3.824.58-1.314.385-2.666 1.118-4.058 2.2-.927-1.39-1.39-3.63-1.39-6.717 0-4.94 1.39-8.607 4.173-11 2.784-2.393 6.88-4.13 12.29-5.21V0c-3.71 0-7.303.58-10.782 1.737-3.478 1.158-6.492 2.856-9.043 5.095a25.98 25.98 0 0 0-6.145 7.99C.772 17.908 0 21.38 0 25.24c0 5.095 1.546 9.495 4.638 13.2 3.09 3.707 7.265 5.56 12.52 5.56 3.557 0 6.687-1.003 9.393-3.01 2.707-2.008 4.06-4.94 4.06-8.8z" fill-rule="evenodd"/></symbol><symbol viewBox="0 0 39 64" id="doc"><title>doc</title><path d="M34.125 19.692v24.616c0 8.142-6.562 14.77-14.625 14.77-8.063 0-14.625-6.628-14.625-14.77v-29.54c0-5.43 4.373-9.845 9.75-9.845s9.75 4.416 9.75 9.846V36.92c0 2.715-2.186 4.923-4.875 4.923-2.69 0-4.875-2.208-4.875-4.923V17.23H9.75v19.693c0 5.438 4.366 9.846 9.75 9.846s9.75-4.41 9.75-9.848V14.77C29.25 6.61 22.703 0 14.625 0S0 6.612 0 14.77v29.538C0 55.183 8.73 64 19.5 64S39 55.183 39 44.308V19.692h-4.875z" fill-rule="evenodd"/></symbol><symbol viewBox="0 0 64 64" id="error"><title>error</title><path d="M9.143 32c0-4.65 1.412-8.97 3.808-12.585L44.587 51.05C40.97 53.444 36.65 54.856 32 54.856 19.397 54.856 9.143 44.603 9.143 32m45.714 0c0 4.65-1.412 8.97-3.808 12.585L19.413 12.95C23.03 10.556 27.35 9.144 32 9.144c12.603 0 22.857 10.254 22.857 22.857M32 0C14.327 0 0 14.327 0 32c0 17.673 14.327 32 32 32 17.673 0 32-14.327 32-32C64 14.327 49.673 0 32 0" fill-rule="evenodd"/></symbol><symbol viewBox="0 0 30 20" id="eye"><title>icon_eye</title><path d="M15 18c-5.58 0-10.586-5.567-12.507-8C4.415 7.566 9.42 2 15 2s10.586 5.567 12.507 8C25.585 12.434 20.58 18 15 18m0-18C6.716 0 0 10 0 10s6.716 10 15 10c8.284 0 15-10 15-10S23.284 0 15 0zm0 6c-2.206 0-4 1.794-4 4s1.794 4 4 4 4-1.794 4-4-1.794-4-4-4zm0 6a2 2 0 1 1 0-4 2 2 0 0 1 0 4z" fill="#CCC" fill-rule="evenodd"/></symbol><symbol viewBox="0 0 64 64" id="facebook"><title>facebook</title><path d="M63.29 59.835a3.453 3.453 0 0 1-3.455 3.454H43.89V39.053h8.133l1.22-9.444H43.89v-6.028c0-2.734.76-4.6 4.68-4.6h5v-8.447c-.866-.116-3.834-.374-7.287-.374-7.21 0-12.147 4.404-12.147 12.487v6.965H25.98v9.445h8.156V63.29H4.166A3.453 3.453 0 0 1 .71 59.834V4.164A3.453 3.453 0 0 1 4.166.71h55.67a3.453 3.453 0 0 1 3.454 3.455v55.67" fill-rule="evenodd"/></symbol><symbol viewBox="0 0 64 64" id="five"><title>five</title><path d="M32 59.733C16.708 59.733 4.267 47.293 4.267 32 4.267 16.708 16.707 4.267 32 4.267c15.292 0 27.733 12.44 27.733 27.733 0 15.292-12.44 27.733-27.733 27.733M32 0C14.327 0 0 14.327 0 32c0 17.673 14.327 32 32 32 17.673 0 32-14.327 32-32C64 14.327 49.673 0 32 0zm-3.26 36.25c.038.802.277 1.4.72 1.79.44.393.994.59 1.656.59.68 0 1.183-.152 1.505-.453.325-.3.56-.603.707-.904.165-.362.276-.748.33-1.16.056-.412.084-.758.084-1.04 0-.42-.04-.828-.123-1.22a3.09 3.09 0 0 0-.415-1.04c-.192-.3-.45-.542-.772-.723-.322-.18-.713-.27-1.174-.27-.662 0-1.173.19-1.532.572-.36.38-.576.803-.65 1.265l-5.302-.06.387-12.264h13.807v4.098h-9.003l-.33 5.125c.146-.282.358-.598.634-.95.276-.35.727-.687 1.353-1.01.405-.22.82-.38 1.243-.48.423-.1.865-.152 1.325-.152.682 0 1.377.12 2.085.362a5.1 5.1 0 0 1 1.92 1.19c.57.553 1.035 1.266 1.394 2.14.36.873.54 1.943.54 3.21 0 .32-.024.717-.07 1.19a8.915 8.915 0 0 1-.29 1.505 8.627 8.627 0 0 1-.635 1.61 5.97 5.97 0 0 1-1.104 1.508 5.974 5.974 0 0 1-1.353 1.024 7.07 7.07 0 0 1-1.464.603c-.497.14-.99.236-1.477.286-.488.053-.935.078-1.34.078-.386 0-.865-.025-1.436-.076-.57-.05-1.16-.16-1.767-.33a9.116 9.116 0 0 1-1.796-.723 5.186 5.186 0 0 1-1.547-1.25 4.65 4.65 0 0 1-.773-1.117 5.955 5.955 0 0 1-.414-1.114 5.406 5.406 0 0 1-.166-1.01 13.83 13.83 0 0 1-.027-.798h5.274z" fill-rule="evenodd"/></symbol><symbol viewBox="0 0 64 64" id="four"><title>four</title><path d="M32 59.733C16.708 59.733 4.267 47.293 4.267 32 4.267 16.708 16.707 4.267 32 4.267c15.292 0 27.733 12.44 27.733 27.733 0 15.292-12.44 27.733-27.733 27.733M32 0C14.327 0 0 14.327 0 32c0 17.673 14.327 32 32 32 17.673 0 32-14.327 32-32C64 14.327 49.673 0 32 0zm.585 42.667h4.9v-4.224h3.048v-3.887h-3.048V21.333h-6.043l-7.975 12.12v4.99h9.118v4.224zm-5.607-8.11l5.69-8.724v8.723h-5.69z" fill-rule="evenodd"/></symbol><symbol viewBox="0 0 24 16" id="gplus"><title>icon_facebook</title><path d="M7.623 6.124v3.024s2.928-.004 4.12-.004c-.645 1.96-1.65 3.03-4.12 3.03-2.5 0-4.453-2.032-4.453-4.538C3.17 5.13 5.122 3.1 7.623 3.1c1.322 0 2.176.466 2.96 1.114.626-.628.574-.717 2.17-2.226A7.588 7.588 0 0 0 7.623 0C3.412 0 0 3.42 0 7.636c0 4.217 3.413 7.637 7.623 7.637 6.292 0 7.83-5.49 7.32-9.15h-7.32zm13.736.15V3.63h-1.89v2.645h-2.717v1.89h2.717v2.723h1.887V8.165H24v-1.89h-2.64z" fill-rule="evenodd"/></symbol><symbol viewBox="0 0 64 64" id="info"><title>info</title><path d="M26.667 21.333h10.666V10.667H26.667v10.666zm0 32h10.666V26.667H26.667v26.666zM32 0C14.325 0 0 14.325 0 32s14.325 32 32 32 32-14.325 32-32S49.675 0 32 0z" fill-rule="evenodd"/></symbol><symbol viewBox="0 0 64 58" id="linkedin"><title>linkedin</title><path d="M2.29 18.728h12.195v38.914H2.29V18.728zm45.52-.374c-6.988 0-11.366 3.81-12.175 6.48V18.73h-13.7c.175 3.242 0 38.914 0 38.914h13.7v-21.06c0-1.17-.055-2.34.298-3.18.942-2.34 2.965-4.77 6.604-4.77 4.758 0 6.92 3.6 6.92 8.87V57.64h13.83V36.004c0-12.052-6.81-17.65-15.478-17.65zM8.16.358C3.66.358.71 3.27.71 7.115c0 3.772 2.864 6.745 7.278 6.745h.088c4.586 0 7.44-2.985 7.44-6.755C15.428 3.263 12.662.358 8.16.358z" fill-rule="evenodd"/></symbol><symbol viewBox="0 0 64 60" id="notification"><title>notification</title><path d="M36.825 54.354C35.9 55.446 34.275 56 32 56c-2.27 0-3.893-.548-4.82-1.628-.567-.66-.903-1.514-1.093-2.372h11.817c-.19.846-.52 1.696-1.078 2.354zM12.83 44.828l1.17-1.17V24.276C14.004 23.61 14.302 8 32 8c17.233 0 17.973 14.628 18 16.25v19.408l1.17 1.17L54.344 48H9.658l3.172-3.172zM64 52L54 42V24.25S53.884 5.254 34 4.06V0h-4v4.06C10.118 5.254 10 24.25 10 24.25V42L0 52h22.033c.516 3.492 2.602 8 9.968 8 7.35 0 9.44-4.508 9.96-8H64z" fill-rule="evenodd"/></symbol><symbol viewBox="0 0 64 64" id="ok"><title>ok</title><path d="M32 59.733C16.708 59.733 4.267 47.293 4.267 32 4.267 16.708 16.707 4.267 32 4.267c15.292 0 27.733 12.44 27.733 27.733 0 15.292-12.44 27.733-27.733 27.733M32 0C14.327 0 0 14.327 0 32c0 17.673 14.327 32 32 32 17.673 0 32-14.327 32-32C64 14.327 49.673 0 32 0zm-4.267 34.133l-6.4-4.266-4.266 4.266L27.733 44.8l19.2-19.2-4.266-4.267-14.934 12.8z" fill-rule="evenodd"/></symbol><symbol viewBox="0 0 64 64" id="one"><title>one</title><path d="M32 59.733C16.708 59.733 4.267 47.293 4.267 32 4.267 16.708 16.707 4.267 32 4.267c15.292 0 27.733 12.44 27.733 27.733 0 15.292-12.44 27.733-27.733 27.733M32 0C14.327 0 0 14.327 0 32c0 17.673 14.327 32 32 32 17.673 0 32-14.327 32-32C64 14.327 49.673 0 32 0zm-3.374 42.667h5.893V21.333H29.57c-2.26 1.968-3.664 2.644-6.106 3.412v4.734c1.007-.278 3.54-1.293 5.16-2.645v15.83z" fill-rule="evenodd"/></symbol><symbol viewBox="0 0 64 48" id="photo"><title>photo</title><path d="M22 0l-4 8H0v39.998h64V8H46l-4.002-8h-20zM4 12h16.47l1.107-2.212L24.473 4h15.054l2.893 5.788L43.526 12h16.472v32H4V12zm28 6c-5.515 0-10 4.485-10 10 0 5.513 4.485 10 10 10 5.513 0 10-4.487 10-10 0-5.515-4.487-10-10-10zm0 16a6 6 0 1 1-.002-12 6 6 0 0 1 0 12zm16-14h7.998v-4h-8v4z" fill-rule="evenodd"/></symbol><symbol viewBox="0 0 64 64" id="play"><title>play</title><path d="M32 59.733C16.708 59.733 4.267 47.293 4.267 32 4.267 16.708 16.707 4.267 32 4.267c15.292 0 27.733 12.44 27.733 27.733 0 15.292-12.44 27.733-27.733 27.733M32 0C14.327 0 0 14.326 0 32c0 17.673 14.327 32 32 32 17.674 0 32-14.327 32-32C64 14.326 49.674 0 32 0zm-6.4 40.533L42.667 32 25.6 23.467v17.066z" fill-rule="evenodd"/></symbol><symbol viewBox="0 0 64 63" id="search"><title>search</title><path d="M8.09 26c0-9.924 8.166-18 18.2-18 10.036 0 18.202 8.076 18.202 18s-8.166 18-18.2 18C16.255 44 8.088 35.924 8.088 26zM64 57.136L47.546 41.26c3.155-4.288 5.036-9.552 5.036-15.26 0-14.36-11.77-26-26.29-26C11.77 0 0 11.64 0 26s11.77 26 26.29 26a26.325 26.325 0 0 0 15.55-5.068l16.514 15.932L64 57.136z" fill-rule="evenodd"/></symbol><symbol viewBox="0 0 59 64" id="settings"><title>settings</title><path d="M59 14.77c0-3.206-2.063-5.91-4.917-6.932V0h-4.916v7.838c-2.854 1.02-4.917 3.726-4.917 6.93 0 3.206 2.063 5.91 4.917 6.933V64h4.916V21.7C56.937 20.68 59 17.975 59 14.77zm-7.375 2.46a2.46 2.46 0 0 1 0-4.922 2.46 2.46 0 0 1 0 4.923zM31.958 42.3V0h-4.916v42.3c-2.854 1.02-4.917 3.726-4.917 6.93 0 3.206 2.063 5.91 4.917 6.932V64h4.916v-7.838c2.854-1.02 4.917-3.726 4.917-6.93 0-3.206-2.063-5.91-4.917-6.933zM29.5 51.69a2.46 2.46 0 0 1 0-4.923 2.46 2.46 0 0 1 0 4.922zM9.833 25.068V0H4.917v25.068C2.063 26.09 0 28.795 0 32c0 3.205 2.063 5.91 4.917 6.932V64h4.916V38.932C12.687 37.91 14.75 35.205 14.75 32c0-3.205-2.063-5.91-4.917-6.932zm-2.458 9.394a2.46 2.46 0 0 1 0-4.924 2.46 2.46 0 0 1 0 4.924z" fill-rule="evenodd"/></symbol><symbol viewBox="0 0 64 59" id="star"><title>star</title><path d="M32 0l-7.554 22.536H0l19.776 13.928L12.224 59 32 45.07 51.776 59l-7.552-22.536L64 22.536H39.554L32 0z" fill-rule="evenodd"/></symbol><symbol viewBox="0 0 64 64" id="three"><title>three</title><path d="M32 59.733C16.708 59.733 4.267 47.293 4.267 32 4.267 16.708 16.707 4.267 32 4.267c15.292 0 27.733 12.44 27.733 27.733 0 15.292-12.44 27.733-27.733 27.733M32 0C14.327 0 0 14.327 0 32c0 17.673 14.327 32 32 32 17.673 0 32-14.327 32-32C64 14.327 49.673 0 32 0zm-8.533 36.433c.053.937.133 2.43 1.41 3.893 1.408 1.638 3.428 2.34 6.485 2.34 3.642 0 5.13-.994 6.034-1.726 1.516-1.2 1.94-2.838 1.94-4.302 0-4.36-3.667-4.828-4.65-4.945v-.147c2.524-.292 4.28-2.37 4.28-4.828 0-3.073-2.58-5.385-7.365-5.385-4.2 0-7.547 1.844-7.68 6.087h5.13c.08-1.99 1.46-2.34 2.366-2.34 1.49 0 2.5.877 2.5 2.282 0 .234 0 2.224-2.287 2.575-1.09.175-2.1.117-2.79.088v3.628c.343-.03.875-.058 1.46-.058 1.063 0 3.88 0 3.88 2.604 0 1.257-.637 2.69-2.87 2.69-1.994 0-2.632-1.14-2.685-2.46h-5.157z" fill-rule="evenodd"/></symbol><symbol viewBox="0 0 64 54" id="twitter"><title>twitter</title><path d="M62.232 1.32a25.892 25.892 0 0 1-8.343 3.263C51.5 1.967 48.084.333 44.304.333c-7.245 0-13.125 6.03-13.125 13.464 0 1.056.114 2.08.34 3.067-10.913-.562-20.586-5.918-27.065-14.072a13.7 13.7 0 0 0-1.777 6.775c0 4.67 2.317 8.792 5.842 11.206a12.892 12.892 0 0 1-5.952-1.68v.166c0 6.524 4.527 11.966 10.538 13.2a12.58 12.58 0 0 1-3.46.473c-.846 0-1.67-.08-2.47-.24 1.67 5.348 6.516 9.242 12.263 9.346-4.495 3.613-10.16 5.766-16.31 5.766A26.31 26.31 0 0 1 0 47.623c5.81 3.814 12.715 6.044 20.127 6.044 24.153 0 37.357-20.514 37.357-38.305 0-.586-.01-1.172-.033-1.747A26.935 26.935 0 0 0 64 6.647a25.612 25.612 0 0 1-7.54 2.12 13.44 13.44 0 0 0 5.774-7.446" fill-rule="evenodd"/></symbol><symbol viewBox="0 0 64 64" id="two"><title>two</title><path d="M32 59.733C16.708 59.733 4.267 47.293 4.267 32 4.267 16.708 16.707 4.267 32 4.267c15.292 0 27.733 12.44 27.733 27.733 0 15.292-12.44 27.733-27.733 27.733M32 0C14.327 0 0 14.327 0 32c0 17.673 14.327 32 32 32 17.673 0 32-14.327 32-32C64 14.327 49.673 0 32 0zm-8.533 42.667h15.31V38.55h-8.91c5.184-4.118 8.857-7.042 8.857-11.34 0-1.192-.297-2.356-1-3.34-1.214-1.73-3.267-2.537-6.13-2.537-1.592 0-4.806.27-6.4 2.387-1.295 1.73-1.35 3.342-1.35 3.998h5.267c.056-.566.19-2.416 2.216-2.416.675 0 2.025.238 2.025 2.088 0 .955-.323 1.73-.674 2.357-1.377 2.178-4.97 5.162-9.208 8.623v4.297z" fill-rule="evenodd"/></symbol><symbol viewBox="0 0 14 14" id="validation-ko"><title>Fill 2</title><path d="M14 1.4L12.6 0 7 5.6 1.4 0 0 1.4 5.6 7 0 12.6 1.4 14 7 8.4l5.6 5.6 1.4-1.4L8.4 7 14 1.4z" fill-rule="evenodd"/></symbol><symbol viewBox="0 0 14 11" id="validation-ok"><title>Fill 3</title><path d="M5 6L2 4 0 6l5 5 9-9-2-2-7 6z" fill-rule="evenodd"/></symbol><symbol viewBox="0 0 64 48" id="video"><title>video</title><path d="M60 44H14.89c.688-1.18 1.11-2.536 1.11-4V4h44v40zM4 40V16h8v6H6v4h6v6H6v4h6v4c0 2.206-1.794 4-4 4s-4-1.794-4-4zM60 0H12v12H0v28a8 8 0 0 0 8 8h56V0h-4zM22 36h32v-4H22v4zm0-10h32v-4H22v4zm0-10h32v-4H22v4z" fill-rule="evenodd"/></symbol></svg>